<svg xmlns="http://www.w3.org/2000/svg" width="293.057" height="218.363" viewBox="0 0 293.057 218.363">
  <g id="To_do_list-rafiki" data-name="To do list-rafiki" transform="translate(0 -55)">
    <g id="freepik--background-complete--inject-26" transform="translate(0 55)">
      <rect id="Rectangle_69" data-name="Rectangle 69" width="293.057" height="0.147" transform="translate(0 191.894)" fill="#ebebeb"/>
      <path id="Path_226" data-name="Path 226" d="M154.724,220.753H41.551a3.347,3.347,0,0,1-3.341-3.347V58.317A3.347,3.347,0,0,1,41.551,55H154.724a3.347,3.347,0,0,1,3.347,3.347v159.06A3.347,3.347,0,0,1,154.724,220.753ZM41.551,55.117a3.2,3.2,0,0,0-3.194,3.2V217.406a3.2,3.2,0,0,0,3.194,3.2H154.724a3.206,3.206,0,0,0,3.2-3.2V58.317a3.206,3.206,0,0,0-3.2-3.2Z" transform="translate(-15.815 -55)" fill="#ebebeb"/>
      <path id="Path_227" data-name="Path 227" d="M371.025,220.753H257.847a3.353,3.353,0,0,1-3.347-3.347V58.317A3.353,3.353,0,0,1,257.847,55H371.025a3.347,3.347,0,0,1,3.335,3.317V217.406A3.347,3.347,0,0,1,371.025,220.753ZM257.847,55.117a3.206,3.206,0,0,0-3.2,3.2V217.406a3.206,3.206,0,0,0,3.2,3.2H371.025a3.206,3.206,0,0,0,3.2-3.2V58.317a3.206,3.206,0,0,0-3.2-3.2Z" transform="translate(-105.334 -55)" fill="#ebebeb"/>
      <rect id="Rectangle_70" data-name="Rectangle 70" width="15.239" height="0.147" transform="translate(30.056 197.473)" fill="#ebebeb"/>
      <rect id="Rectangle_71" data-name="Rectangle 71" width="26.393" height="0.147" transform="translate(85.074 195.885)" fill="#ebebeb"/>
      <rect id="Rectangle_72" data-name="Rectangle 72" width="35.63" height="0.147" transform="translate(45.881 202.918)" fill="#ebebeb"/>
      <rect id="Rectangle_73" data-name="Rectangle 73" width="11.271" height="0.147" transform="translate(251.73 201.934)" fill="#ebebeb"/>
      <rect id="Rectangle_74" data-name="Rectangle 74" width="32.406" height="0.147" transform="translate(214.102 201.934)" fill="#ebebeb"/>
      <rect id="Rectangle_75" data-name="Rectangle 75" width="43.648" height="0.147" transform="translate(150.661 199.46)" fill="#ebebeb"/>
      <rect id="Rectangle_76" data-name="Rectangle 76" width="24.646" height="63.236" transform="translate(130.598 128.658)" fill="#f0f0f0"/>
      <rect id="Rectangle_77" data-name="Rectangle 77" width="88.187" height="63.236" transform="translate(130.598 191.894) rotate(180)" fill="#f5f5f5"/>
      <rect id="Rectangle_78" data-name="Rectangle 78" width="14.717" height="12.877" transform="translate(62.532 185.734) rotate(180)" fill="#fff"/>
      <rect id="Rectangle_79" data-name="Rectangle 79" width="14.717" height="12.877" transform="translate(62.532 168.133) rotate(180)" fill="#ebebeb"/>
      <rect id="Rectangle_80" data-name="Rectangle 80" width="113.091" height="2.538" transform="translate(42.147 136.822)" fill="#e6e6e6" opacity="0.7" style="mix-blend-mode: multiply;isolation: isolate"/>
      <rect id="Rectangle_81" data-name="Rectangle 81" width="26.006" height="10.239" transform="translate(130.598 127.433)" fill="#f0f0f0"/>
      <rect id="Rectangle_82" data-name="Rectangle 82" width="89.552" height="10.239" transform="translate(130.592 137.672) rotate(180)" fill="#f5f5f5"/>
      <rect id="Rectangle_83" data-name="Rectangle 83" width="19.154" height="19.488" transform="translate(126.747 108.103)" fill="#f0f0f0"/>
      <rect id="Rectangle_84" data-name="Rectangle 84" width="66.694" height="19.488" transform="translate(126.741 127.585) rotate(180)" fill="#f5f5f5"/>
      <rect id="Rectangle_85" data-name="Rectangle 85" width="86.047" height="1.577" transform="translate(59.854 111.039)" fill="#e6e6e6" opacity="0.7" style="mix-blend-mode: multiply;isolation: isolate"/>
      <rect id="Rectangle_86" data-name="Rectangle 86" width="20.209" height="4.554" transform="translate(126.747 107.147)" fill="#f0f0f0"/>
      <rect id="Rectangle_87" data-name="Rectangle 87" width="67.749" height="4.554" transform="translate(126.747 111.702) rotate(180)" fill="#f5f5f5"/>
      <rect id="Rectangle_88" data-name="Rectangle 88" width="18.75" height="94.88" transform="translate(187.205 191.894) rotate(180)" fill="#e6e6e6"/>
      <path id="Path_228" data-name="Path 228" d="M291.425,377.649H287.41V370.92h8.223Z" transform="translate(-118.955 -185.755)" fill="#f0f0f0"/>
      <rect id="Rectangle_89" data-name="Rectangle 89" width="18.75" height="94.88" transform="translate(249.755 191.894) rotate(180)" fill="#e6e6e6"/>
      <rect id="Rectangle_90" data-name="Rectangle 90" width="66.049" height="93.52" transform="translate(234.504 190.534) rotate(180)" fill="#f0f0f0"/>
      <rect id="Rectangle_91" data-name="Rectangle 91" width="59.819" height="25.648" transform="translate(231.392 126.812) rotate(180)" fill="#e6e6e6"/>
      <path id="Path_229" data-name="Path 229" d="M344.906,245.763a3.927,3.927,0,1,1-1.15-2.783A3.933,3.933,0,0,1,344.906,245.763Z" transform="translate(-139.496 -132.326)" fill="#fafafa"/>
      <path id="Path_230" data-name="Path 230" d="M390.278,377.649h4.015V370.92H386.07Z" transform="translate(-159.789 -185.755)" fill="#f0f0f0"/>
      <rect id="Rectangle_92" data-name="Rectangle 92" width="59.819" height="55.441" transform="translate(171.567 130.95)" fill="#e6e6e6"/>
      <circle id="Ellipse_12" data-name="Ellipse 12" cx="3.933" cy="3.933" r="3.933" transform="translate(219.195 135.281)" fill="#fafafa"/>
      <rect id="Rectangle_93" data-name="Rectangle 93" width="76.769" height="192.855" transform="translate(243.384 9.688) rotate(90)" fill="#e6e6e6"/>
      <rect id="Rectangle_94" data-name="Rectangle 94" width="76.769" height="192.855" transform="translate(242.534 9.683) rotate(90)" fill="#f0f0f0"/>
      <rect id="Rectangle_95" data-name="Rectangle 95" width="183.043" height="66.952" transform="translate(54.585 14.594)" fill="#fff"/>
      <path id="Path_231" data-name="Path 231" d="M125,127.5l-6.436,11.154h12.877Z" transform="translate(-49.07 -85.007)" fill="#e6e6e6"/>
      <rect id="Rectangle_96" data-name="Rectangle 96" width="10.515" height="10.515" transform="translate(98.825 42.81)" fill="#e6e6e6"/>
      <path id="Path_232" data-name="Path 232" d="M220.624,125.54l-7.074,5.134,2.7,8.317h8.739l2.7-8.317Z" transform="translate(-88.385 -84.196)" fill="#e6e6e6"/>
      <path id="Path_233" data-name="Path 233" d="M272.12,126.03h-7.438l-3.722,6.436,3.722,6.441h7.438l3.716-6.441Z" transform="translate(-108.008 -84.398)" fill="#e6e6e6"/>
      <path id="Path_234" data-name="Path 234" d="M316.57,124.95l-5.814,2.8-1.436,6.295,4.021,5.041h6.453l4.027-5.041-1.436-6.295Z" transform="translate(-128.023 -83.951)" fill="#e6e6e6"/>
      <path id="Path_235" data-name="Path 235" d="M367.718,125.29h-5.691L358,129.317v5.691l4.027,4.027h5.691l4.021-4.027v-5.691Z" transform="translate(-148.171 -84.092)" fill="#e6e6e6"/>
    </g>
    <g id="freepik--Shadow--inject-26" transform="translate(32.887 260.093)">
      <ellipse id="freepik--path--inject-26" cx="113.642" cy="6.635" rx="113.642" ry="6.635" fill="#f5f5f5"/>
    </g>
    <g id="freepik--to-do-list--inject-26" transform="translate(126.247 92.739)">
      <path id="Path_236" data-name="Path 236" d="M231.036,129.51h96.5a3.481,3.481,0,0,1,3.517,3.739l-7.872,126.794a4.05,4.05,0,0,1-3.974,3.745H222.7a3.517,3.517,0,0,1-3.517-3.745l7.866-126.794a4.056,4.056,0,0,1,3.986-3.739Z" transform="translate(-216.962 -123.577)" fill="#1c47a1"/>
      <path id="Path_237" data-name="Path 237" d="M231.036,129.51h96.5a3.481,3.481,0,0,1,3.517,3.739l-7.872,126.794a4.05,4.05,0,0,1-3.974,3.745H222.7a3.517,3.517,0,0,1-3.517-3.745l7.866-126.794a4.056,4.056,0,0,1,3.986-3.739Z" transform="translate(-216.962 -123.577)" opacity="0.4"/>
      <path id="Path_238" data-name="Path 238" d="M227.256,129.51h96.5a3.481,3.481,0,0,1,3.517,3.739L319.4,260.043a4.05,4.05,0,0,1-3.98,3.745h-96.5a3.517,3.517,0,0,1-3.517-3.745l7.866-126.794a4.05,4.05,0,0,1,3.986-3.739Z" transform="translate(-215.397 -123.577)" fill="#1c47a1"/>
      <path id="Path_239" data-name="Path 239" d="M224.34,261.007l93.936,1.125,7.619-122.8H231.889Z" transform="translate(-219.099 -127.642)" opacity="0.4"/>
      <path id="Path_240" data-name="Path 240" d="M219.66,258.722h95.15c5.24-48.009,6.852-73.927,7.567-121.912h-95.15C226.512,184.8,224.906,210.713,219.66,258.722Z" transform="translate(-217.162 -126.599)" fill="#fff"/>
      <path id="Path_241" data-name="Path 241" d="M363.068,180.477H346.686a1.172,1.172,0,0,1-.879-.381,1.219,1.219,0,0,1-.328-.9l1.014-16.376a1.213,1.213,0,0,1,1.207-1.137h16.411a1.213,1.213,0,0,1,1.207,1.284l-1.02,16.382a1.172,1.172,0,0,1-1.231,1.131Zm-15.092-2.415h13.955l.85-13.961H348.837Z" transform="translate(-269.235 -136.892)" fill="#1c47a1" opacity="0.3"/>
      <path id="Path_242" data-name="Path 242" d="M360.422,223.047H344.046a1.213,1.213,0,0,1-1.207-1.284l1.014-16.382a1.207,1.207,0,0,1,1.207-1.131h16.382a1.172,1.172,0,0,1,.879.381,1.219,1.219,0,0,1,.328.9l-1.02,16.376A1.207,1.207,0,0,1,360.422,223.047Zm-15.092-2.421h13.955l.867-13.961H346.2Z" transform="translate(-268.142 -154.511)" fill="#1c47a1" opacity="0.3"/>
      <path id="Path_243" data-name="Path 243" d="M357.781,265.607H341.4a1.207,1.207,0,0,1-.885-.381,1.172,1.172,0,0,1-.322-.9l1.014-16.376a1.213,1.213,0,0,1,1.207-1.137H358.8a1.213,1.213,0,0,1,.879.381,1.237,1.237,0,0,1,.328.9l-1.02,16.411A1.207,1.207,0,0,1,357.781,265.607Zm-15.092-2.415h13.955l.867-13.961H343.556Z" transform="translate(-267.049 -172.126)" fill="#1c47a1" opacity="0.3"/>
      <path id="Path_244" data-name="Path 244" d="M355.141,308.177H338.765a1.231,1.231,0,0,1-.885-.381,1.172,1.172,0,0,1-.322-.9l1.014-16.382a1.213,1.213,0,0,1,1.207-1.131h16.382a1.172,1.172,0,0,1,.879.381,1.219,1.219,0,0,1,.328.9l-1.02,16.376A1.213,1.213,0,0,1,355.141,308.177Zm-15.092-2.421H354l.867-13.961H340.916Z" transform="translate(-265.956 -189.745)" fill="#1c47a1" opacity="0.3"/>
      <path id="Path_245" data-name="Path 245" d="M258.523,171.171h37.1a2.216,2.216,0,0,0,2.174-2.046h0a1.9,1.9,0,0,0-1.922-2.046H258.781a2.2,2.2,0,0,0-2.174,2.046h0a1.9,1.9,0,0,0,1.917,2.046Z" transform="translate(-232.451 -139.127)" fill="#1c47a1" opacity="0.3"/>
      <path id="Path_246" data-name="Path 246" d="M269.651,185.467H299.69a2.215,2.215,0,0,0,2.174-2.046h0a1.9,1.9,0,0,0-1.917-2.051H269.921a2.216,2.216,0,0,0-2.175,2.051h0a1.9,1.9,0,0,0,1.9,2.046Z" transform="translate(-237.062 -145.041)" fill="#1c47a1" opacity="0.3"/>
      <path id="Path_247" data-name="Path 247" d="M255.251,223.94h37.1a1.9,1.9,0,0,1,1.917,2.046h0a2.216,2.216,0,0,1-2.174,2.046h-37.1a1.9,1.9,0,0,1-1.917-2.046h0A2.216,2.216,0,0,1,255.251,223.94Z" transform="translate(-230.99 -162.661)" fill="#1c47a1" opacity="0.3"/>
      <path id="Path_248" data-name="Path 248" d="M268.17,209.64h30.062a1.9,1.9,0,0,1,1.922,2.046h0a2.216,2.216,0,0,1-2.174,2.051H267.918A1.9,1.9,0,0,1,266,211.685h0A2.216,2.216,0,0,1,268.17,209.64Z" transform="translate(-236.337 -156.742)" fill="#1c47a1" opacity="0.3"/>
      <path id="Path_249" data-name="Path 249" d="M253.226,256.3h37.1a2.215,2.215,0,0,0,2.174-2.046h0a1.9,1.9,0,0,0-1.922-2.046H253.461a2.216,2.216,0,0,0-2.174,2.046h0a1.9,1.9,0,0,0,1.94,2.046Z" transform="translate(-230.249 -174.361)" fill="#1c47a1" opacity="0.3"/>
      <path id="Path_250" data-name="Path 250" d="M290.191,270.6h14.922a2.216,2.216,0,0,0,2.174-2.046h0a1.911,1.911,0,0,0-1.922-2.051h-14.9a2.221,2.221,0,0,0-2.174,2.051h0a1.9,1.9,0,0,0,1.9,2.046Z" transform="translate(-245.563 -180.276)" fill="#1c47a1" opacity="0.3"/>
      <path id="Path_251" data-name="Path 251" d="M264.389,270.6h7.872a2.216,2.216,0,0,0,2.174-2.046h0a1.911,1.911,0,0,0-1.922-2.051h-7.872a2.221,2.221,0,0,0-2.174,2.051h0a1.9,1.9,0,0,0,1.922,2.046Z" transform="translate(-234.876 -180.276)" fill="#1c47a1" opacity="0.3"/>
      <path id="Path_252" data-name="Path 252" d="M250.622,298.867h37.1a2.216,2.216,0,0,0,2.174-2.046h0a1.911,1.911,0,0,0-1.922-2.051H250.851a2.216,2.216,0,0,0-2.175,2.051h0a1.9,1.9,0,0,0,1.946,2.046Z" transform="translate(-229.169 -191.976)" fill="#1c47a1" opacity="0.3"/>
      <path id="Path_253" data-name="Path 253" d="M261.749,313.167h30.038a2.221,2.221,0,0,0,2.174-2.051h0a1.9,1.9,0,0,0-1.922-2.046H262a2.216,2.216,0,0,0-2.174,2.046h0a1.911,1.911,0,0,0,1.922,2.051Z" transform="translate(-233.784 -197.895)" fill="#1c47a1" opacity="0.3"/>
      <path id="Path_254" data-name="Path 254" d="M354.847,176.333a1.172,1.172,0,0,1-.68-.211l-6.312-4.308a1.213,1.213,0,0,1,1.366-2l5.392,3.687c1.969-2.374,7.584-8.792,12.256-10.9a1.21,1.21,0,0,1,.985,2.21c-5.1,2.268-11.986,10.972-12.051,11.06A1.219,1.219,0,0,1,354.847,176.333Z" transform="translate(-270.029 -137.232)" fill="#1c47a1"/>
      <path id="Path_255" data-name="Path 255" d="M350.361,219.495a1.225,1.225,0,0,1-.844-.334l-5.492-5.275a1.217,1.217,0,0,1,1.682-1.758l4.689,4.507c2.315-2.069,8.792-7.578,13.692-8.915a1.215,1.215,0,0,1,.639,2.344c-5.345,1.459-13.44,9.044-13.522,9.12A1.172,1.172,0,0,1,350.361,219.495Z" transform="translate(-268.479 -155.929)" fill="#1c47a1"/>
      <path id="Path_256" data-name="Path 256" d="M337.318,136.66h1.758a3.587,3.587,0,0,0,3.622-3.552v-3.271a.358.358,0,0,0-.363-.358h-4.97a.41.41,0,0,0-.4.4l.023,6.418A.357.357,0,0,0,337.318,136.66Z" transform="translate(-265.71 -123.565)" opacity="0.4"/>
      <path id="Path_257" data-name="Path 257" d="M288.172,119.389H318.1a2.889,2.889,0,0,1,2.931,3.376l-.9,6.664a4,4,0,0,1-3.833,3.376H286.361a2.889,2.889,0,0,1-2.931-3.376l.9-6.664A4,4,0,0,1,288.172,119.389Z" transform="translate(-243.538 -119.388)" fill="#1c47a1"/>
      <path id="Path_258" data-name="Path 258" d="M288.172,119.389H318.1a2.889,2.889,0,0,1,2.931,3.376l-.9,6.664a4,4,0,0,1-3.833,3.376H286.361a2.889,2.889,0,0,1-2.931-3.376l.9-6.664A4,4,0,0,1,288.172,119.389Z" transform="translate(-243.538 -119.388)" fill="#fff" opacity="0.6"/>
      <path id="Path_259" data-name="Path 259" d="M331.078,123.609H317.6a.908.908,0,1,1,0-1.811h13.481a.908.908,0,0,1,0,1.811Z" transform="translate(-257.29 -120.384)" fill="#fff" opacity="0.5"/>
      <path id="Path_260" data-name="Path 260" d="M308.945,123.609h-1.418a.908.908,0,1,1,0-1.811h1.418a.908.908,0,1,1,0,1.811Z" transform="translate(-253.122 -120.384)" fill="#fff" opacity="0.5"/>
    </g>
    <g id="freepik--Character--inject-26" transform="translate(58.507 81.504)">
      <path id="Path_261" data-name="Path 261" d="M169.46,300.874l5.785,1.108,13.674-64.308-8.493-1.624Z" transform="translate(-128.644 -156.438)" fill="#1c47a1"/>
      <path id="Path_262" data-name="Path 262" d="M204.15,159.114l6.928-2.28.481-2.514-6.453-.2Z" transform="translate(-143.002 -122.528)" fill="#263238"/>
      <path id="Path_263" data-name="Path 263" d="M197.7,158.327l7.889-2.567-8.106,46.162L188.99,200.3Z" transform="translate(-136.727 -123.207)" fill="#1c47a1"/>
      <rect id="Rectangle_97" data-name="Rectangle 97" width="7.928" height="2.557" transform="matrix(-0.982, -0.19, 0.19, -0.982, 60.533, 81.196)" fill="#263238"/>
      <path id="Path_264" data-name="Path 264" d="M171.226,359.221c-.076.381.082.733.352.785s.551-.217.621-.586-.088-.733-.358-.785S171.3,358.846,171.226,359.221Z" transform="translate(-129.367 -207.172)" fill="#1c47a1"/>
      <path id="Path_265" data-name="Path 265" d="M170.1,354.31l1.723.328,3.417-6.881-5.785-1.108Z" transform="translate(-128.644 -202.214)" fill="#263238"/>
      <path id="Path_266" data-name="Path 266" d="M187.825,188.913a.733.733,0,0,1-.662-1.037c3.634-7.789,6.582-24.06,6.981-27.928a3.159,3.159,0,0,1,1.9-2.585l1.917-.826a.73.73,0,0,1,.586,1.336l-1.917.826a1.717,1.717,0,0,0-1.026,1.4c-.416,4.062-3.341,20.326-7.1,28.391A.733.733,0,0,1,187.825,188.913Z" transform="translate(-135.943 -123.503)" fill="#263238"/>
      <path id="Path_267" data-name="Path 267" d="M132.2,156.265c-1.459,2.5-2.931,5.158-4.32,7.76-.686,1.313-1.354,2.626-1.993,3.945s-1.237,2.649-1.758,3.974l-.1.24h0a.357.357,0,0,0-.041.123,2.931,2.931,0,0,0-.041.586,8.874,8.874,0,0,0,.246,1.723,29.309,29.309,0,0,0,1.289,3.962c.522,1.348,1.119,2.7,1.758,4.062s1.289,2.72,1.928,4.044l-2.784,1.9a50.9,50.9,0,0,1-5.515-7.778,28.549,28.549,0,0,1-2.139-4.548,15.115,15.115,0,0,1-.7-2.766,8.913,8.913,0,0,1-.07-1.717,7.414,7.414,0,0,1,.141-1.008c.035-.17.094-.363.147-.545l.094-.3a64.775,64.775,0,0,1,3.517-8.915,83.408,83.408,0,0,1,4.566-8.317Z" transform="translate(-107.323 -121.937)" fill="#ffc3bd"/>
      <path id="Path_268" data-name="Path 268" d="M134.268,209.25l2.62,2.04-4,3.306a5.216,5.216,0,0,1-1.542-3.921Z" transform="translate(-112.858 -145.346)" fill="#ffc3bd"/>
      <path id="Path_269" data-name="Path 269" d="M139.06,215.707l-2.667,3.429-2.4-3.1,4-3.306Z" transform="translate(-113.963 -146.786)" fill="#ffc3bd"/>
      <path id="Path_270" data-name="Path 270" d="M167.993,116.616a.669.669,0,0,0,.551.586c.229,0,.363-.375.293-.727s-.322-.586-.551-.557S167.946,116.258,167.993,116.616Z" transform="translate(-128.032 -106.716)" fill="#263238"/>
      <path id="Path_271" data-name="Path 271" d="M168.53,118.15a13.023,13.023,0,0,0,2.315,2.69,2.092,2.092,0,0,1-1.635.662Z" transform="translate(-128.259 -107.641)" fill="#ed847e"/>
      <path id="Path_272" data-name="Path 272" d="M165,113.441a.217.217,0,0,1-.141-.059.205.205,0,0,1,0-.3,2.075,2.075,0,0,1,1.805-.7.211.211,0,1,1-.07.416h0a1.676,1.676,0,0,0-1.424.586A.211.211,0,0,1,165,113.441Z" transform="translate(-126.711 -105.247)" fill="#263238"/>
      <path id="Path_273" data-name="Path 273" d="M150.078,125.62c.645,3.288,1.289,9.307-1.008,11.5,0,0,.9,3.329,7,3.329,6.711,0,3.212-3.329,3.212-3.329-3.663-.879-3.569-3.593-2.931-6.148Z" transform="translate(-120.205 -110.733)" fill="#ffc3bd"/>
      <path id="Path_274" data-name="Path 274" d="M146.765,141.99c-.486-1.172.586-4.689,1.67-5.023a18.469,18.469,0,0,1,8.206.8c1.647,1.665,2.122,5.117,2.122,5.117Z" transform="translate(-119.201 -115.357)" fill="#263238"/>
      <path id="Path_275" data-name="Path 275" d="M113.318,406.85a1.442,1.442,0,0,0,1.114-.059.422.422,0,0,0,.105-.492.5.5,0,0,0-.275-.316c-.586-.287-2,.281-2.057.3a.1.1,0,0,0-.064.094.111.111,0,0,0,.059.1,5.27,5.27,0,0,0,1.119.369Zm.727-.715.129.041a.287.287,0,0,1,.158.182c.059.193,0,.252-.035.27-.24.205-1.137,0-1.758-.234A3.447,3.447,0,0,1,114.045,406.135Z" transform="translate(-104.92 -226.738)" fill="#1c47a1"/>
      <path id="Path_276" data-name="Path 276" d="M112.216,405.636h.053c.51-.146,1.594-.92,1.606-1.43a.34.34,0,0,0-.27-.34.586.586,0,0,0-.475.035c-.586.3-.979,1.553-.991,1.606a.1.1,0,0,0,0,.106Zm1.272-1.588h.047c.129.047.129.111.129.135,0,.3-.727.908-1.248,1.172a2.555,2.555,0,0,1,.815-1.266A.4.4,0,0,1,113.487,404.047Z" transform="translate(-104.913 -225.881)" fill="#1c47a1"/>
      <path id="Path_277" data-name="Path 277" d="M168.412,408.047c.586,0,1.137-.082,1.319-.34a.393.393,0,0,0,0-.463.522.522,0,0,0-.34-.246c-.744-.205-2.315.686-2.38.727a.105.105,0,0,0-.053.111.1.1,0,0,0,.082.082A7.727,7.727,0,0,0,168.412,408.047Zm.715-.873a.757.757,0,0,1,.205.029.287.287,0,0,1,.205.147c.076.129.053.2,0,.234-.211.293-1.342.3-2.18.182A4.747,4.747,0,0,1,169.127,407.174Z" transform="translate(-127.608 -227.179)" fill="#1c47a1"/>
      <path id="Path_278" data-name="Path 278" d="M167.055,407.172h.041c.545-.24,1.618-1.213,1.536-1.723,0-.117-.105-.264-.4-.293a.75.75,0,0,0-.586.182,2.932,2.932,0,0,0-.7,1.729.094.094,0,0,0,.041.094.088.088,0,0,0,.064.012Zm1.1-1.823h.064c.188,0,.2.094.205.117.053.3-.68,1.067-1.231,1.4a2.491,2.491,0,0,1,.586-1.383.585.585,0,0,1,.375-.135Z" transform="translate(-127.604 -226.427)" fill="#1c47a1"/>
      <path id="Path_279" data-name="Path 279" d="M158.71,401.078h4.49l.445-10.4h-4.49Z" transform="translate(-124.195 -220.437)" fill="#ffc3bd"/>
      <path id="Path_280" data-name="Path 280" d="M103.43,398.033l4.507.95,3.183-9.683-4.513-.949Z" transform="translate(-101.315 -219.473)" fill="#ffc3bd"/>
      <path id="Path_281" data-name="Path 281" d="M106.959,404.98l-4.929-1.067a.393.393,0,0,0-.44.217l-1.711,3.716a.662.662,0,0,0,.475.92c1.729.34,2.585.422,4.753.891,1.33.287,4.343,1.02,6.184,1.418s2.479-1.371,1.758-1.7c-3.218-1.471-4.566-2.766-5.433-3.974A1.1,1.1,0,0,0,106.959,404.98Z" transform="translate(-99.821 -225.911)" fill="#263238"/>
      <path id="Path_282" data-name="Path 282" d="M161.97,407.53h-4.876a.393.393,0,0,0-.381.3l-.885,3.991a.645.645,0,0,0,.645.8c1.758-.029,4.326-.129,6.547-.129,2.6,0,1.588.141,4.636.141,1.846,0,2.344-1.864,1.583-2.034-3.517-.768-3.124-.85-6.16-2.72a2.052,2.052,0,0,0-1.108-.352Z" transform="translate(-122.994 -227.411)" fill="#263238"/>
      <path id="Path_283" data-name="Path 283" d="M129.932,146.911c-4.208.961-7.672,11.722-7.672,11.722l8.446,6.447a18.468,18.468,0,0,0,4.484-8.3C136.637,151.114,134.234,145.9,129.932,146.911Z" transform="translate(-109.108 -119.493)" fill="#263238"/>
      <path id="Path_284" data-name="Path 284" d="M139.242,160.45c-2.286,2.257-3.03,6.377-3.212,9.964l.375.287a18.4,18.4,0,0,0,4.484-8.3c.088-.334.158-.674.223-1Z" transform="translate(-114.808 -125.148)" opacity="0.2"/>
      <path id="Path_285" data-name="Path 285" d="M160.494,146.377s4.777,5.4.264,38.807H136.727c-.164-3.687,2.151-21.686-1.407-39.035a62.569,62.569,0,0,1,8.041-1.014,87.2,87.2,0,0,1,10.21,0A45.1,45.1,0,0,1,160.494,146.377Z" transform="translate(-114.514 -118.748)" fill="#263238"/>
      <path id="Path_286" data-name="Path 286" d="M163.794,390.68l-.229,5.363h-4.5l.229-5.363Z" transform="translate(-124.344 -220.437)" opacity="0.2"/>
      <path id="Path_287" data-name="Path 287" d="M107.691,388.35l4.513.949-1.647,4.994-4.507-.95Z" transform="translate(-102.399 -219.473)" opacity="0.2"/>
      <path id="Path_288" data-name="Path 288" d="M147.429,114.48c1.172,4.3,1.606,6.881,4.261,8.669,4,2.7,8.973-.393,9.126-4.959.141-4.1-1.758-10.45-6.389-11.318a6.072,6.072,0,0,0-7,7.608Z" transform="translate(-119.431 -102.927)" fill="#ffc3bd"/>
      <path id="Path_289" data-name="Path 289" d="M149.914,124.517h-.059a4.361,4.361,0,0,1-3.558-1.805,17.68,17.68,0,0,1-3.458-8.915c1.711-1.805,8.141-3,11.007-2.344,2.385.545,2.04,7.338-.217,11.013A4.378,4.378,0,0,1,149.914,124.517Z" transform="translate(-117.626 -104.795)" fill="#ffc3bd"/>
      <path id="Path_290" data-name="Path 290" d="M149.914,124.517h-.059a4.361,4.361,0,0,1-3.558-1.805,17.68,17.68,0,0,1-3.458-8.915c1.711-1.805,8.141-3,11.007-2.344,2.385.545,2.04,7.338-.217,11.013A4.378,4.378,0,0,1,149.914,124.517Z" transform="translate(-117.626 -104.795)" fill="#263238" opacity="0.8"/>
      <path id="Path_291" data-name="Path 291" d="M144.688,110.752a3.874,3.874,0,0,1-3.517-2.5c-.51-1.524.029-4.742,3.095-4.835s3.382-1.84,2.438-2.2c2,.147,1.371,1.547,1.371,1.547.533,0,1.037-1.436,4.1-1.319s4.56-.539,4.167-1.225c1.448.293,1.043,2.051-.182,2.526,0,0,2.9,2.2,3.587.991.486.879-.475,1.934-4.138,1.454,1.459,2.046-2,1.588-3.47,2.514S146.71,110.9,144.688,110.752Z" transform="translate(-116.865 -100.22)" fill="#263238"/>
      <path id="Path_292" data-name="Path 292" d="M160.025,118.087a5.076,5.076,0,0,0,1.811,2.679c1.172.867,2.04,0,1.958-1.313-.07-1.172-.774-3.077-2.057-3.429S159.69,116.792,160.025,118.087Z" transform="translate(-124.706 -106.734)" fill="#ffc3bd"/>
      <path id="Path_293" data-name="Path 293" d="M139.179,213.553s-5.1,34.311-7.895,47.165c-3.06,14.067-19.488,60.645-19.488,60.645L103.76,319.6s11.488-37.957,14.067-57.633c1.975-15.116,5.861-48.442,5.861-48.442Z" transform="translate(-101.451 -147.117)" fill="#263238"/>
      <path id="Path_294" data-name="Path 294" d="M113.314,391.707l-1.5,2.931-9.044-1.958.762-2.72Z" transform="translate(-101.042 -220.139)" fill="#1c47a1"/>
      <path id="Path_295" data-name="Path 295" d="M155.156,234.4c-5.89,1.172-5.275,23.122-4.554,34.422,1.694-7.989,4.185-23.357,5.861-34.264a2.028,2.028,0,0,0-1.307-.158Z" transform="translate(-120.653 -155.736)" opacity="0.3"/>
      <path id="Path_296" data-name="Path 296" d="M167.566,213.57s.621,33.567.129,47.258c-.5,14.243-5.48,60.874-5.48,60.874H154.6s-.275-45.8-.615-59.784c-.369-15.239-2.21-48.349-2.21-48.349Z" transform="translate(-121.322 -147.134)" fill="#263238"/>
      <path id="Path_297" data-name="Path 297" d="M165.075,392.89c.035,0-.434,3.153-.434,3.153h-9.249l-.252-2.813Z" transform="translate(-122.717 -221.352)" fill="#1c47a1"/>
      <path id="Path_298" data-name="Path 298" d="M159.72,145.435c1.172.486,2.3,1.36,2.643,4.261.328,2.784-.3,27.184-1.067,34.973a1.125,1.125,0,0,1-.991,1.073c-4.8.205-19.67-1.8-24.687-.92-.586.105-1.1-.539-1.061-1.125a194.59,194.59,0,0,0-1.1-27.618c-.586-5.082-.586-10.4,3.652-11.3C140.261,144.111,155.136,143.524,159.72,145.435Z" transform="translate(-113.629 -118.398)" fill="#1c47a1"/>
      <path id="Path_299" data-name="Path 299" d="M176.908,157.85c.27,1.289.586,2.69.879,4.027s.656,2.69,1.032,4.009.762,2.614,1.207,3.851a21.231,21.231,0,0,0,1.5,3.394,6.734,6.734,0,0,0,.78,1.172c.111.123.2.205.223.229s0,.053.111.088a3.125,3.125,0,0,0,1.172.152,14.065,14.065,0,0,0,1.758-.188,51.637,51.637,0,0,0,7.772-2.286l1.706,2.931a29.552,29.552,0,0,1-8.041,4.6,14.656,14.656,0,0,1-2.5.674,9.126,9.126,0,0,1-3.118.047,6.372,6.372,0,0,1-1.9-.645A7.7,7.7,0,0,1,178,178.815a12.15,12.15,0,0,1-1.881-2.239,35.641,35.641,0,0,1-3.816-8.716c-.44-1.448-.844-2.9-1.172-4.355s-.656-2.878-.908-4.431Z" transform="translate(-128.958 -124.072)" fill="#ffc3bd"/>
      <path id="Path_300" data-name="Path 300" d="M164.148,151.738c-3.646,7.332,5.017,15.62,5.017,15.62l9.659-5.041a52.9,52.9,0,0,0-3.3-11.324C172.711,144.734,166.246,147.523,164.148,151.738Z" transform="translate(-126.074 -119.718)" fill="#263238"/>
      <path id="Path_301" data-name="Path 301" d="M208.14,181.677l3.276-2.157,1.36,4.9s-1.465,1.717-4.15-.152Z" transform="translate(-144.653 -133.041)" fill="#ffc3bd"/>
      <path id="Path_302" data-name="Path 302" d="M216.584,181.366l-.105,1.032a1.969,1.969,0,0,1-.668,1.278l-.721.586-1.36-4.9.416-.105a1.958,1.958,0,0,1,2.438,2.11Z" transform="translate(-146.967 -132.906)" fill="#ffc3bd"/>
    </g>
  </g>
</svg>
