<svg xmlns="http://www.w3.org/2000/svg" width="267.339" height="220.191" viewBox="0 0 267.339 220.191">
  <g id="High_five-pana" data-name="High five-pana" transform="translate(-25.579 -62.52)">
    <g id="freepik--background-complete--inject-15" transform="translate(25.579 62.52)">
      <rect id="Rectangle_138" data-name="Rectangle 138" width="29.467" height="42.711" transform="translate(169.824 46.478)" fill="#e0e0e0"/>
      <rect id="Rectangle_139" data-name="Rectangle 139" width="29.467" height="42.711" transform="translate(168.349 46.478)" fill="#f5f5f5"/>
      <rect id="Rectangle_140" data-name="Rectangle 140" width="22.146" height="33.463" transform="translate(172.01 51.102)" fill="#fff"/>
      <path id="Path_490" data-name="Path 490" d="M340.4,182.794v-9.366c0-5.876,0-14.255-.035-24.091l.07.07h-22.14l.082-.082v33.457l-.065-.059h-.141v-33.6h22.3v.076c0,9.86-.029,18.215-.035,24.144v9.16a1.4,1.4,0,0,1-.035.294Z" transform="translate(-146.248 -98.235)" fill="#e0e0e0"/>
      <path id="Path_491" data-name="Path 491" d="M359.563,141.62a5.177,5.177,0,0,1-.523.764c-.341.452-.829,1.075-1.381,1.763s-1.075,1.269-1.457,1.692a5.62,5.62,0,0,1-.652.664,6.328,6.328,0,0,1,.588-.735l1.422-1.722,1.416-1.722A5.208,5.208,0,0,1,359.563,141.62Z" transform="translate(-161.665 -95.142)" fill="#e0e0e0"/>
      <path id="Path_492" data-name="Path 492" d="M356.2,206.25a27.617,27.617,0,0,0,3.866,4.83" transform="translate(-161.933 -121.797)" fill="#fff"/>
      <path id="Path_493" data-name="Path 493" d="M360.066,211.109a4.113,4.113,0,0,1-.676-.588,21.662,21.662,0,0,1-1.457-1.645,20.478,20.478,0,0,1-1.281-1.763,4.32,4.32,0,0,1-.452-.793,5.176,5.176,0,0,1,.546.729c.323.458.781,1.081,1.31,1.763s1.046,1.252,1.416,1.669A5.88,5.88,0,0,1,360.066,211.109Z" transform="translate(-161.933 -121.826)" fill="#e0e0e0"/>
      <path id="Path_494" data-name="Path 494" d="M312.09,210.909l3.855-4.759" transform="translate(-143.741 -121.755)" fill="#fff"/>
      <path id="Path_495" data-name="Path 495" d="M315.945,206.15a29.38,29.38,0,0,1-1.863,2.427c-1.069,1.316-1.963,2.35-1.992,2.35a28.789,28.789,0,0,1,1.863-2.433A30.468,30.468,0,0,1,315.945,206.15Z" transform="translate(-143.741 -121.755)" fill="#e0e0e0"/>
      <path id="Path_496" data-name="Path 496" d="M312.09,141.62a25.916,25.916,0,0,1,1.874,2.239,28.293,28.293,0,0,1,1.763,2.35,25.908,25.908,0,0,1-1.874-2.239,26.355,26.355,0,0,1-1.763-2.35Z" transform="translate(-143.741 -95.142)" fill="#e0e0e0"/>
      <rect id="Rectangle_141" data-name="Rectangle 141" width="7.415" height="21.053" transform="translate(179.842 57.895)" fill="#e0e0e0"/>
      <path id="Path_497" data-name="Path 497" d="M259.431,345a10.494,10.494,0,0,0-6.17,5.423A18.509,18.509,0,0,0,251.5,358.6c-.071,5.447,2.286,11.252,5.024,15.959,5.024-3.373,6.939-10.118,7.7-13.6,1.175-5.512,0-16.188-4.783-15.959" transform="translate(-118.751 -179.017)" fill="#f5f5f5"/>
      <path id="Path_498" data-name="Path 498" d="M238.653,400.393a8.949,8.949,0,0,0-1.8-8.814,11.863,11.863,0,0,0-8.344-3.819,5,5,0,0,0-4.037,1.228,3.825,3.825,0,0,0-.546,3.837,7.738,7.738,0,0,0,2.491,3.167c3.6,2.938,7.639,5.153,12.233,4.389" transform="translate(-107.263 -196.649)" fill="#f5f5f5"/>
      <path id="Path_499" data-name="Path 499" d="M247.359,417.454a17.693,17.693,0,0,0-.165-3.6,16.453,16.453,0,0,0-.893-3.831,36.657,36.657,0,0,0-1.8-4.448,17.862,17.862,0,0,0-5.594-6.663,13.115,13.115,0,0,0-2.35-1.275,2.937,2.937,0,0,0-.934-.27c-.047.1,1.263.588,3.008,1.892a19.2,19.2,0,0,1,5.288,6.593,43.266,43.266,0,0,1,1.816,4.36,18.609,18.609,0,0,1,1,3.7A28.9,28.9,0,0,0,247.359,417.454Z" transform="translate(-112.203 -200.618)" fill="#e0e0e0"/>
      <path id="Path_500" data-name="Path 500" d="M261.092,359a10.34,10.34,0,0,0-.411,1.763c-.223,1.175-.523,2.82-.875,4.883-.711,4.113-1.622,9.836-2.48,16.17s-1.463,12.087-1.816,16.264c-.176,2.086-.3,3.772-.364,4.942a9.565,9.565,0,0,0-.035,1.822,10.473,10.473,0,0,0,.27-1.8c.147-1.275.335-2.938.588-4.924.464-4.16,1.14-9.9,1.992-16.223s1.7-11.94,2.3-16.188c.282-1.986.511-3.643.688-4.906A10.532,10.532,0,0,0,261.092,359Z" transform="translate(-120.23 -184.793)" fill="#e0e0e0"/>
      <path id="Path_501" data-name="Path 501" d="M260.342,405.855a20.93,20.93,0,0,1,15.036-11.81c1.657-.306,3.7-.247,4.613,1.175s.112,3.314-.893,4.7A17.874,17.874,0,0,1,260.33,406.3" transform="translate(-122.394 -199.185)" fill="#f5f5f5"/>
      <path id="Path_502" data-name="Path 502" d="M271.141,401.6a2.937,2.937,0,0,0-.934.2c-.588.165-1.44.452-2.468.834a23.5,23.5,0,0,0-7.415,4.372,14.806,14.806,0,0,0-2.938,3.761,14.131,14.131,0,0,0-1.346,3.661,14.324,14.324,0,0,0-.329,2.6,2.843,2.843,0,0,0,0,.958c.123,0,.17-1.357.717-3.449a14.619,14.619,0,0,1,4.289-7.08,26.482,26.482,0,0,1,7.169-4.419A27.346,27.346,0,0,0,271.141,401.6Z" transform="translate(-120.473 -202.362)" fill="#e0e0e0"/>
      <path id="Path_503" data-name="Path 503" d="M425.485,169.707s-6.158-1.816-8.649,12.339A166.017,166.017,0,0,0,414.145,204s-.864,3.073-3.144,1.933-6.152-5.153-8.884-3.379c-2.838,1.839-2.8,5.623-.64,10.535s6.463,15.865,6.863,16.852.259,2.615-1.416,2.092-12.339-6.951-15.1-1.663,5.5,17.957,6.375,19.39.776,2.151.165,2.75-4-1.9-7.11-3.6-7.022-3.132-8.35.029,1.175,13.82,16.347,27.752l7.439,5.993,9.008-3.314c18.844-8.273,24.679-17.534,24.455-20.959s-4.4-3.361-7.891-2.773-7.509,1.874-7.9,1.1-.235-1.5,1.052-2.55,13.209-10.4,12.31-16.258-13.085-3.232-14.842-3.279-1.334-1.639-.664-2.433,8.326-9.766,11.957-13.72,4.895-7.515,2.809-10.177c-2.01-2.568-6.981,0-9.5.317s-2.35-2.844-2.35-2.844A163.037,163.037,0,0,0,429.7,184.15c2.215-14.208-4.348-14.455-4.348-14.455" transform="translate(-172.818 -106.694)" fill="#f5f5f5"/>
      <path id="Path_504" data-name="Path 504" d="M438.229,191.35a2.323,2.323,0,0,1-.029.3l-.123.875c-.117.781-.288,1.916-.5,3.361-.441,2.938-1.1,7.145-1.945,12.339-1.681,10.43-4.113,24.814-6.869,40.7s-5.229,30.261-6.963,40.678c-.864,5.2-1.563,9.4-2.045,12.339-.241,1.445-.429,2.574-.588,3.355-.065.37-.112.658-.153.87s-.065.294-.065.294a1.945,1.945,0,0,1,.035-.3c.035-.2.071-.5.118-.875.118-.781.288-1.916.5-3.361.441-2.938,1.1-7.145,1.945-12.339,1.681-10.43,4.113-24.82,6.875-40.7s5.247-30.255,7.01-40.7c.858-5.2,1.557-9.4,2.045-12.339l.558-3.355.153-.87A2.648,2.648,0,0,1,438.229,191.35Z" transform="translate(-187.812 -115.652)" fill="#e0e0e0"/>
      <path id="Path_505" data-name="Path 505" d="M424.66,235.62a3.085,3.085,0,0,1,.423.546c.259.364.588.9,1.046,1.563.864,1.334,2.01,3.2,3.232,5.288l3.108,5.365.946,1.616a2.447,2.447,0,0,1,.323.588,2.972,2.972,0,0,1-.429-.541c-.253-.364-.588-.9-1.034-1.569-.852-1.346-1.974-3.232-3.2-5.318l-3.144-5.341c-.376-.635-.7-1.175-.958-1.616a2.521,2.521,0,0,1-.317-.582Z" transform="translate(-190.167 -133.909)" fill="#e0e0e0"/>
      <path id="Path_506" data-name="Path 506" d="M441.63,253.254c-.053-.076,3.7-2.6,8.385-5.653s8.508-5.453,8.561-5.382-3.708,2.609-8.385,5.653S441.677,253.318,441.63,253.254Z" transform="translate(-197.165 -136.63)" fill="#e0e0e0"/>
      <path id="Path_507" data-name="Path 507" d="M432.57,298.036a3.213,3.213,0,0,1,.664-.241l1.833-.558c1.545-.476,3.684-1.134,6.011-1.951s4.419-1.61,5.929-2.2l1.763-.7a2.663,2.663,0,0,1,.676-.223,3.286,3.286,0,0,1-.623.335c-.411.2-1,.476-1.763.8-1.481.646-3.561,1.487-5.876,2.3s-4.489,1.445-6.052,1.863c-.787.206-1.422.364-1.869.464a2.939,2.939,0,0,1-.693.118Z" transform="translate(-193.429 -157.227)" fill="#e0e0e0"/>
      <path id="Path_508" data-name="Path 508" d="M412.17,282.6a2.687,2.687,0,0,1,.517.4c.317.27.776.67,1.328,1.175,1.116,1,2.638,2.4,4.307,3.96s3.167,2.985,4.242,4.031c.535.517.964.946,1.257,1.246a3.012,3.012,0,0,1,.435.488,2.3,2.3,0,0,1-.517-.394c-.323-.27-.776-.676-1.334-1.175-1.111-1-2.638-2.4-4.307-3.96s-3.167-2.985-4.236-4.025c-.541-.523-.97-.946-1.263-1.252a2.527,2.527,0,0,1-.429-.493Z" transform="translate(-185.016 -153.285)" fill="#e0e0e0"/>
      <path id="Path_509" data-name="Path 509" d="M399.55,317.94a3.87,3.87,0,0,1,.658.517l1.71,1.5c1.434,1.275,3.4,3.05,5.559,5.03s4.113,3.784,5.494,5.1l1.639,1.575a4.166,4.166,0,0,1,.588.588,4.7,4.7,0,0,1-.658-.517l-1.71-1.5c-1.434-1.275-3.4-3.055-5.559-5.03s-4.113-3.784-5.488-5.1l-1.657-1.539A4.042,4.042,0,0,1,399.55,317.94Z" transform="translate(-179.811 -167.859)" fill="#e0e0e0"/>
      <path id="Path_510" data-name="Path 510" d="M425.68,335.918a5.1,5.1,0,0,1,.828-.323l2.3-.793c1.939-.67,4.618-1.6,7.55-2.715s5.559-2.18,7.451-2.967l2.25-.934a4.876,4.876,0,0,1,.84-.306,4.237,4.237,0,0,1-.787.423c-.517.253-1.269.588-2.209,1.022-1.874.846-4.495,1.951-7.433,3.061s-5.629,2.027-7.592,2.615c-.981.306-1.763.541-2.35.693A4.481,4.481,0,0,1,425.68,335.918Z" transform="translate(-190.587 -171.959)" fill="#e0e0e0"/>
      <path id="Path_511" data-name="Path 511" d="M71.564,318.695c13.567-7.744,17.974-24.009,18.8-38.916.141-2.491.652-5.077-.329-7.362s-3.6-4.025-5.911-3.185c-1.921.7-2.938,2.767-4.113,4.448a14.6,14.6,0,0,1-6.328,5.024c-1.657.676-3.655.993-5.135,0-2.033-1.381-2.015-4.36-1.763-6.822q.7-6.91,1.346-13.8a23.1,23.1,0,0,0-.071-7.392,7.69,7.69,0,0,0-4.336-5.617c-2.286-.87-5.318.212-6.034,2.585a23.021,23.021,0,0,0-.347,3.061,2.608,2.608,0,0,1-1.763,2.309c-1.017.2-1.933-.588-2.6-1.381-2.35-2.726-3.755-6.093-5.077-9.437a45.621,45.621,0,0,0-4.654-9.677c-2.062-2.932-5.059-5.371-8.573-5.876s-7.48,1.316-8.69,4.7.488,7.11,2.438,10.13A55.538,55.538,0,0,0,38.93,253.449a4.815,4.815,0,0,1,1.763,2.239c.382,1.692-1.328,3.185-3,3.578-1.9.441-3.878.065-5.817.118s-4.113.705-5,2.462c-1.246,2.427.623,5.288,2.538,7.186a47.254,47.254,0,0,0,13.227,9.337,15.787,15.787,0,0,1,4.953,3c1.346,1.41,2.027,3.708.987,5.365s-3.367,2.01-5.235,1.481-3.473-1.716-5.224-2.562c-3.273-1.592-7.674-1.763-10.112.97a7.842,7.842,0,0,0-1.463,6.828,18.351,18.351,0,0,0,3.179,6.463A47.6,47.6,0,0,0,48.683,316c7.621,3.449,14.831,4.853,22.916,2.715" transform="translate(-25.579 -130.18)" fill="#f5f5f5"/>
      <path id="Path_512" data-name="Path 512" d="M73.772,330.926A109.29,109.29,0,0,0,71.6,310.22a222.8,222.8,0,0,0-6.6-24.614l-2.08-6.352c-.682-2.086-1.357-4.154-2.145-6.14a110.415,110.415,0,0,0-5.165-11.135C53.8,258.518,51.955,255.3,50.2,252.3s-3.449-5.758-5.094-8.226a88.3,88.3,0,0,0-8.626-10.953c-1.116-1.21-2.01-2.121-2.627-2.732l-.705-.687a2.068,2.068,0,0,0-.253-.223,2.272,2.272,0,0,0,.217.253l.676.723c.588.629,1.469,1.563,2.562,2.791a92.837,92.837,0,0,1,8.491,11.035c1.628,2.45,3.3,5.218,5.036,8.226s3.573,6.228,5.371,9.683a112.966,112.966,0,0,1,5.141,11.076c.776,1.974,1.445,4.025,2.121,6.117s1.363,4.207,2.062,6.358a229.028,229.028,0,0,1,6.616,24.543,111.172,111.172,0,0,1,2.256,20.624" transform="translate(-28.598 -131.377)" fill="#e0e0e0"/>
      <path id="Path_513" data-name="Path 513" d="M80.17,284.871a4.349,4.349,0,0,0,.341-1.028c.194-.67.435-1.645.723-2.862.588-2.427,1.252-5.8,1.986-9.525s1.457-7.08,2.068-9.49c.3-1.175.552-2.18.74-2.85a5.236,5.236,0,0,0,.235-1.058,4.613,4.613,0,0,0-.405,1c-.235.658-.541,1.622-.881,2.82-.693,2.391-1.469,5.752-2.2,9.484l-1.857,9.572c-.229,1.146-.423,2.115-.588,2.891A5.576,5.576,0,0,0,80.17,284.871Z" transform="translate(-48.093 -143.164)" fill="#e0e0e0"/>
      <path id="Path_514" data-name="Path 514" d="M27.11,288.656a7.4,7.4,0,0,0,1.252.264c.811.147,1.98.353,3.414.658,2.879.588,6.822,1.516,11.129,2.744s8.156,2.521,10.917,3.525c1.381.494,2.491.923,3.255,1.216a6.554,6.554,0,0,0,1.21.417,6.5,6.5,0,0,0-1.14-.588c-.746-.347-1.839-.823-3.214-1.357-2.738-1.093-6.581-2.427-10.906-3.667a111.46,111.46,0,0,0-11.193-2.626c-1.445-.259-2.627-.417-3.443-.511A6.322,6.322,0,0,0,27.11,288.656Z" transform="translate(-26.21 -155.78)" fill="#e0e0e0"/>
      <path id="Path_515" data-name="Path 515" d="M98.19,338.427a1.51,1.51,0,0,0,.253-.37l.652-1.1c.588-.952,1.328-2.35,2.256-4.113,1.863-3.49,4.289-8.4,6.886-13.849s4.971-10.377,6.763-13.9l2.127-4.172.588-1.14a1.945,1.945,0,0,0,.17-.411,1.765,1.765,0,0,0-.253.364l-.646,1.1c-.558.958-1.328,2.35-2.262,4.113-1.863,3.5-4.283,8.4-6.886,13.855s-4.971,10.371-6.757,13.9l-2.133,4.172-.588,1.14a1.611,1.611,0,0,0-.17.411Z" transform="translate(-55.525 -160.201)" fill="#e0e0e0"/>
      <path id="Path_516" data-name="Path 516" d="M28.57,336.14a1.588,1.588,0,0,0,.405.212l1.175.523,4.377,1.88c3.7,1.581,8.814,3.831,14.4,6.322s10.718,4.7,14.455,6.2c1.863.758,3.379,1.351,4.436,1.763l1.216.447a1.976,1.976,0,0,0,.435.123,1.462,1.462,0,0,0-.4-.211l-1.175-.523-4.4-1.9c-3.7-1.586-8.814-3.837-14.4-6.328s-10.723-4.7-14.455-6.2c-1.863-.752-3.379-1.351-4.436-1.763l-1.216-.441a1.841,1.841,0,0,0-.417-.106Z" transform="translate(-26.813 -175.365)" fill="#e0e0e0"/>
      <path id="Path_517" data-name="Path 517" d="M124.187,81.7v48.5H54.535L52.02,82.041Z" transform="translate(-36.484 -70.43)" fill="#e0e0e0"/>
      <rect id="Rectangle_142" data-name="Rectangle 142" width="48.053" height="69.652" transform="translate(15.536 59.669) rotate(-90)" fill="#fff"/>
      <path id="Path_518" data-name="Path 518" d="M121.776,130.437H51.46V81.72h70.316Zm-69.652-.664h68.988V82.378H52.124Z" transform="translate(-36.253 -70.438)" fill="#e0e0e0"/>
      <rect id="Rectangle_143" data-name="Rectangle 143" width="54.563" height="36.113" transform="translate(23.081 17.581)" fill="#fff"/>
      <path id="Path_519" data-name="Path 519" d="M119.276,92.3h-4.013l-11.246.041-39.28.076.159-.159v36.113h0l-.176-.17,54.569.035-.141.135c.035-10.988.059-19.978.076-26.271,0-3.138,0-5.588.035-7.268v-.053c0,1.669,0,4.113.035,7.233,0,6.293.041,15.336.071,26.359v.141h-.135l-54.569.035h-.17v-.176h0V92.1h.153l39.368.082,11.211.041h3.7Z" transform="translate(-41.627 -74.719)" fill="#e0e0e0"/>
      <path id="Path_520" data-name="Path 520" d="M52,82.05a6.1,6.1,0,0,1,1.175.776c.717.517,1.686,1.246,2.732,2.086s1.968,1.628,2.621,2.221a5.576,5.576,0,0,1,.993,1.022,42.9,42.9,0,0,1-3.831-2.979A42.628,42.628,0,0,1,52,82.05Z" transform="translate(-36.475 -70.574)" fill="#e0e0e0"/>
      <path id="Path_521" data-name="Path 521" d="M165.275,82.28a33.575,33.575,0,0,1-3.667,3.12,33.429,33.429,0,0,1-3.878,2.85,34.441,34.441,0,0,1,3.684-3.12,33.693,33.693,0,0,1,3.86-2.85Z" transform="translate(-80.08 -70.669)" fill="#e0e0e0"/>
      <path id="Path_522" data-name="Path 522" d="M165.022,159.659l-7.762-6.3" transform="translate(-79.886 -99.984)" fill="#fff"/>
      <path id="Path_523" data-name="Path 523" d="M157.259,153.36a38.069,38.069,0,0,1,3.99,3.014,35.921,35.921,0,0,1,3.772,3.285,37.1,37.1,0,0,1-3.99-3.014A32.511,32.511,0,0,1,157.259,153.36Z" transform="translate(-79.885 -99.984)" fill="#e0e0e0"/>
      <path id="Path_524" data-name="Path 524" d="M52,159.921a33.3,33.3,0,0,1,3.631-3.091,33.706,33.706,0,0,1,3.837-2.82,32.865,32.865,0,0,1-3.625,3.091A33.711,33.711,0,0,1,52,159.921Z" transform="translate(-36.476 -100.252)" fill="#e0e0e0"/>
      <rect id="Rectangle_144" data-name="Rectangle 144" width="12.092" height="34.332" transform="translate(34.163 40.931) rotate(-90)" fill="#e0e0e0"/>
      <rect id="Rectangle_145" data-name="Rectangle 145" width="37.241" height="53.981" transform="translate(211.295 0)" fill="#e0e0e0"/>
      <rect id="Rectangle_146" data-name="Rectangle 146" width="37.241" height="53.981" transform="translate(209.433 0)" fill="#f5f5f5"/>
      <rect id="Rectangle_147" data-name="Rectangle 147" width="27.987" height="42.288" transform="translate(214.057 5.846)" fill="#fff"/>
      <path id="Path_525" data-name="Path 525" d="M417.835,114.688V102.866c0-7.456-.029-18.021-.047-30.454l.094.094H389.843l.106-.1v42.306l-.082-.082,20.372.047h.053l-20.424.041h-.076V72.3h28.2v.094c0,12.463-.029,23.039-.041,30.513,0,3.719,0,6.669-.029,8.69v2.885A.465.465,0,0,0,417.835,114.688Z" transform="translate(-175.786 -66.553)" fill="#e0e0e0"/>
      <path id="Path_526" data-name="Path 526" d="M442.011,62.52a5.937,5.937,0,0,1-.664.964c-.435.588-1.046,1.369-1.763,2.221s-1.357,1.6-1.845,2.139a6.557,6.557,0,0,1-.8.834,6.658,6.658,0,0,1,.711-.928l1.792-2.174c.676-.828,1.293-1.575,1.792-2.18a6.876,6.876,0,0,1,.776-.876Z" transform="translate(-195.231 -62.52)" fill="#e0e0e0"/>
      <path id="Path_527" data-name="Path 527" d="M437.76,144.21a34.9,34.9,0,0,0,4.883,6.1" transform="translate(-195.569 -96.21)" fill="#fff"/>
      <path id="Path_528" data-name="Path 528" d="M442.63,150.315a5.605,5.605,0,0,1-.852-.776,25.662,25.662,0,0,1-1.845-2.074,27.713,27.713,0,0,1-1.616-2.256,5.693,5.693,0,0,1-.588-1,7.348,7.348,0,0,1,.687.923c.411.588.987,1.363,1.657,2.2s1.316,1.581,1.792,2.1A8.062,8.062,0,0,1,442.63,150.315Z" transform="translate(-195.557 -96.21)" fill="#e0e0e0"/>
      <path id="Path_529" data-name="Path 529" d="M382,150.1l4.877-6.017" transform="translate(-172.573 -96.157)" fill="#fff"/>
      <path id="Path_530" data-name="Path 530" d="M386.881,144.08a36.1,36.1,0,0,1-2.35,3.073,37.166,37.166,0,0,1-2.521,2.938,68.895,68.895,0,0,1,4.871-6.011Z" transform="translate(-172.577 -96.157)" fill="#e0e0e0"/>
      <path id="Path_531" data-name="Path 531" d="M382,62.52a34.218,34.218,0,0,1,2.35,2.832,34.57,34.57,0,0,1,2.209,2.938,32.914,32.914,0,0,1-2.35-2.832A34.565,34.565,0,0,1,382,62.52Z" transform="translate(-172.573 -62.52)" fill="#e0e0e0"/>
      <rect id="Rectangle_148" data-name="Rectangle 148" width="9.372" height="26.606" transform="translate(223.958 14.431)" fill="#e0e0e0"/>
    </g>
    <g id="freepik--Floor--inject-15" transform="translate(26.302 282.405)">
      <path id="Path_532" data-name="Path 532" d="M282.479,436.893c0,.088-57.242.153-127.829.153S26.81,437,26.81,436.893s57.225-.153,127.841-.153S282.479,436.834,282.479,436.893Z" transform="translate(-26.81 -436.74)" fill="#263238"/>
    </g>
    <g id="freepik--character-2--inject-15" transform="translate(162.434 105.258)">
      <path id="Path_533" data-name="Path 533" d="M331.976,264a10.147,10.147,0,0,1-3.026,9.93c-1.792,1.586-4.113,2.5-5.758,4.248A8.937,8.937,0,0,0,321.4,286.8a11.405,11.405,0,0,0,6.011,6.663,13.344,13.344,0,0,0,12.1-.411c4.542-2.568,7.186-7.721,7.856-12.9s-.382-10.418-1.763-15.453" transform="translate(-284.259 -188.352)" fill="#263238"/>
      <path id="Path_534" data-name="Path 534" d="M437.19,412.311c4.7-.77,9.108.664,13.761,1.692a8.227,8.227,0,0,0,3.813.206,5.474,5.474,0,0,0,3.761-4.536,7.427,7.427,0,0,0-1.175-5.147,4.942,4.942,0,0,0-1.61-1.6,5.6,5.6,0,0,0-2.25-.588A15.988,15.988,0,0,0,445.2,403.9a24.432,24.432,0,0,0-6.875,4.983c-.987.987-.693,2.121-1.128,3.449" transform="translate(-332.189 -245.382)" fill="#263238"/>
      <path id="Path_535" data-name="Path 535" d="M274.646,275.193a36.431,36.431,0,0,1,.27-13.514,17.745,17.745,0,0,1,2.35-6.14,3.937,3.937,0,0,1,1.722-1.616,3,3,0,0,1,3.061.723,5.118,5.118,0,0,1,1.41,3.96,12.556,12.556,0,0,1-1.046,4.184c-1.816,4.642-4.7,8.5-7.785,12.4" transform="translate(-264.945 -184.133)" fill="#263238"/>
      <path id="Path_536" data-name="Path 536" d="M419.426,319.14c1.064.758,24.678,51.625,24.678,51.625h0a10.03,10.03,0,0,0-6.023-.588l-1.281.341a21.435,21.435,0,0,0-6.434,2.938l-6.74,4.56h0a1.927,1.927,0,0,1-.958-1.487v-.194L404.36,344.911Z" transform="translate(-318.649 -211.093)" fill="#1c47a1"/>
      <path id="Path_537" data-name="Path 537" d="M271.178,181.32l6.3,35.8c2.027,4.818,25.666,34.009,25.666,34.009l-7.815,25.113L264.28,233.791a16.223,16.223,0,0,1-4.372-11.387l1.21-38.252Z" transform="translate(-259.074 -154.253)" fill="#ffbe9d"/>
      <path id="Path_538" data-name="Path 538" d="M329.589,290.58l16.211,1.228L359.937,294s24.8,6.516,24.8,9.231c0,.9-6.769,22.463-10.576,35.378a89.78,89.78,0,0,0-2.28,9.542l12.856,28.463H323.731V350.519s-4.113-34.274-3.39-38.957S329.589,290.58,329.589,290.58Z" transform="translate(-283.963 -199.314)" fill="#1c47a1"/>
      <path id="Path_539" data-name="Path 539" d="M266,148.241a71.759,71.759,0,0,1,1.116-10.87c.088-.511.3-1.128.811-1.175.635-.082.958.734,1.04,1.369a38.3,38.3,0,0,1-.535,12.991" transform="translate(-261.587 -135.641)" fill="#eb996e"/>
      <path id="Path_540" data-name="Path 540" d="M276.931,266.1c6.957-6.217,7.192-16.987,6.6-25.56a2.873,2.873,0,0,1,.27-1.839c.664-.946,2.28-.588,2.938.364a5.511,5.511,0,0,1,.552,3.355c.358-.975,1.886-.969,2.6-.217a4.675,4.675,0,0,1,.923,2.938l.229,2.867,20.324,19.39s.558-1.763,2.051-.746a8.757,8.757,0,0,1,2.456,3.161l-14.319,31.254L274.98,268.75A10.793,10.793,0,0,1,276.931,266.1Z" transform="translate(-265.291 -177.689)" fill="#1c47a1"/>
      <path id="Path_541" data-name="Path 541" d="M321.51,322.53a26.947,26.947,0,0,0-4.665,9.09,16.57,16.57,0,0,0,.3,10.118,14.031,14.031,0,0,0,10.77,8.684" transform="translate(-282.289 -212.491)" fill="#1c47a1"/>
      <path id="Path_542" data-name="Path 542" d="M436.65,413.72l-.77,10.371h15.06l3.525-18.362h0a18.967,18.967,0,0,0-12.733,3.99Z" transform="translate(-331.649 -246.791)" fill="#ffbe9d"/>
      <path id="Path_543" data-name="Path 543" d="M290.35,266.4a5.047,5.047,0,0,1,.329-.828c.235-.517.552-1.281.911-2.233s.74-2.1,1.1-3.4a40.616,40.616,0,0,0,.887-4.284,39.833,39.833,0,0,0,.37-4.354c0-1.346,0-2.556-.082-3.573s-.159-1.833-.235-2.4a5.668,5.668,0,0,1-.082-.887,4.457,4.457,0,0,1,.2.87,23.694,23.694,0,0,1,.335,2.4,32.808,32.808,0,0,1,.147,3.6,34.009,34.009,0,0,1-1.269,8.7,32.256,32.256,0,0,1-1.175,3.4c-.388.952-.734,1.7-1,2.209A5.881,5.881,0,0,1,290.35,266.4Z" transform="translate(-271.63 -180.289)" fill="#263238"/>
      <path id="Path_544" data-name="Path 544" d="M297.88,265.064a14.531,14.531,0,0,1,.658-1.481,21.928,21.928,0,0,0,1.763-7.527,14.436,14.436,0,0,1,.088-1.616,6.081,6.081,0,0,1,.129,1.622,17.9,17.9,0,0,1-1.763,7.609A5.817,5.817,0,0,1,297.88,265.064Z" transform="translate(-274.735 -184.409)" fill="#263238"/>
      <path id="Path_545" data-name="Path 545" d="M337.63,294.9c-.047-.029.2-.411.341-1.1a5.829,5.829,0,0,0-.153-2.721,20.394,20.394,0,0,0-1.017-2.6,4.444,4.444,0,0,1-.411-1.1,5.284,5.284,0,0,1,.588,1.011,13.462,13.462,0,0,1,1.122,2.609,5.33,5.33,0,0,1,.065,2.856A2.1,2.1,0,0,1,337.63,294.9Z" transform="translate(-290.617 -197.99)" fill="#263238"/>
      <path id="Path_546" data-name="Path 546" d="M325.657,353.472a1.207,1.207,0,0,1-.259-.147l-.693-.458c-.588-.405-1.463-1-2.485-1.8a21.306,21.306,0,0,1-3.3-3.155,12.645,12.645,0,0,1-2.55-4.965,15.61,15.61,0,0,1-.341-5.582,22.04,22.04,0,0,1,1-4.448,29.074,29.074,0,0,1,1.122-2.862c.153-.329.27-.588.358-.752a1.3,1.3,0,0,1,.147-.259,9.974,9.974,0,0,1-.394,1.058c-.264.67-.646,1.645-1.028,2.879a23.333,23.333,0,0,0-.928,4.413,15.712,15.712,0,0,0,.353,5.476,12.539,12.539,0,0,0,2.474,4.865,22.331,22.331,0,0,0,3.214,3.161c1,.823,1.839,1.44,2.421,1.88l.658.505C325.586,353.4,325.663,353.46,325.657,353.472Z" transform="translate(-282.176 -215.176)" fill="#263238"/>
      <path id="Path_547" data-name="Path 547" d="M374.879,371.49a1.006,1.006,0,0,1-.259.094c-.176.047-.429.135-.764.2a15.512,15.512,0,0,1-2.879.347,16.176,16.176,0,0,1-15.318-9.689,15.213,15.213,0,0,1-.922-2.75c-.082-.335-.112-.588-.147-.776a1.227,1.227,0,0,1-.029-.276,8.014,8.014,0,0,1,.294,1.017,16.452,16.452,0,0,0,16.117,12.257,17.728,17.728,0,0,0,2.862-.247A10.04,10.04,0,0,1,374.879,371.49Z" transform="translate(-298.111 -227.383)" fill="#263238"/>
      <path id="Path_548" data-name="Path 548" d="M405.046,389.871c-.082,0,.693-3.273,1.763-7.257s1.951-7.2,2.027-7.174-.693,3.267-1.733,7.251S405.128,389.871,405.046,389.871Z" transform="translate(-318.93 -234.312)" fill="#263238"/>
      <path id="Path_549" data-name="Path 549" d="M411.769,375.994c-.07.041-2.433-3.819-5.288-8.626s-5.088-8.737-5.012-8.779,2.433,3.813,5.288,8.62S411.869,375.947,411.769,375.994Z" transform="translate(-317.456 -227.362)" fill="#263238"/>
      <path id="Path_550" data-name="Path 550" d="M448.6,404.387c0,.059-.858.129-2.2.47a17.337,17.337,0,0,0-2.3.758,19.136,19.136,0,0,0-2.632,1.363,18.578,18.578,0,0,0-2.35,1.792,17.248,17.248,0,0,0-1.675,1.763c-.881,1.064-1.316,1.81-1.369,1.763a2.613,2.613,0,0,1,.276-.541,10.918,10.918,0,0,1,.923-1.375,15.735,15.735,0,0,1,1.651-1.822,17.012,17.012,0,0,1,2.386-1.845,17.316,17.316,0,0,1,2.691-1.363,14.941,14.941,0,0,1,2.35-.711,10.641,10.641,0,0,1,1.633-.247A2.133,2.133,0,0,1,448.6,404.387Z" transform="translate(-331.731 -246.242)" fill="#263238"/>
      <path id="Path_551" data-name="Path 551" d="M452.268,398.272c0,.065-.946-.053-2.456.076a15.7,15.7,0,0,0-10.294,5.159c-1,1.128-1.475,1.951-1.528,1.921a2.692,2.692,0,0,1,.311-.588,5.674,5.674,0,0,1,.423-.652,10.283,10.283,0,0,1,.629-.823,14.276,14.276,0,0,1,1.916-1.892,16.452,16.452,0,0,1,2.773-1.8,16.2,16.2,0,0,1,3.091-1.14,14.186,14.186,0,0,1,2.668-.405,10.245,10.245,0,0,1,1.028,0,6.974,6.974,0,0,1,.781.047,2.627,2.627,0,0,1,.658.094Z" transform="translate(-332.519 -243.665)" fill="#263238"/>
      <g id="Group_56" data-name="Group 56" transform="translate(56.451 132.508)" opacity="0.3">
        <path id="Path_552" data-name="Path 552" d="M355.19,360.77c-1.381,2.621-.229,5.817,1.034,8.5a15.469,15.469,0,0,0,3.86,5.641,8.226,8.226,0,0,0,11.957-1.669,18.562,18.562,0,0,1-17.134-12.122" transform="translate(-354.563 -360.77)"/>
      </g>
      <g id="Group_57" data-name="Group 57" transform="translate(83.558 131.227)" opacity="0.3">
        <path id="Path_553" data-name="Path 553" d="M401.192,358.59c-1.058,2.521-.259,5.97.846,8.467s2.28,5.288,1.393,7.88a3.314,3.314,0,0,0-.347,1.481c.059.505.588.993,1.064.758a1.175,1.175,0,0,0,.476-.729q1.252-3.772,2.509-7.539" transform="translate(-400.696 -358.59)"/>
      </g>
      <path id="Path_554" data-name="Path 554" d="M306.94,295.551a70.129,70.129,0,0,1,1.487-9.331,34.767,34.767,0,0,1-.588,4.7,35.876,35.876,0,0,1-.9,4.63Z" transform="translate(-278.472 -197.516)" fill="#fafafa"/>
      <path id="Path_555" data-name="Path 555" d="M292.858,295.758c-.076.047-1.087-1.363-2.486-2.985s-2.632-2.838-2.574-2.9a14.5,14.5,0,0,1,2.809,2.7A15.049,15.049,0,0,1,292.858,295.758Z" transform="translate(-270.576 -199.021)" fill="#fafafa"/>
      <path id="Path_556" data-name="Path 556" d="M301.6,274.128a5.067,5.067,0,0,1-.664,1.058c-.447.629-1.1,1.469-1.857,2.35s-1.487,1.675-2.033,2.215a4.752,4.752,0,0,1-.934.823c-.065-.059,1.222-1.451,2.732-3.238A40.494,40.494,0,0,1,301.6,274.128Z" transform="translate(-274.003 -192.528)" fill="#fafafa"/>
      <path id="Path_557" data-name="Path 557" d="M300.26,259.63c-.088.035-.423-.711-1.069-1.457s-1.34-1.175-1.293-1.263a2.867,2.867,0,0,1,1.522,1.064A2.938,2.938,0,0,1,300.26,259.63Z" transform="translate(-274.742 -185.428)" fill="#fafafa"/>
      <path id="Path_558" data-name="Path 558" d="M290.622,269.3a4.218,4.218,0,0,1-1.528.394,4.054,4.054,0,0,1-1.575.094,8.227,8.227,0,0,1,3.1-.488Z" transform="translate(-270.462 -190.534)" fill="#fafafa"/>
      <path id="Path_559" data-name="Path 559" d="M315,276.69a16.049,16.049,0,0,0-.194-2.732,15.6,15.6,0,0,0-.958-2.568,4.612,4.612,0,0,1,1.252,2.5A4.7,4.7,0,0,1,315,276.69Z" transform="translate(-281.321 -191.4)" fill="#fafafa"/>
      <path id="Path_560" data-name="Path 560" d="M325.11,290.615a13.761,13.761,0,0,0-4.26-4.3,7.427,7.427,0,0,1,4.26,4.3Z" transform="translate(-284.208 -197.557)" fill="#fafafa"/>
      <path id="Path_561" data-name="Path 561" d="M304.588,316.433a7.051,7.051,0,0,1-5.388-.182c.029-.088,1.175.282,2.685.323S304.565,316.345,304.588,316.433Z" transform="translate(-275.279 -209.895)" fill="#fafafa"/>
      <path id="Path_562" data-name="Path 562" d="M317.623,316.948c-.082-.035.376-1.387.758-3.1s.552-3.138.64-3.126a9.912,9.912,0,0,1-.341,3.191A10.025,10.025,0,0,1,317.623,316.948Z" transform="translate(-282.874 -207.62)" fill="#fafafa"/>
      <path id="Path_563" data-name="Path 563" d="M334.408,318.312a20.919,20.919,0,0,1-2.568-2.585,21.951,21.951,0,0,1-2.35-2.8,21.445,21.445,0,0,1,2.562,2.591A22.7,22.7,0,0,1,334.408,318.312Z" transform="translate(-287.772 -208.532)" fill="#fafafa"/>
      <path id="Path_564" data-name="Path 564" d="M344.748,342.837a11.231,11.231,0,0,1-1.916-1.763,11.478,11.478,0,0,1-1.692-1.974,11.234,11.234,0,0,1,1.916,1.763A10.646,10.646,0,0,1,344.748,342.837Z" transform="translate(-292.576 -219.325)" fill="#fafafa"/>
      <path id="Path_565" data-name="Path 565" d="M326.215,347.687a8.531,8.531,0,0,1-2.35,1.763,8.315,8.315,0,0,1-2.715,1.175c0-.082,1.175-.588,2.562-1.416S326.156,347.616,326.215,347.687Z" transform="translate(-284.332 -222.864)" fill="#fafafa"/>
      <path id="Path_566" data-name="Path 566" d="M337.82,364.992c-.088,0,.264-1.563.441-3.5s.123-3.525.211-3.525a11.285,11.285,0,0,1,.094,3.525,11.122,11.122,0,0,1-.746,3.5Z" transform="translate(-291.201 -227.107)" fill="#fafafa"/>
      <path id="Path_567" data-name="Path 567" d="M365.039,348.3a9.878,9.878,0,0,1-2.544-2.239,9.632,9.632,0,0,1-1.874-2.815c.076-.053.881,1.222,2.1,2.615S365.1,348.226,365.039,348.3Z" transform="translate(-300.61 -221.035)" fill="#fafafa"/>
      <path id="Path_568" data-name="Path 568" d="M379.207,357.287c-.071-.053.823-1.275,1.822-2.844s1.733-2.885,1.81-2.844a12.6,12.6,0,0,1-1.557,3.008A12.258,12.258,0,0,1,379.207,357.287Z" transform="translate(-308.274 -224.479)" fill="#fafafa"/>
      <path id="Path_569" data-name="Path 569" d="M373.466,337.086a30.756,30.756,0,0,1-5.876-1.586,16.169,16.169,0,0,1,2.985.646,15.047,15.047,0,0,1,2.891.94Z" transform="translate(-303.485 -217.84)" fill="#fafafa"/>
      <path id="Path_570" data-name="Path 570" d="M369.465,374.923a12.459,12.459,0,0,1,0-2.785,13.161,13.161,0,0,1,.317-2.767,12.269,12.269,0,0,1,0,2.785A12.925,12.925,0,0,1,369.465,374.923Z" transform="translate(-304.226 -231.808)" fill="#fafafa"/>
      <path id="Path_571" data-name="Path 571" d="M376.5,388.6a23.608,23.608,0,0,0,.74-2.9,22.728,22.728,0,0,0,.047-2.991,7.051,7.051,0,0,1-.787,5.876Z" transform="translate(-307.159 -237.31)" fill="#fafafa"/>
      <path id="Path_572" data-name="Path 572" d="M358.342,385.536a9.067,9.067,0,0,1,1.128-5.876c.082.035-.458,1.275-.764,2.9S358.43,385.53,358.342,385.536Z" transform="translate(-299.63 -236.052)" fill="#fafafa"/>
      <path id="Path_573" data-name="Path 573" d="M338.062,393.666a32.909,32.909,0,0,1-2.762-2.145,34.128,34.128,0,0,1-2.721-2.192,14.263,14.263,0,0,1,2.938,1.951A14.93,14.93,0,0,1,338.062,393.666Z" transform="translate(-289.046 -240.04)" fill="#fafafa"/>
      <path id="Path_574" data-name="Path 574" d="M348.131,377.09a50.743,50.743,0,0,1-7.051,3.731,26.39,26.39,0,0,1,3.479-2.021A25.668,25.668,0,0,1,348.131,377.09Z" transform="translate(-292.551 -234.992)" fill="#fafafa"/>
      <path id="Path_575" data-name="Path 575" d="M366.959,408.1a2.658,2.658,0,0,1-.382.094c-.253.047-.623.141-1.1.206a23.57,23.57,0,0,1-4.113.264,25.386,25.386,0,0,1-22.122-13.82,23.246,23.246,0,0,1-1.575-3.825c-.159-.464-.235-.834-.306-1.081a1.857,1.857,0,0,1-.076-.388,2.154,2.154,0,0,1,.135.37c.088.241.182.588.358,1.064a26.617,26.617,0,0,0,5.112,8.761,25.807,25.807,0,0,0,18.479,8.7,26.729,26.729,0,0,0,4.113-.165c.488-.047.858-.123,1.111-.147A1.655,1.655,0,0,1,366.959,408.1Z" transform="translate(-290.984 -240.131)" fill="#263238"/>
      <path id="Path_576" data-name="Path 576" d="M357.838,412.393a4.566,4.566,0,0,1,.276-2.779,4.518,4.518,0,0,1,1.622-2.274,14.459,14.459,0,0,0-1.334,2.386A14.9,14.9,0,0,0,357.838,412.393Z" transform="translate(-299.421 -247.468)" fill="#fafafa"/>
      <path id="Path_577" data-name="Path 577" d="M347.931,412.5a10.258,10.258,0,0,0-1.528,1.457,10.742,10.742,0,0,0-.964,1.874A3.6,3.6,0,0,1,347.931,412.5Z" transform="translate(-294.35 -249.596)" fill="#fafafa"/>
      <path id="Path_578" data-name="Path 578" d="M378.031,429.278a6.017,6.017,0,0,1-4.7-2.938A10.576,10.576,0,0,0,378.031,429.278Z" transform="translate(-305.852 -255.304)" fill="#fafafa"/>
      <path id="Path_579" data-name="Path 579" d="M384.011,403.64a4.63,4.63,0,0,1-3.191,3.761,12.55,12.55,0,0,0,1.9-1.616A12.148,12.148,0,0,0,384.011,403.64Z" transform="translate(-308.941 -245.942)" fill="#fafafa"/>
      <path id="Path_580" data-name="Path 580" d="M400.232,420.846c-.071-.059.705-1.04,1.422-2.391s1.1-2.544,1.175-2.515a9.037,9.037,0,0,1-2.609,4.906Z" transform="translate(-316.942 -251.014)" fill="#fafafa"/>
      <path id="Path_581" data-name="Path 581" d="M415.987,427c.035.088-1.034.511-2.109,1.4s-1.722,1.839-1.8,1.763a4.765,4.765,0,0,1,1.6-2.027A4.7,4.7,0,0,1,415.987,427Z" transform="translate(-321.833 -255.576)" fill="#fafafa"/>
      <path id="Path_582" data-name="Path 582" d="M401.9,398.492c-.094.029-.588-1.686-1.686-3.59s-2.274-3.243-2.2-3.3a3.665,3.665,0,0,1,.84.823,14.589,14.589,0,0,1,2.773,4.924,3.89,3.89,0,0,1,.27,1.146Z" transform="translate(-316.032 -240.976)" fill="#fafafa"/>
      <path id="Path_583" data-name="Path 583" d="M403.431,373.56a27.287,27.287,0,0,1-5.641,1.3A27.52,27.52,0,0,1,403.431,373.56Z" transform="translate(-315.94 -233.536)" fill="#fafafa"/>
      <path id="Path_584" data-name="Path 584" d="M396.525,361.629a12.925,12.925,0,0,1-1.8-2.068,12.751,12.751,0,0,1-1.557-2.25,11.806,11.806,0,0,1,1.8,2.062,11.957,11.957,0,0,1,1.557,2.256Z" transform="translate(-314.034 -226.835)" fill="#fafafa"/>
      <path id="Path_585" data-name="Path 585" d="M416.14,358.4a13.683,13.683,0,0,1-5.5-1.3,23.968,23.968,0,0,1,2.756.641A23.257,23.257,0,0,1,416.14,358.4Z" transform="translate(-321.239 -226.748)" fill="#fafafa"/>
      <path id="Path_586" data-name="Path 586" d="M435,355.615a22.763,22.763,0,0,1,.9-2.444,20.8,20.8,0,0,1,.9-2.45,7.679,7.679,0,0,1-.588,2.556A7.484,7.484,0,0,1,435,355.615Z" transform="translate(-331.286 -224.117)" fill="#fafafa"/>
      <path id="Path_587" data-name="Path 587" d="M428.281,377.412a8.814,8.814,0,0,1-4.7-2.785c.059-.071.987.74,2.274,1.5S428.31,377.324,428.281,377.412Z" transform="translate(-326.576 -233.975)" fill="#fafafa"/>
      <path id="Path_588" data-name="Path 588" d="M441.308,373.9a21.3,21.3,0,0,1,.646-3.49,20.938,20.938,0,0,1,.928-3.414,40.909,40.909,0,0,1-1.592,6.91Z" transform="translate(-333.88 -230.831)" fill="#fafafa"/>
      <path id="Path_589" data-name="Path 589" d="M430.443,397.713a35.915,35.915,0,0,1-3.913-5.353,18.354,18.354,0,0,1,2.08,2.585,18.011,18.011,0,0,1,1.833,2.768Z" transform="translate(-327.793 -241.29)" fill="#fafafa"/>
      <path id="Path_590" data-name="Path 590" d="M444.919,389.745c-.082.041-.617-1.022-1.463-2.209s-1.663-2.051-1.6-2.115a6.828,6.828,0,0,1,1.851,1.939A6.627,6.627,0,0,1,444.919,389.745Z" transform="translate(-334.112 -238.428)" fill="#fafafa"/>
      <path id="Path_591" data-name="Path 591" d="M457.451,387.378a29.188,29.188,0,0,1-1.88-2.462,30.605,30.605,0,0,1-1.88-2.456,15.923,15.923,0,0,1,3.761,4.918Z" transform="translate(-338.994 -237.207)" fill="#fafafa"/>
      <path id="Path_592" data-name="Path 592" d="M455.408,397.039a5.664,5.664,0,0,0-.7-2,5.788,5.788,0,0,0-1.569-1.434c0-.035.27,0,.64.182a3.173,3.173,0,0,1,1.175,1.081,3.226,3.226,0,0,1,.523,1.516C455.537,396.768,455.461,397.039,455.408,397.039Z" transform="translate(-338.767 -241.797)" fill="#fafafa"/>
      <path id="Path_593" data-name="Path 593" d="M445.752,410.213c-.047,0-.029-.159-.076-.364a1.2,1.2,0,0,0-.405-.676,1.175,1.175,0,0,0-.752-.229c-.211,0-.347.053-.37,0s.088-.159.341-.229a1.116,1.116,0,0,1,1.4,1.093C445.881,410.089,445.787,410.225,445.752,410.213Z" transform="translate(-335.057 -248.02)" fill="#fafafa"/>
      <path id="Path_594" data-name="Path 594" d="M339.442,426.818A8.467,8.467,0,0,1,334.6,422a14.313,14.313,0,0,0,4.842,4.842Z" transform="translate(-289.879 -253.514)" fill="#fafafa"/>
      <path id="Path_595" data-name="Path 595" d="M271.459,162.722c-.946-8.937-2.656-17.345-3.12-26.106a1.586,1.586,0,0,0-.417-1.21,1.093,1.093,0,0,0-1.522.441,3.338,3.338,0,0,0-.294,1.763,40.436,40.436,0,0,1-2.35,13.673c-1,2.85-2.35,5.582-3.1,8.5s.664,3.913,1.98,6.634" transform="translate(-259.296 -135.256)" fill="#ffbe9d"/>
      <path id="Path_596" data-name="Path 596" d="M261.951,173.237a8.185,8.185,0,0,1-3.108-7.738,23.3,23.3,0,0,1,1.869-5.006,8.492,8.492,0,0,0,.8-5.206,8.766,8.766,0,0,1-.47-1.992c0-.682.441-1.445,1.122-1.475a1.669,1.669,0,0,1,1.275.77c1.146,1.416,2.062,5.553,1.487,8.643" transform="translate(-258.596 -142.087)" fill="#ffbe9d"/>
      <path id="Path_597" data-name="Path 597" d="M264.824,161.136s.059-.476.094-1.334a16,16,0,0,0-.3-3.608,13.063,13.063,0,0,0-.705-2.391,4.844,4.844,0,0,0-.658-1.175,1.675,1.675,0,0,0-1.1-.746,1.058,1.058,0,0,0-.981.823,2.491,2.491,0,0,0,.094,1.51,7.827,7.827,0,0,1,.411,1.663,6.659,6.659,0,0,1-.065,1.763c-.411,2.386-1.68,4.313-2.35,6.223a8.431,8.431,0,0,0-.523,2.785,8.15,8.15,0,0,0,.364,2.444,8.385,8.385,0,0,0,1.763,3.12c.588.629.97.9.952.934a1.551,1.551,0,0,1-.294-.194,6.544,6.544,0,0,1-.746-.664,8.039,8.039,0,0,1-1.88-3.132,8.134,8.134,0,0,1-.411-2.509,8.614,8.614,0,0,1,.511-2.879c.646-1.951,1.9-3.878,2.286-6.175a6.087,6.087,0,0,0,.065-1.692,7.458,7.458,0,0,0-.394-1.616,2.756,2.756,0,0,1-.082-1.686,1.633,1.633,0,0,1,.464-.723,1.081,1.081,0,0,1,.811-.288,1.921,1.921,0,0,1,1.34.829,5.135,5.135,0,0,1,.682,1.269,12.338,12.338,0,0,1,.682,2.444,14.512,14.512,0,0,1,.206,3.655,7.31,7.31,0,0,1-.129.987A1.333,1.333,0,0,1,264.824,161.136Z" transform="translate(-258.49 -141.991)" fill="#eb996e"/>
      <path id="Path_598" data-name="Path 598" d="M397.208,242.214a4.054,4.054,0,0,0,3.625,3.138,5.089,5.089,0,0,0,4.425-2.174,6.857,6.857,0,0,0,1.1-4.912,6.742,6.742,0,0,0-4.366-5.588c-2.386-.734-5.353.588-6.011,2.985l-2.75,3.837Z" transform="translate(-314.059 -175.351)" fill="#263238"/>
      <path id="Path_599" data-name="Path 599" d="M370.735,223.592a16,16,0,0,0-14.378-17.921c-8.526-.811-16.112,5.541-17.387,14.014-1.122,7.427-2.086,14.925-2.051,17.627.106,8.226,4.906,11.411,6.857,12.339a10.779,10.779,0,0,0,2.162.535h0a.053.053,0,0,1,.041.065l-1.821,9.4c-.828,6.176,2.621,11.687,8.784,12.586s11.023-3.843,11.969-10.024Z" transform="translate(-290.835 -164.267)" fill="#ffbe9d"/>
      <path id="Path_600" data-name="Path 600" d="M342.81,237.018c.135.194,1.216-.388,2.609-.182s2.3,1.052,2.48.9c.088-.065-.035-.388-.429-.776a3.6,3.6,0,0,0-1.957-.934,3.478,3.478,0,0,0-2.109.358C342.915,236.647,342.739,236.93,342.81,237.018Z" transform="translate(-293.259 -176.8)" fill="#263238"/>
      <path id="Path_601" data-name="Path 601" d="M363.851,241.577c.135.194,1.222-.388,2.609-.182s2.309,1.052,2.486.9c.082-.065-.035-.388-.435-.781a3.59,3.59,0,0,0-1.951-.928,3.473,3.473,0,0,0-2.109.358C363.975,241.207,363.787,241.489,363.851,241.577Z" transform="translate(-301.938 -178.68)" fill="#263238"/>
      <path id="Path_602" data-name="Path 602" d="M353.3,245.416a9.361,9.361,0,0,0-2.2-.734c-.353-.088-.676-.212-.7-.458a1.827,1.827,0,0,1,.388-1.017l1.445-2.55a47.786,47.786,0,0,0,3.385-6.728,46.786,46.786,0,0,0-3.919,6.463l-1.4,2.568a2.145,2.145,0,0,0-.388,1.369.923.923,0,0,0,.511.588,2.538,2.538,0,0,0,.588.17A9.148,9.148,0,0,0,353.3,245.416Z" transform="translate(-296.19 -175.95)" fill="#263238"/>
      <path id="Path_603" data-name="Path 603" d="M352.018,280.293s5.288,1.222,12.6-1.833c0,0-3.149,6.787-13.091,4.372Z" transform="translate(-296.861 -194.316)" fill="#eb996e"/>
      <path id="Path_604" data-name="Path 604" d="M355.694,258.861a2.532,2.532,0,0,1,2.35-.588,2.35,2.35,0,0,1,1.457,1.081,1.451,1.451,0,0,1-.135,1.669,1.68,1.68,0,0,1-1.886.194,5.218,5.218,0,0,1-1.622-1.316,1.486,1.486,0,0,1-.341-.47.458.458,0,0,1,.082-.517" transform="translate(-298.487 -185.957)" fill="#eb996e"/>
      <path id="Path_605" data-name="Path 605" d="M358.913,256.129c-.223-.047-.447,1.463-1.892,2.35s-3.032.482-3.073.693c-.035.094.317.347.993.464a3.807,3.807,0,0,0,2.55-.494,3.314,3.314,0,0,0,1.492-1.98C359.131,256.535,359.019,256.135,358.913,256.129Z" transform="translate(-297.858 -185.106)" fill="#263238"/>
      <path id="Path_606" data-name="Path 606" d="M365.489,234.106c.082.4,1.5.423,3.1.858s2.862,1.069,3.126.764c.118-.147-.059-.535-.535-.981a5.594,5.594,0,0,0-4.742-1.234C365.788,233.665,365.459,233.918,365.489,234.106Z" transform="translate(-302.617 -175.733)" fill="#263238"/>
      <path id="Path_607" data-name="Path 607" d="M345.195,229.66c.194.353,1.2.165,2.35.317s2.1.517,2.35.223c.123-.147,0-.488-.37-.846a3.431,3.431,0,0,0-3.808-.435C345.289,229.184,345.107,229.489,345.195,229.66Z" transform="translate(-294.24 -173.725)" fill="#263238"/>
      <path id="Path_608" data-name="Path 608" d="M337.395,214.458c1.7,2.591,7.092.987,10.347-.793a7.744,7.744,0,0,0,10.576-2.186c1.863,2.35,5.653,1.586,7.051-1.087s.588-6.358-1.293-8.7a12.065,12.065,0,0,0-7.4-4.025,17.211,17.211,0,0,0-17.445,7.186c-1.792,2.709-2.867,6.358-1.8,9.6" transform="translate(-290.87 -160.88)" fill="#263238"/>
      <path id="Path_609" data-name="Path 609" d="M356.644,199.238a28.241,28.241,0,0,0-3.943.223,14.337,14.337,0,0,0-8.156,4.389,17.768,17.768,0,0,0-3.89,8.5,23.5,23.5,0,0,0-.206,3.937,3.6,3.6,0,0,1-.217-1.058,12.2,12.2,0,0,1,.047-2.938,17.116,17.116,0,0,1,3.89-8.814,14.1,14.1,0,0,1,8.508-4.413,12.509,12.509,0,0,1,2.938-.047,3.449,3.449,0,0,1,1.028.223Z" transform="translate(-292.175 -161.524)" fill="#455a64"/>
      <path id="Path_610" data-name="Path 610" d="M353.175,211.871a2.669,2.669,0,0,1-.129-.923,9.114,9.114,0,0,1,.264-2.532,10.43,10.43,0,0,1,13.091-7.709,9.536,9.536,0,0,1,2.35,1,2.55,2.55,0,0,1,.746.588,19.2,19.2,0,0,0-3.185-1.175,10.406,10.406,0,0,0-12.633,7.439A18.381,18.381,0,0,0,353.175,211.871Z" transform="translate(-297.484 -162.077)" fill="#455a64"/>
      <path id="Path_611" data-name="Path 611" d="M379.008,211.234a30.713,30.713,0,0,0-1.093,7.051,10.382,10.382,0,0,0,2.109,6.663c2.268,2.732,6.052,3.567,9.542,4.231a27.617,27.617,0,0,0,1.628-14.69,12.225,12.225,0,0,0-2.867-6.6,7.985,7.985,0,0,0-9.7-1.175" transform="translate(-307.74 -164.261)" fill="#263238"/>
      <path id="Path_612" data-name="Path 612" d="M380.254,234.56a11.487,11.487,0,0,0-.535,6.463,42.327,42.327,0,0,1,.846,6.5,7.537,7.537,0,0,1-2.433,5.876,10.332,10.332,0,0,0-1.457,1.175,1.522,1.522,0,0,0-.306,1.722c.329.529,1.322.517,1.463-.088l-.088.153a.969.969,0,0,0,.823,1.463,4.4,4.4,0,0,0,3.138-1.539,9.614,9.614,0,0,0,1.863-4.7c.9-5.188.729-10.577,2.162-15.636" transform="translate(-307.047 -176.211)" fill="#263238"/>
      <path id="Path_613" data-name="Path 613" d="M345.51,292.373a12.639,12.639,0,0,0,16.881,8.966c3.044-1.175,5.5-3.467,7.868-5.705a18.432,18.432,0,0,1-17.081,21.423c-3.9.235-8.079-.952-10.53-3.99a11.812,11.812,0,0,1-2.35-7.639,27.827,27.827,0,0,1,1.539-7.991c.693-2.221,1.792-4.7,4.037-5.318" transform="translate(-292.228 -199.949)" fill="#1c47a1"/>
      <path id="Path_614" data-name="Path 614" d="M389.685,243.752c2.35,1.263,3.608,3.907,4.06,6.516a61.46,61.46,0,0,1,.335,7.926c.112,2.638.617,5.412,2.292,7.462,1.763,2.186,4.554,3.22,7.051,4.554a23.345,23.345,0,0,1,11.634,13.955c1.645,6.005.153,12.927-4.342,17.246C406.6,305.325,400.667,306.7,395,306.7c-4.037,0-8.473-.87-10.994-4.025s-2.35-7.58-1.469-11.47,2.5-7.668,2.562-11.658a20.771,20.771,0,0,1-3.1,6.9c-.417.588-1.128,1.234-1.763.893s-.441-1.44-.112-2.174c4.865-10.829,3.173-32.658,6.058-44.615" transform="translate(-308.528 -178.681)" fill="#263238"/>
      <path id="Path_615" data-name="Path 615" d="M389.011,243.831c.147-.047,5.829-1.122,5.094,4.5s-6.217,3.725-6.2,3.567S389.011,243.831,389.011,243.831Z" transform="translate(-311.861 -179.988)" fill="#ffbe9d"/>
      <path id="Path_616" data-name="Path 616" d="M391.286,251.355a2.206,2.206,0,0,0,.247.176.993.993,0,0,0,.729.112,2.448,2.448,0,0,0,1.4-2.027,3.332,3.332,0,0,0-.094-1.44,1.134,1.134,0,0,0-.64-.846.505.505,0,0,0-.588.194c-.094.147-.076.264-.106.27s-.106-.112-.035-.335a.629.629,0,0,1,.27-.323.74.74,0,0,1,.588-.076,1.393,1.393,0,0,1,.911,1,3.4,3.4,0,0,1,.135,1.61,2.545,2.545,0,0,1-1.763,2.239,1.046,1.046,0,0,1-.876-.264C391.28,251.49,391.268,251.361,391.286,251.355Z" transform="translate(-313.255 -181.353)" fill="#eb996e"/>
      <path id="Path_617" data-name="Path 617" d="M339.29,304.32a13.878,13.878,0,0,1,.952-1.733,23.394,23.394,0,0,0,2.027-4.283,10.577,10.577,0,0,0,.505-4.654,18.179,18.179,0,0,0-.447-1.91,1.586,1.586,0,0,1,.253.476,6.237,6.237,0,0,1,.411,1.4,9.989,9.989,0,0,1-.429,4.777,19.73,19.73,0,0,1-2.133,4.3c-.329.517-.588.928-.8,1.2A2.972,2.972,0,0,1,339.29,304.32Z" transform="translate(-291.813 -199.792)" fill="#263238"/>
      <path id="Path_618" data-name="Path 618" d="M342.918,301.176c-.082,0-.241-.482-.746-.817s-1.011-.335-1.022-.423.123-.1.353-.106a1.475,1.475,0,0,1,.846.276,1.545,1.545,0,0,1,.552.7C342.977,301.023,342.959,301.164,342.918,301.176Z" transform="translate(-292.58 -203.129)" fill="#fafafa"/>
      <path id="Path_619" data-name="Path 619" d="M348.047,300.577a11.063,11.063,0,0,0-1.445-1.357,9.718,9.718,0,0,0-1.822-.787,2.638,2.638,0,0,1,1.986.535,2.727,2.727,0,0,1,1.281,1.61Z" transform="translate(-294.077 -202.542)" fill="#fafafa"/>
      <path id="Path_620" data-name="Path 620" d="M354.22,319.058a9.758,9.758,0,0,1,.341-2.4,9.654,9.654,0,0,1,.64-2.35,9.789,9.789,0,0,1-.341,2.4A9.654,9.654,0,0,1,354.22,319.058Z" transform="translate(-297.971 -209.101)" fill="#fafafa"/>
      <path id="Path_621" data-name="Path 621" d="M369.763,321.9a21.445,21.445,0,0,1,.159-5.059A20.642,20.642,0,0,1,369.763,321.9Z" transform="translate(-304.348 -210.144)" fill="#fafafa"/>
    </g>
    <g id="freepik--character-1--inject-15" transform="translate(31.638 96.911)">
      <path id="Path_622" data-name="Path 622" d="M44.951,369.89,35.89,409.346l19.161.059,8.849-34.7Z" transform="translate(-35.89 -223.675)" fill="#b78876"/>
      <path id="Path_623" data-name="Path 623" d="M198.348,276.576c-1.822-2.438-3.913-4.783-4.871-7.674-.464-1.4-.646-2.879-1.14-4.266a5.184,5.184,0,0,0-2.768-3.261,2.812,2.812,0,0,0-3.314.987l-6.575,19.232,3.79,14.772c3.784-.852,8.52-1.863,12.057-3.455s5.876-4.142,6.123-8.015C201.82,281.858,200.169,279.02,198.348,276.576Z" transform="translate(-95.191 -178.837)" fill="#263238"/>
      <path id="Path_624" data-name="Path 624" d="M82.97,280.578s-22.857,9.948-25.713,14.437S45,331.51,45,331.51l24.091,7.051-.411,33.322h59.052l-.488-58.758-7.4-32.47s-13.038-.84-14.249-1.434S82.97,280.578,82.97,280.578Z" transform="translate(-39.647 -186.235)" fill="#1c47a1"/>
      <path id="Path_625" data-name="Path 625" d="M247.631,139.131c.188-1.346-.758-2.826-.076-4.007a3.338,3.338,0,0,1,1.827-1.24,2.938,2.938,0,0,1,1.128-.264.993.993,0,0,1,.923.588,1.257,1.257,0,0,1-.452,1.216,3.584,3.584,0,0,0-.887,1.022,6.134,6.134,0,0,0,.217,2.891,51.079,51.079,0,0,1,1.945,6.287" transform="translate(-123.081 -126.233)" fill="#b78876"/>
      <path id="Path_626" data-name="Path 626" d="M239.65,135.28c.082-2.039,1.763-10.071,1.822-12.11a4.05,4.05,0,0,1,2.438,3.314c.259,1.422.123,2.885.37,4.307a15.684,15.684,0,0,0,2.321,5.288,19.071,19.071,0,0,1,2.5,5.224c.452,1.88,2.156,6.769.828,8.179" transform="translate(-119.924 -121.924)" fill="#b78876"/>
      <path id="Path_627" data-name="Path 627" d="M211.521,167.18l-8.173,38.827c-.288,1.763-30.977,28.527-30.977,28.527l6.058,24.2,39.956-39.092a16.241,16.241,0,0,0,4.378-11.393l-.682-36.43Z" transform="translate(-92.177 -140.074)" fill="#b78876"/>
      <path id="Path_628" data-name="Path 628" d="M236.361,134.652l1.4,13.514,10.577,4.654s.129-.958.588-5.641c.5-5.159-5.047-7.374-7.521-11.164-1.058-1.628-.781-4.624-1.6-8.338-.094-.429-.682-3.026-1-4.419a3.138,3.138,0,0,0-1.269-1.91c-.482-.317-1.022-.476-1.416,0S236.361,134.652,236.361,134.652Z" transform="translate(-118.415 -121.049)" fill="#b78876"/>
      <path id="Path_629" data-name="Path 629" d="M242.309,158.924a4.258,4.258,0,0,0,1.017-4.348,11.088,11.088,0,0,0-2.5-3.972,15.76,15.76,0,0,1-2.756-3.819c-.447-1.011-.658-2.127-1.175-3.12a3.209,3.209,0,0,0-2.5-1.945c.887,5.588.864,8.814,2.679,14.936" transform="translate(-117.759 -129.574)" fill="#b78876"/>
      <path id="Path_630" data-name="Path 630" d="M235.317,148.166s-.041-.153-.106-.447-.176-.781-.282-1.281c-.253-1.175-.588-2.674-.934-4.4l-.035-.165h.17a2.738,2.738,0,0,1,1.974.74,5.929,5.929,0,0,1,1.657,2.826,14.654,14.654,0,0,0,.923,2.438,7.52,7.52,0,0,0,1.034,1.428,2.133,2.133,0,0,1,.353.558,4.332,4.332,0,0,1-.447-.482,6.675,6.675,0,0,1-1.128-1.4,13.856,13.856,0,0,1-1.011-2.462,5.811,5.811,0,0,0-1.586-2.691,2.5,2.5,0,0,0-1.763-.676l.141-.176A44.189,44.189,0,0,1,235.317,148.166Z" transform="translate(-117.577 -129.639)" fill="#7c5142"/>
      <path id="Path_631" data-name="Path 631" d="M243.2,138.96a50.635,50.635,0,0,1-.975-5.512,51.218,51.218,0,0,1-.676-5.559,49.266,49.266,0,0,1,.975,5.517A51.208,51.208,0,0,1,243.2,138.96Z" transform="translate(-120.708 -123.87)" fill="#7c5142"/>
      <path id="Path_632" data-name="Path 632" d="M248.869,142.033a.659.659,0,0,1,.076.206h-.088a31.627,31.627,0,0,1-1.069-3.843c-.253-1.134-.435-2.168-.546-2.938a4.553,4.553,0,0,1-.106-1.228c.088,0,.447,1.827.952,4.113.405,1.827.781,3.367.858,3.884h-.088C248.852,142.1,248.852,142.033,248.869,142.033Z" transform="translate(-123.009 -126.485)" fill="#7c5142"/>
      <path id="Path_633" data-name="Path 633" d="M249.458,158.047c-.047,0-.259-.306-.682-.758a6.61,6.61,0,0,0-4.26-2.057,7.051,7.051,0,0,1-1.017-.065,2.35,2.35,0,0,1,1.022-.153,5.782,5.782,0,0,1,4.413,2.133,2.3,2.3,0,0,1,.523.9Z" transform="translate(-121.512 -135.055)" fill="#7c5142"/>
      <path id="Path_634" data-name="Path 634" d="M238.69,160.925a8,8,0,0,1-.7-1.6,35.43,35.43,0,0,1-1.21-4.031,34.892,34.892,0,0,1-.74-4.113,8.531,8.531,0,0,1-.106-1.763,11.875,11.875,0,0,1,.317,1.71c.176,1.052.447,2.509.823,4.113s.8,3.008,1.122,4.031A12.384,12.384,0,0,1,238.69,160.925Z" transform="translate(-118.388 -132.75)" fill="#7c5142"/>
      <path id="Path_635" data-name="Path 635" d="M160.16,274.838a3.725,3.725,0,0,1,5.006-1.175c4.313-3.525,8.726-6.945,13.038-10.453-1.41,7.051-2.35,16.881.8,23.333,0,0,3.978,7.392,10.312,6.264l-5.653,5.535-8.914,8.267" transform="translate(-87.141 -179.678)" fill="#1c47a1"/>
      <path id="Path_636" data-name="Path 636" d="M157.78,285.363a4.76,4.76,0,0,1,.828-2.65,4.813,4.813,0,0,1,1.974-1.963A10.3,10.3,0,0,0,157.78,285.363Z" transform="translate(-86.159 -186.912)" fill="#263238"/>
      <path id="Path_637" data-name="Path 637" d="M165.212,289.871a3.625,3.625,0,0,1-.494-1.281,8.285,8.285,0,0,1,1.134-6.411,3.678,3.678,0,0,1,.9-1.04c.041.035-.3.435-.717,1.175a9.342,9.342,0,0,0-1.111,3.026,9.5,9.5,0,0,0,0,3.226A12.921,12.921,0,0,1,165.212,289.871Z" transform="translate(-88.932 -187.073)" fill="#263238"/>
      <path id="Path_638" data-name="Path 638" d="M192.433,301.237a4.771,4.771,0,0,1-1.4.588,7.809,7.809,0,0,1-4.113-.123,9.907,9.907,0,0,1-4.947-3.525,16.652,16.652,0,0,1-2.938-6.881,51.914,51.914,0,0,1-.705-13.585c.135-1.763.329-3.138.494-4.113.076-.482.147-.852.2-1.1a1.934,1.934,0,0,1,.094-.382,1.646,1.646,0,0,1-.035.394l-.141,1.111c-.123.964-.288,2.35-.394,4.113a54.463,54.463,0,0,0,.787,13.514,16.593,16.593,0,0,0,2.85,6.716,9.707,9.707,0,0,0,4.789,3.526,7.909,7.909,0,0,0,4.025.217A11.284,11.284,0,0,0,192.433,301.237Z" transform="translate(-94.565 -183.349)" fill="#fafafa"/>
      <path id="Path_639" data-name="Path 639" d="M86.083,370.982c-.082,0-.153-8.355-.153-18.656s.071-18.656.153-18.656.153,8.35.153,18.656S86.171,370.982,86.083,370.982Z" transform="translate(-56.527 -208.737)" fill="#263238"/>
      <path id="Path_640" data-name="Path 640" d="M79.488,314.975c-.065,0-.047-.834-.335-2.133a11.823,11.823,0,0,0-.734-2.209,13.275,13.275,0,0,0-1.451-2.444,13.423,13.423,0,0,0-1.98-2.045,12.152,12.152,0,0,0-1.933-1.293c-1.175-.617-1.992-.823-1.974-.881a2.058,2.058,0,0,1,.588.118,4.439,4.439,0,0,1,.652.217,6.409,6.409,0,0,1,.84.358,10.778,10.778,0,0,1,1.986,1.257A13.2,13.2,0,0,1,77.185,308a12.492,12.492,0,0,1,1.469,2.521,10.872,10.872,0,0,1,.711,2.28,7.178,7.178,0,0,1,.123.9,5.018,5.018,0,0,1,.035.688A2.533,2.533,0,0,1,79.488,314.975Z" transform="translate(-50.403 -196.489)" fill="#263238"/>
      <path id="Path_641" data-name="Path 641" d="M133.087,281.17a2.732,2.732,0,0,1,.1.5,12.259,12.259,0,0,1,.153,1.44,14.983,14.983,0,0,1-.734,5.259,15.43,15.43,0,0,1-4.26,6.593,15.166,15.166,0,0,1-18.1,1.387,15.418,15.418,0,0,1-5.194-5.876,15.036,15.036,0,0,1-1.51-5.088,13.307,13.307,0,0,1-.065-1.445,3.011,3.011,0,0,1,0-.505,3.008,3.008,0,0,1,.041.5,14.281,14.281,0,0,0,.118,1.434,15.524,15.524,0,0,0,1.586,5.006,15.336,15.336,0,0,0,5.153,5.752,14.983,14.983,0,0,0,17.757-1.334,15.33,15.33,0,0,0,4.242-6.463,15.729,15.729,0,0,0,.823-5.188,10.01,10.01,0,0,0-.1-1.434A1.548,1.548,0,0,1,133.087,281.17Z" transform="translate(-63.758 -187.085)" fill="#263238"/>
      <path id="Path_642" data-name="Path 642" d="M70.182,362.921c0,.082-4.883-1.451-10.841-3.42s-10.77-3.631-10.741-3.714,4.877,1.451,10.841,3.42S70.205,362.839,70.182,362.921Z" transform="translate(-41.132 -217.858)" fill="#fafafa"/>
      <path id="Path_643" data-name="Path 643" d="M143.373,354.011c0,.088-12.956.212-28.938.276s-28.944.053-28.944,0,12.956-.212,28.944-.276S143.373,353.929,143.373,354.011Z" transform="translate(-56.346 -217.104)" fill="#fafafa"/>
      <path id="Path_644" data-name="Path 644" d="M143.667,362.653c0,.082-13.027.153-29.085.153s-29.091-.07-29.091-.153,13.021-.153,29.091-.153S143.667,362.565,143.667,362.653Z" transform="translate(-56.346 -220.627)" fill="#fafafa"/>
      <path id="Path_645" data-name="Path 645" d="M146.893,373.34a2.674,2.674,0,0,1-.165.476c-.129.329-.306.776-.523,1.34l-.388.964c-.153.353-.335.723-.523,1.128-.388.8-.787,1.727-1.346,2.7l-.846,1.539c-.294.535-.646,1.064-.987,1.628-.67,1.134-1.492,2.274-2.35,3.49a57.915,57.915,0,0,1-13.7,13.432c-1.234.823-2.391,1.628-3.525,2.274-.588.329-1.1.67-1.645.958l-1.575.811c-.981.535-1.921.923-2.726,1.293-.405.176-.781.353-1.134.5l-.975.37-1.346.5a2.579,2.579,0,0,1-.482.153,3.047,3.047,0,0,1,.458-.212l1.328-.552.958-.394c.353-.153.723-.335,1.122-.523.8-.382,1.727-.781,2.7-1.328l1.545-.823c.535-.294,1.069-.64,1.633-.97,1.134-.652,2.28-1.463,3.526-2.286a59.5,59.5,0,0,0,13.632-13.368c.852-1.2,1.68-2.35,2.35-3.461.347-.558.705-1.081,1-1.61l.852-1.528c.588-.958.981-1.88,1.381-2.673.194-.4.388-.764.546-1.111s.288-.664.411-.952c.241-.552.435-.987.588-1.316a4.831,4.831,0,0,1,.2-.452Z" transform="translate(-67.551 -225.098)" fill="#263238"/>
      <g id="Group_58" data-name="Group 58" transform="translate(47.771 153.331)" opacity="0.3">
        <path id="Path_646" data-name="Path 646" d="M146.376,382c-3.949,4.806-8.085,8.291-13.885,10.535-2.779,1.069-5.688,1.8-8.379,3.079a12.868,12.868,0,0,0-6.463,5.917c-.934,2.1-.482,5.288,1.763,5.747a4.766,4.766,0,0,0,2.556-.394c11.487-4.166,19.038-14.69,24.373-24.884" transform="translate(-117.191 -382)"/>
      </g>
      <path id="Path_647" data-name="Path 647" d="M89.6,204.08c-2.48,1.945-2.644,5.582-2.521,8.732s.159,6.734-2.139,8.908c-1.88,1.792-5.171,2.456-5.711,5a2.938,2.938,0,0,0,4.748,2.909,5.15,5.15,0,0,0,1.263,5.876c1.7,1.334,4.665.7,5.288-1.346a2.6,2.6,0,1,0,5.053,1.175" transform="translate(-53.733 -155.292)" fill="#263238"/>
      <path id="Path_648" data-name="Path 648" d="M145.265,222.636a3.132,3.132,0,1,0,5.876-2.127c-.488-1.222-1.763-2.145-1.792-3.455-.076-1.586,1.592-2.638,3.055-3.255s3.179-1.44,3.408-3.008-1.081-2.773-2.174-3.849-2.145-2.709-1.375-4.037c.394-.676,1.175-1.04,1.68-1.633a3.442,3.442,0,0,0-.635-4.648,6.423,6.423,0,0,0-4.924-1.175,42.376,42.376,0,0,0-5.053,1.269,20.794,20.794,0,0,1-16.452-2.938" transform="translate(-73.416 -151.044)" fill="#263238"/>
      <path id="Path_649" data-name="Path 649" d="M99.608,211l6.046,35.043a11.276,11.276,0,0,0,13.1,9.2h0a11.282,11.282,0,0,0,9.249-12.1c-.276-3.108-.511-5.682-.511-5.682s8.778-2.256,8.021-11.164c-.37-4.313-1.845-13.132-3.279-21.1a16.676,16.676,0,0,0-18.039-13.638l-.858.082A16.564,16.564,0,0,0,99.608,211Z" transform="translate(-62.056 -150.093)" fill="#b78876"/>
      <path id="Path_650" data-name="Path 650" d="M150.355,223.883a1.269,1.269,0,0,1-1.1,1.4,1.216,1.216,0,0,1-1.422-1.016,1.269,1.269,0,0,1,1.1-1.4,1.216,1.216,0,0,1,1.422,1.016Z" transform="translate(-82.054 -163.032)" fill="#263238"/>
      <path id="Path_651" data-name="Path 651" d="M149.253,221.757c-.141.176-1.175-.441-2.544-.306s-2.309.922-2.474.77c-.076-.07.053-.382.458-.746a3.49,3.49,0,0,1,1.963-.817,3.384,3.384,0,0,1,2.045.447C149.153,221.387,149.324,221.675,149.253,221.757Z" transform="translate(-80.565 -162.123)" fill="#263238"/>
      <path id="Path_652" data-name="Path 652" d="M127.552,226.549a1.281,1.281,0,0,1-1.1,1.4,1.222,1.222,0,0,1-1.422-1.017,1.281,1.281,0,0,1,1.1-1.4,1.228,1.228,0,0,1,1.428,1.022Z" transform="translate(-72.648 -164.13)" fill="#263238"/>
      <path id="Path_653" data-name="Path 653" d="M126.383,224.42c-.141.182-1.175-.435-2.544-.3s-2.3.923-2.474.77c-.076-.071.053-.382.458-.746a3.526,3.526,0,0,1,1.963-.817,3.343,3.343,0,0,1,2.045.447C126.283,224.056,126.43,224.344,126.383,224.42Z" transform="translate(-71.133 -163.223)" fill="#263238"/>
      <path id="Path_654" data-name="Path 654" d="M138.842,233.7a8.973,8.973,0,0,1,2.18-.623c.347-.071.676-.17.711-.417a1.845,1.845,0,0,0-.335-1.011l-1.3-2.562a46.153,46.153,0,0,1-3-6.74,46.538,46.538,0,0,1,3.525,6.463l1.252,2.585a2.015,2.015,0,0,1,.311,1.351.876.876,0,0,1-.523.588,2.632,2.632,0,0,1-.588.141,9.268,9.268,0,0,1-2.239.223Z" transform="translate(-77.627 -162.826)" fill="#263238"/>
      <path id="Path_655" data-name="Path 655" d="M125.286,215.432c-.1.388-1.481.341-3.067.693s-2.85.917-3.091.588c-.112-.147.076-.523.588-.934a5.288,5.288,0,0,1,2.233-1.034,5.218,5.218,0,0,1,2.462.053C125,214.991,125.327,215.256,125.286,215.432Z" transform="translate(-70.206 -159.64)" fill="#263238"/>
      <path id="Path_656" data-name="Path 656" d="M147.952,215.025c-.212.335-1.175.106-2.35.2s-2.074.417-2.35.112c-.112-.147,0-.476.4-.811a3.238,3.238,0,0,1,1.839-.693,3.2,3.2,0,0,1,1.91.447C147.876,214.561,148.04,214.867,147.952,215.025Z" transform="translate(-80.151 -159.31)" fill="#263238"/>
      <path id="Path_657" data-name="Path 657" d="M106.45,203.074l-.047.047a7.051,7.051,0,0,0-2.162,4.783v.182c-.1,2.579.212,5.159.088,7.733a11.545,11.545,0,0,1-2.462,7.174c-.7.793-2.015,1.422-2.732.64A2.18,2.18,0,0,1,98.7,222.5c-1.069-6.087-3.279-11.37-3.89-17.792a5.412,5.412,0,0,1,1.816-4.618c1.246-1.1,2.791-2.256,4.354-1.692s3.766,3.167,5.041,4.236" transform="translate(-60.178 -152.887)" fill="#263238"/>
      <path id="Path_658" data-name="Path 658" d="M101.663,230.977c-.159-.047-6.3-1.21-5.512,4.859s6.722,4.031,6.71,3.855S101.663,230.977,101.663,230.977Z" transform="translate(-60.714 -166.336)" fill="#b78876"/>
      <path id="Path_659" data-name="Path 659" d="M101.881,239.115a1.61,1.61,0,0,1-.264.188,1.04,1.04,0,0,1-.787.123,2.649,2.649,0,0,1-1.516-2.192,3.525,3.525,0,0,1,.1-1.557,1.246,1.246,0,0,1,.693-.917.546.546,0,0,1,.658.212c.106.159.082.288.118.294s.118-.118.035-.364a.687.687,0,0,0-.288-.353.811.811,0,0,0-.588-.076,1.51,1.51,0,0,0-.987,1.087,3.7,3.7,0,0,0-.147,1.763,2.777,2.777,0,0,0,1.886,2.421,1.122,1.122,0,0,0,.946-.288A.627.627,0,0,0,101.881,239.115Z" transform="translate(-61.86 -167.817)" fill="#7c5142"/>
      <path id="Path_660" data-name="Path 660" d="M104.8,194.115c-1.763-2.292,2.033-6.193,4.947-7.433s7.022-.165,10.112.535c1.945.447,3.913,1.134,5.876.858a13.516,13.516,0,0,0,3.766-1.357,9.889,9.889,0,0,1,3.819-1.175,3.69,3.69,0,0,1,3.408,1.722,2.322,2.322,0,0,1-1.24,3.261,3.008,3.008,0,1,1,1.34,5.465c.8-.74,2.239.217,2.239,1.3a3.188,3.188,0,0,1-1.863,2.515c-2.433,1.363-5.429,1.293-8.144.664s-5.288-1.763-7.991-2.468-7.233-1.974-9.76-.793c-1.857.864-2.973,3.314-4.113,2.938a3.731,3.731,0,0,1-2.192-2.55,10.788,10.788,0,0,1-.223-3.479" transform="translate(-64.126 -147.643)" fill="#263238"/>
      <path id="Path_661" data-name="Path 661" d="M105.71,230.43a53.123,53.123,0,0,0,1.1,9.6,17.951,17.951,0,0,0,4.354,8.491c2.938,3.014,6.792,5.876,10.964,6.587,4.554.752,10.124-.2,13.832-2.938a6.6,6.6,0,0,0,2.491-6.24,4.63,4.63,0,0,0,2.644-3.878c.094-1.645-.911-3.7-2.209-3.919.975-.165,1.257-1.716.887-2.591s-1.657-1.14-2.632-.952a6.793,6.793,0,0,0-2.626,1.351,9.266,9.266,0,0,1-2.544,1.516c-3.149,1.022-6.34-1.763-9.648-1.628-2.991.118-5.653,2.6-8.62,2.186a5.976,5.976,0,0,1-4-2.779c-.917-1.4-.517-6.593-.875-8.226" transform="translate(-64.685 -164.749)" fill="#263238"/>
      <g id="Group_59" data-name="Group 59" transform="translate(60.315 79.056)" opacity="0.6">
        <path id="Path_662" data-name="Path 662" d="M143.252,256.208a5.605,5.605,0,0,1-.729-.223,3.9,3.9,0,0,0-3.4.617c-.376.27-.588.488-.588.458a1.459,1.459,0,0,1,.476-.588,3.525,3.525,0,0,1,3.59-.646C143.041,255.973,143.27,256.179,143.252,256.208Z" transform="translate(-138.54 -255.593)" fill="#455a64"/>
      </g>
      <path id="Path_663" data-name="Path 663" d="M135.5,245.15c.223-.035.37,1.451,1.763,2.35s2.938.617,2.973.823c.029.088-.323.323-.993.405a3.708,3.708,0,0,1-2.474-.588,3.226,3.226,0,0,1-1.363-2.01C135.274,245.531,135.4,245.15,135.5,245.15Z" transform="translate(-76.909 -172.23)" fill="#fff"/>
      <path id="Path_664" data-name="Path 664" d="M128.09,259.375a1.574,1.574,0,0,1,.382.141c.253.094.623.223,1.111.358a19.807,19.807,0,0,0,4.231.664,18.661,18.661,0,0,0,2.938-.059,16.451,16.451,0,0,0,3.32-.646,13.516,13.516,0,0,0,3.384-1.545,10.271,10.271,0,0,0,2.938-2.668,6.1,6.1,0,0,0,1.175-4.407v-.123l.106-.047a4.765,4.765,0,0,0,1.839-1.51,5.365,5.365,0,0,0,.588-.987,3.567,3.567,0,0,0,.259-1.064,4.189,4.189,0,0,0-1.41-3.555l-.088-.071.071-.088a2.468,2.468,0,0,0,.364-2.415,2.35,2.35,0,0,0-1.351-1.328,2.586,2.586,0,0,0-1.228-.17c-.288.035-.429.088-.435.071a1.487,1.487,0,0,1,.429-.129,2.562,2.562,0,0,1,2.75,1.487,2.679,2.679,0,0,1-.353,2.627v-.159a4.436,4.436,0,0,1,1.539,3.755,3.872,3.872,0,0,1-.276,1.175,6.1,6.1,0,0,1-.617,1.046,4.983,4.983,0,0,1-1.951,1.616l.088-.176a6.317,6.317,0,0,1-1.175,4.654,10.541,10.541,0,0,1-3.026,2.744,13.227,13.227,0,0,1-3.461,1.557,16.206,16.206,0,0,1-3.379.635,18.942,18.942,0,0,1-2.991,0,18.527,18.527,0,0,1-4.248-.77,9.577,9.577,0,0,1-1.1-.417A2.176,2.176,0,0,1,128.09,259.375Z" transform="translate(-73.915 -170.009)" fill="#455a64"/>
      <path id="Path_665" data-name="Path 665" d="M82,228.641a.929.929,0,0,1-.311-.153,1.763,1.763,0,0,1-.588-.776,2.638,2.638,0,0,1-.123-1.563,3.155,3.155,0,0,1,1.175-1.722,7.85,7.85,0,0,1,2.233-1.175,14.471,14.471,0,0,0,2.6-1.1,5.077,5.077,0,0,0,1.957-2.3,8.42,8.42,0,0,0,.693-3.232c.047-2.3-.482-4.477-.541-6.5a8.559,8.559,0,0,1,1.216-5.188,4.889,4.889,0,0,1,2.938-2.015,3.326,3.326,0,0,1,.987-.047,2.412,2.412,0,0,1,.341.065,5.247,5.247,0,0,0-1.3.1,4.859,4.859,0,0,0-2.815,2.021,8.254,8.254,0,0,0-1.111,5.053c.106,1.986.588,4.166.588,6.528a8.719,8.719,0,0,1-.746,3.349A5.341,5.341,0,0,1,87.1,222.4a13.892,13.892,0,0,1-2.673,1.1,7.727,7.727,0,0,0-2.18,1.093,2.973,2.973,0,0,0-1.134,1.586,2.509,2.509,0,0,0,.065,1.481,1.957,1.957,0,0,0,.817.981Z" transform="translate(-54.457 -154.781)" fill="#455a64"/>
      <path id="Path_666" data-name="Path 666" d="M136.227,193.606a1.339,1.339,0,0,1,.264-.123,1.967,1.967,0,0,1,.347-.117,2.934,2.934,0,0,1,.488-.1,3.637,3.637,0,0,1,3,1.075h0a4.871,4.871,0,0,1,.911,3.643,5.976,5.976,0,0,1-2.409,3.978,9.231,9.231,0,0,1-5.112,1.763,20.494,20.494,0,0,1-5.929-.635,26.887,26.887,0,0,1-8.614-3.813,27.069,27.069,0,0,0-3.526-2.051,9.637,9.637,0,0,0-3.408-.87,10.177,10.177,0,0,0-5,.928c-1.1.517-1.622.964-1.645.928a7.214,7.214,0,0,1,1.592-1.04,10.136,10.136,0,0,1,5.065-1.034,9.812,9.812,0,0,1,3.526.852,27.34,27.34,0,0,1,3.578,2.051,27.083,27.083,0,0,0,8.532,3.749,20.414,20.414,0,0,0,5.841.658,9.067,9.067,0,0,0,4.965-1.692,5.794,5.794,0,0,0,2.35-3.8,4.7,4.7,0,0,0-.817-3.525h0a3.578,3.578,0,0,0-2.85-1.1,7.639,7.639,0,0,0-1.146.27Z" transform="translate(-64.635 -150.823)" fill="#455a64"/>
      <path id="Path_667" data-name="Path 667" d="M132.6,185.05a3.438,3.438,0,0,1-.276,1.346,5.729,5.729,0,0,1-2.515,2.744,7.2,7.2,0,0,1-2.45.881,10.346,10.346,0,0,1-2.985,0,40.2,40.2,0,0,1-6.546-1.8,13.382,13.382,0,0,0-6.6-.7,8.72,8.72,0,0,0-4.636,2.7,9.055,9.055,0,0,0-1.874,3.149c-.27.834-.323,1.322-.358,1.316a1.445,1.445,0,0,1,0-.353,6.73,6.73,0,0,1,.217-1,8.679,8.679,0,0,1,1.827-3.261,8.814,8.814,0,0,1,4.736-2.832,13.466,13.466,0,0,1,6.745.682,41.439,41.439,0,0,0,6.493,1.81,10.065,10.065,0,0,0,2.909,0,7.05,7.05,0,0,0,2.386-.817,5.735,5.735,0,0,0,2.509-2.6A8.373,8.373,0,0,0,132.6,185.05Z" transform="translate(-64.125 -147.444)" fill="#455a64"/>
    </g>
    <g id="freepik--Lines--inject-15" transform="translate(123.571 69.959)">
      <path id="Path_668" data-name="Path 668" d="M217.9,113.169c-.053.065-3.355-2.621-7.38-6s-7.239-6.2-7.18-6.24,3.355,2.621,7.38,6.005S217.959,113.1,217.9,113.169Z" transform="translate(-196.882 -85.799)" fill="#263238"/>
      <path id="Path_669" data-name="Path 669" d="M255.8,98.525c-.082,0-.417-5.218-.74-11.664s-.523-11.675-.441-11.681.417,5.218.746,11.669S255.88,98.525,255.8,98.525Z" transform="translate(-218.022 -75.18)" fill="#263238"/>
      <path id="Path_670" data-name="Path 670" d="M235.449,99.153c-.082,0-1.111-2.938-2.3-6.657s-2.092-6.722-2.01-6.745,1.111,2.938,2.3,6.651S235.526,99.129,235.449,99.153Z" transform="translate(-208.344 -79.539)" fill="#263238"/>
      <path id="Path_671" data-name="Path 671" d="M216.017,128.261a40.544,40.544,0,0,1-4.53-1.91,39.363,39.363,0,0,1-4.407-2.192,40.541,40.541,0,0,1,4.53,1.91A39.954,39.954,0,0,1,216.017,128.261Z" transform="translate(-198.425 -95.38)" fill="#263238"/>
      <path id="Path_672" data-name="Path 672" d="M194.495,119.406c0,.082-.5.094-1.093,0s-1.064-.2-1.052-.282.5-.094,1.087,0S194.495,119.323,194.495,119.406Z" transform="translate(-192.35 -93.276)" fill="#263238"/>
      <path id="Path_673" data-name="Path 673" d="M231.683,77.785c-.088,0-.153-.476-.153-1.069s.065-1.075.153-1.075.153.482.153,1.075S231.765,77.785,231.683,77.785Z" transform="translate(-208.508 -75.37)" fill="#263238"/>
      <path id="Path_674" data-name="Path 674" d="M283.338,93.41c.065.059-2.65,3.167-6.052,6.945s-6.211,6.8-6.287,6.74,2.65-3.161,6.052-6.945S283.279,93.357,283.338,93.41Z" transform="translate(-224.785 -82.698)" fill="#263238"/>
      <path id="Path_675" data-name="Path 675" d="M298.215,86.131c.059.059-.253.47-.7.917s-.852.752-.911.693.253-.47.7-.911S298.156,86.049,298.215,86.131Z" transform="translate(-235.343 -79.691)" fill="#263238"/>
      <path id="Path_676" data-name="Path 676" d="M301.9,111.74a5.361,5.361,0,0,1-.8.476c-.523.288-1.287.693-2.239,1.175-1.91.964-4.583,2.221-7.592,3.473s-5.788,2.25-7.821,2.938c-1.011.335-1.833.588-2.409.758a4.7,4.7,0,0,1-.9.229,5.556,5.556,0,0,1,.864-.341l2.35-.852c2.01-.723,4.765-1.763,7.774-3s5.682-2.474,7.639-3.384l2.28-1.081A6.346,6.346,0,0,1,301.9,111.74Z" transform="translate(-228.556 -90.258)" fill="#263238"/>
      <path id="Path_677" data-name="Path 677" d="M294.83,136.36a8,8,0,0,1-1.563.511c-.975.27-2.35.588-3.866.852s-2.938.411-3.931.482a7.556,7.556,0,0,1-1.639.029,10.874,10.874,0,0,1,1.622-.247c1-.123,2.38-.311,3.9-.588s2.885-.541,3.872-.752A8.871,8.871,0,0,1,294.83,136.36Z" transform="translate(-230.078 -100.412)" fill="#263238"/>
      <path id="Path_678" data-name="Path 678" d="M313.464,133.793a9.448,9.448,0,0,1-3.384,0A9.449,9.449,0,0,1,313.464,133.793Z" transform="translate(-240.904 -99.29)" fill="#263238"/>
    </g>
    <g id="freepik--Plant--inject-15" transform="translate(144.914 250.241)">
      <path id="Path_679" data-name="Path 679" d="M239.1,382a6.258,6.258,0,0,1,4.113,2.632,11.006,11.006,0,0,1,1.763,4.66c.535,3.2-.329,6.828-1.516,9.848-3.261-1.534-5-5.329-5.758-7.315-1.175-3.132-1.475-9.531,1.369-9.824" transform="translate(-232.047 -382)" fill="#1c47a1"/>
      <path id="Path_680" data-name="Path 680" d="M255.78,412.635a5.318,5.318,0,0,1-.123-5.347,7.051,7.051,0,0,1,4.336-3.326,2.985,2.985,0,0,1,2.509.176,2.28,2.28,0,0,1,.823,2.156,4.654,4.654,0,0,1-1.022,2.168c-1.7,2.2-3.749,4.007-6.522,4.172" transform="translate(-239.529 -390.977)" fill="#1c47a1"/>
      <path id="Path_681" data-name="Path 681" d="M254.71,425.179a2.466,2.466,0,0,1-.112-.67c-.041-.435-.1-1.069-.141-1.851a23.087,23.087,0,0,1,.37-6.111,11.582,11.582,0,0,1,2.779-5.447,7.5,7.5,0,0,1,1.445-1.175,1.915,1.915,0,0,1,.588-.306,15.018,15.018,0,0,0-1.868,1.663,12.033,12.033,0,0,0-2.609,5.347,26.188,26.188,0,0,0-.47,6.029A20.942,20.942,0,0,1,254.71,425.179Z" transform="translate(-239.283 -393.391)" fill="#263238"/>
      <path id="Path_682" data-name="Path 682" d="M242,390.29a7.049,7.049,0,0,1,.411,1.046c.241.682.588,1.669.975,2.9.8,2.456,1.857,5.876,2.938,9.666s1.951,7.257,2.55,9.772c.3,1.257.529,2.274.676,2.985a6.6,6.6,0,0,1,.2,1.1,6.217,6.217,0,0,1-.335-1.069c-.206-.764-.47-1.763-.787-2.938-.664-2.5-1.586-5.946-2.656-9.736s-2.08-7.216-2.82-9.689l-.864-2.938a6.843,6.843,0,0,1-.288-1.1Z" transform="translate(-234.17 -385.419)" fill="#263238"/>
      <path id="Path_683" data-name="Path 683" d="M240.582,418.984a12.468,12.468,0,0,0-8.908-7.051c-.987-.188-2.2-.165-2.756.682s-.076,1.974.517,2.785a10.641,10.641,0,0,0,11.164,3.9" transform="translate(-228.674 -394.305)" fill="#1c47a1"/>
      <path id="Path_684" data-name="Path 684" d="M235.62,416.789a2.257,2.257,0,0,1,.652.07,5.21,5.21,0,0,1,.746.159,9.036,9.036,0,0,1,.975.288,13.148,13.148,0,0,1,2.4,1.122,13.843,13.843,0,0,1,4.63,4.483,13.068,13.068,0,0,1,1.175,2.35,8.432,8.432,0,0,1,.323.964,5.126,5.126,0,0,1,.188.746,2.045,2.045,0,0,1,.082.646c-.065,0-.247-.9-.828-2.256a14.688,14.688,0,0,0-1.24-2.274,15.942,15.942,0,0,0-2.027-2.433A16.206,16.206,0,0,0,240.2,418.7a14.945,14.945,0,0,0-2.315-1.175C236.525,417.012,235.608,416.859,235.62,416.789Z" transform="translate(-231.539 -396.347)" fill="#263238"/>
    </g>
  </g>
</svg>
