<svg xmlns="http://www.w3.org/2000/svg" width="203.767" height="217.013" viewBox="0 0 203.767 217.013">
  <g id="Home_screen-pana" data-name="Home screen-pana" transform="translate(-36.23 -25.2)">
    <g id="freepik--background-complete--inject-35" transform="translate(36.23 25.2)">
      <rect id="Rectangle_98" data-name="Rectangle 98" width="46.088" height="87.119" transform="translate(15.721 125.128)" fill="#e0e0e0"/>
      <rect id="Rectangle_99" data-name="Rectangle 99" width="46.088" height="87.119" transform="translate(2.046 125.128)" fill="#f5f5f5"/>
      <path id="Path_303" data-name="Path 303" d="M86.623,309.419H47.06V295.61H86.623Zm-39.076-.478H86.136V296.093H47.548Z" transform="translate(-41.883 -166.356)" fill="#e0e0e0"/>
      <path id="Path_304" data-name="Path 304" d="M73.3,296.11H88.314v.387a2.366,2.366,0,0,1-2.366,2.366H75.666A2.366,2.366,0,0,1,73.3,296.5Z" transform="translate(-55.581 -166.617)" fill="#ebebeb"/>
      <path id="Path_305" data-name="Path 305" d="M86.623,346.114H47.06V332.3H86.623Zm-39.076-.478H86.136V332.788H47.548Z" transform="translate(-41.883 -185.509)" fill="#e0e0e0"/>
      <path id="Path_306" data-name="Path 306" d="M73.3,332.81H88.314v.387a2.366,2.366,0,0,1-2.366,2.366H75.666A2.366,2.366,0,0,1,73.3,333.2Z" transform="translate(-55.581 -185.775)" fill="#ebebeb"/>
      <path id="Path_307" data-name="Path 307" d="M86.623,382.814H47.06V369H86.623Zm-39.076-.478H86.136V369.478H47.548Z" transform="translate(-41.883 -204.667)" fill="#e0e0e0"/>
      <path id="Path_308" data-name="Path 308" d="M73.3,369.51H88.314v.387a2.366,2.366,0,0,1-2.366,2.366H75.666A2.366,2.366,0,0,1,73.3,369.9Z" transform="translate(-55.581 -204.933)" fill="#ebebeb"/>
      <path id="Path_309" data-name="Path 309" d="M86.623,419.514H47.06V405.7H86.623Zm-39.076-.478H86.136V406.188H47.548Z" transform="translate(-41.883 -223.824)" fill="#e0e0e0"/>
      <path id="Path_310" data-name="Path 310" d="M73.3,406.2H88.314v.378a2.366,2.366,0,0,1-2.366,2.39H75.666a2.366,2.366,0,0,1-2.366-2.39V406.2Z" transform="translate(-55.581 -224.08)" fill="#ebebeb"/>
      <rect id="Rectangle_100" data-name="Rectangle 100" width="50.06" height="4.34" transform="translate(0 121.869)" fill="#ebebeb"/>
      <rect id="Rectangle_101" data-name="Rectangle 101" width="15.052" height="4.34" transform="translate(50.06 121.869)" fill="#e0e0e0"/>
      <rect id="Rectangle_102" data-name="Rectangle 102" width="2.423" height="4.45" transform="translate(2.046 212.247)" fill="#e0e0e0"/>
      <rect id="Rectangle_103" data-name="Rectangle 103" width="2.423" height="4.45" transform="translate(17.007 212.247)" fill="#e0e0e0"/>
      <rect id="Rectangle_104" data-name="Rectangle 104" width="2.423" height="4.45" transform="translate(44.343 212.247)" fill="#e0e0e0"/>
      <rect id="Rectangle_105" data-name="Rectangle 105" width="2.423" height="4.45" transform="translate(58.009 212.247)" fill="#e0e0e0"/>
      <path id="Path_311" data-name="Path 311" d="M129.169,255.92l4.665,11.935-2.9-.014-2.323-7.332Z" transform="translate(-84.453 -145.638)" fill="#e0e0e0"/>
      <path id="Path_312" data-name="Path 312" d="M94.7,232.85,93.09,255.717l16.558.344,1.864-23.211Z" transform="translate(-65.911 -133.595)" fill="#ebebeb"/>
      <path id="Path_313" data-name="Path 313" d="M98.454,236.58,97.12,255.614l12.308.578,1.721-19.722Z" transform="translate(-68.015 -135.485)" fill="#fafafa"/>
      <path id="Path_314" data-name="Path 314" d="M104.469,242.33l-1,13.379h6.792l1.2-13.379Z" transform="translate(-71.33 -138.544)" fill="#e0e0e0"/>
      <rect id="Rectangle_106" data-name="Rectangle 106" width="61.795" height="111.013" transform="translate(135.95 10.54)" fill="#ebebeb"/>
      <rect id="Rectangle_107" data-name="Rectangle 107" width="56.221" height="104.484" transform="translate(138.417 13.761)" fill="#fafafa"/>
      <path id="Path_315" data-name="Path 315" d="M452.545,157.206l-2.615-1V43.31h2.615Z" transform="translate(-252.185 -34.654)" fill="#e0e0e0"/>
      <rect id="Rectangle_108" data-name="Rectangle 108" width="57.44" height="1.114" transform="translate(138.417 43.817)" fill="#e0e0e0"/>
      <rect id="Rectangle_109" data-name="Rectangle 109" width="57.44" height="1.114" transform="translate(138.417 68.702)" fill="#e0e0e0"/>
      <rect id="Rectangle_110" data-name="Rectangle 110" width="57.44" height="1.114" transform="translate(138.417 93.581)" fill="#e0e0e0"/>
      <rect id="Rectangle_111" data-name="Rectangle 111" width="76.832" height="2.839" transform="translate(165.108 121.209) rotate(-90)" fill="#e0e0e0"/>
      <rect id="Rectangle_112" data-name="Rectangle 112" width="1.286" height="30.615" transform="translate(149.243 13.761)" fill="#e0e0e0"/>
      <rect id="Rectangle_113" data-name="Rectangle 113" width="1.286" height="30.615" transform="translate(160.342 13.761)" fill="#e0e0e0"/>
      <rect id="Rectangle_114" data-name="Rectangle 114" width="1.286" height="30.615" transform="translate(171.441 13.761)" fill="#e0e0e0"/>
      <rect id="Rectangle_115" data-name="Rectangle 115" width="1.286" height="30.615" transform="translate(182.54 13.761)" fill="#e0e0e0"/>
      <rect id="Rectangle_116" data-name="Rectangle 116" width="2.615" height="113.58" transform="translate(133.336 8.656)" fill="#e0e0e0"/>
      <rect id="Rectangle_117" data-name="Rectangle 117" width="67.024" height="3.03" transform="translate(133.336 7.514)" fill="#e0e0e0"/>
      <rect id="Rectangle_118" data-name="Rectangle 118" width="70.647" height="2.82" transform="translate(131.481 122.93)" fill="#e0e0e0"/>
      <path id="Path_316" data-name="Path 316" d="M377.564,279.5l4.383,1.377H311.3l4.469-1.377Z" transform="translate(-179.819 -157.947)" fill="#e0e0e0"/>
      <path id="Path_317" data-name="Path 317" d="M109.861,49.8a14.081,14.081,0,0,1,3.456-1.5l.712-3.413,5.784-.1.832,3.4a14.02,14.02,0,0,1,3.508,1.377l2.925-1.912,4.159,4.015-1.812,2.987a14.4,14.4,0,0,1,1.506,3.461l3.422.712.1,5.784-3.384.832a14.37,14.37,0,0,1-1.381,3.508l1.912,2.925-4.015,4.159L124.6,74.225a14.115,14.115,0,0,1-3.461,1.5l-.712,3.427-5.784.1-.832-3.4a14.163,14.163,0,0,1-3.508-1.377L107.38,76.39l-4.163-4.015,1.812-2.987a14.192,14.192,0,0,1-1.51-3.465L100.1,65.21l-.1-5.793,3.4-.832a14.106,14.106,0,0,1,1.381-3.508l-1.912-2.921,4.015-4.163,2.992,1.812Zm3.078,7.705a6.214,6.214,0,1,0,8.776-.153,6.214,6.214,0,0,0-8.776.153Z" transform="translate(-69.519 -35.426)" fill="#e0e0e0"/>
      <path id="Path_318" data-name="Path 318" d="M125.054,69.209a4.651,4.651,0,0,1,1.157-1.013,6.341,6.341,0,0,1,6.8,0,6.349,6.349,0,0,1-2.433,11.582,5.846,5.846,0,0,1-1.912.033,5.975,5.975,0,0,1-1.735-.483,6.343,6.343,0,0,1-2.586-2.137,6.243,6.243,0,0,1-1.071-2.715,6.137,6.137,0,0,1,.813-4.077,4.665,4.665,0,0,1,.956-1.19c.038.029-.373.406-.851,1.257a6.176,6.176,0,0,0-.684,3.972,6.042,6.042,0,0,0,3.542,4.589,5.922,5.922,0,0,0,3.475.44,6.008,6.008,0,0,0,4.962-5.138,6.07,6.07,0,0,0-.545-3.461,6.157,6.157,0,0,0-2.094-2.39,6.071,6.071,0,0,0-2.619-.956,6.214,6.214,0,0,0-3.948.822A12.908,12.908,0,0,0,125.054,69.209Z" transform="translate(-81.633 -47.126)" fill="#e0e0e0"/>
      <path id="Path_319" data-name="Path 319" d="M109.71,49.663l-.191-.1-.574-.335L106.694,47.9h.072l-4,4.187v-.115l1.912,2.916.033.053-.029.057a14,14,0,0,0-1.357,3.485v.067h-.067l-3.394.841.1-.124c.033,1.821.076,3.752.115,5.784l-.11-.139,3.422.707h.086l.024.086a14.177,14.177,0,0,0,1.5,3.418l.048.081L105,69.28,103.2,72.3v-.2l4.168,4.01h-.206l2.921-1.912.086-.057.086.053a14.072,14.072,0,0,0,3.461,1.334l.1.029.024.1c.263,1.061.55,2.223.836,3.394l-.172-.134,5.784-.1-.172.139.712-3.422v-.105l.1-.029a14.3,14.3,0,0,0,3.413-1.482h0l.091-.053.091.053,2.987,1.812-.22.029,4.02-4.159v.22L129.4,68.9l-.057-.091.053-.091a14.143,14.143,0,0,0,1.367-3.465l.024-.1h.1l3.394-.832-.129.167q-.043-2.964-.1-5.779l.134.153-3.437-.727h-.1l-.024-.091a14.173,14.173,0,0,0-1.482-3.422l-.048-.081.048-.076c.621-1.028,1.224-2.017,1.816-2.987v.182l-4.13-4.039H127l-2.925,1.912-.067.043-.067-.043a13.967,13.967,0,0,0-3.475-1.381H120.4v-.072c-.3-1.233-.564-2.347-.817-3.394l.1.076-5.784.076.076-.062c-.292,1.367-.531,2.486-.731,3.418v.033h-.033a14.76,14.76,0,0,0-2.643,1.018l-.621.325-.21.105.153-.143c.129-.081.33-.206.607-.354a13.762,13.762,0,0,1,2.658-1.08l-.043.043c.191-.956.416-2.06.693-3.427v-.062h.067l5.784-.129h.081V44.6c.263,1.052.54,2.161.846,3.394l-.086-.086a14.34,14.34,0,0,1,3.542,1.381h-.129l2.916-1.912.091-.062.076.076,4.173,4.01.081.081-.057.1c-.588.956-1.19,1.965-1.807,2.992v-.158a14.421,14.421,0,0,1,1.539,3.5L130.8,57.8l3.427.707.124.029v.129q.048,2.825.105,5.784v.134l-.134.033-3.394.836.124-.124a14.243,14.243,0,0,1-1.391,3.551V68.7l1.912,2.921.076.119-.1.1-4.015,4.163-.1.1-.12-.072-2.987-1.812h.177a14.287,14.287,0,0,1-3.5,1.52l.129-.134c-.249,1.176-.478,2.342-.717,3.422l-.014.134h-.139l-5.784.1h-.139l-.033-.139c-.287-1.171-.569-2.333-.832-3.394l.129.124a14.225,14.225,0,0,1-3.551-1.4h.177l-2.925,1.912-.115.076-.091-.1-4.159-4.02-.091-.091.067-.105,1.816-2.987V69.3a14.263,14.263,0,0,1-1.515-3.494l.11.1-3.418-.717h-.11v-.124q-.043-3.045-.086-5.784v-.105l.1-.024,3.384-.822-.086.086a14.163,14.163,0,0,1,1.405-3.532v.11l-1.912-2.93L102.569,52l.048-.053,4.044-4.135.029-.033h.038l2.208,1.391.564.363A1.539,1.539,0,0,1,109.71,49.663Z" transform="translate(-69.372 -35.285)" fill="#e0e0e0"/>
      <path id="Path_320" data-name="Path 320" d="M188.628,28.351a8.336,8.336,0,0,1,2.07-.9l.425-2.051,3.465-.062.478,2.031a8.489,8.489,0,0,1,2.122.827l1.749-1.147,2.49,2.39-1.085,1.807a8.6,8.6,0,0,1,.9,2.055l2.046.425.062,3.461-2.031.5a8.447,8.447,0,0,1-.827,2.1l1.147,1.749-2.39,2.49-1.788-1.085a8.294,8.294,0,0,1-2.074.9l-.425,2.051-3.461.062-.478-2.031a8.6,8.6,0,0,1-2.1-.827l-1.769,1.162-2.49-2.39,1.056-1.807a8.435,8.435,0,0,1-.9-2.07l-2.051-.425-.057-3.461,2.031-.478a8.447,8.447,0,0,1,.827-2.1l-1.147-1.749,2.39-2.49,1.788,1.085Zm1.869,4.613a3.709,3.709,0,1,0,2.609-1.141A3.714,3.714,0,0,0,190.5,32.964Z" transform="translate(-112.694 -25.273)" fill="#f5f5f5"/>
      <path id="Path_321" data-name="Path 321" d="M197.74,39.965a2.763,2.763,0,0,1,.669-.617,3.69,3.69,0,0,1,2.423-.574,3.738,3.738,0,0,1,1.644.574,3.824,3.824,0,0,1,1.334,1.5,3.652,3.652,0,0,1,.339,1.042,3.517,3.517,0,0,1,0,1.142,3.824,3.824,0,0,1-3.136,3.25,3.671,3.671,0,0,1-1.142,0,3.542,3.542,0,0,1-1.056-.3,3.8,3.8,0,0,1-2.189-2.906,3.719,3.719,0,0,1,.478-2.438,2.725,2.725,0,0,1,.636-.674,8.66,8.66,0,0,0-.511.75,3.719,3.719,0,0,0-.406,2.39,3.571,3.571,0,0,0,.636,1.544,3.633,3.633,0,0,0,1.482,1.2,3.374,3.374,0,0,0,1,.282,3.451,3.451,0,0,0,1.085-.024,3.614,3.614,0,0,0,2.93-3.078,3.454,3.454,0,0,0-.315-2.074,3.628,3.628,0,0,0-2.82-2.022,3.709,3.709,0,0,0-2.361.478q-.372.259-.717.554Z" transform="translate(-119.937 -32.274)" fill="#f5f5f5"/>
      <path id="Path_322" data-name="Path 322" d="M188.56,28.278l-.115-.062-.344-.2-1.348-.8h.043l-2.39,2.5V29.66l1.157,1.745v.062a8.488,8.488,0,0,0-.813,2.089v.038h-.043l-2.031.478.057-.076q.038,1.635.072,3.465l-.067-.081,2.051.421h.053v.053a8.2,8.2,0,0,0,.9,2.07l.029.048-.029.048c-.339.554-.707,1.166-1.085,1.792v-.12l2.5,2.39h-.124l1.749-1.147.048-.033.057.029a8.537,8.537,0,0,0,2.06.817h.062V43.8c.153.641.325,1.334.478,2.036l-.1-.081,3.461-.062-.1.086c.134-.65.277-1.348.425-2.051V43.67h.062a8.331,8.331,0,0,0,2.089-.88h0l.057-.033.053.033,1.788,1.085h-.129l2.39-2.49v.129l-1.142-1.749-.033-.053.029-.057a8.3,8.3,0,0,0,.817-2.074v-.057h.062l2.031-.478-.076.1c0-1.185-.038-2.337-.057-3.465l.076.1-2.046-.43h-.057v-.057a8.446,8.446,0,0,0-.889-2.046l-.029-.048.029-.048,1.09-1.788v.11l-2.486-2.39h.1l-1.754,1.142-.038.024-.038-.024a8.426,8.426,0,0,0-2.084-.822h-.038v-.038c-.182-.741-.339-1.405-.478-2.036l.062.048-3.461.048.043-.038c-.177.817-.32,1.487-.44,2.046h0a8.694,8.694,0,0,0-1.582.612l-.373.2-.124.062a.569.569,0,0,1,.115-.081c.081-.048.2-.119.368-.21a8.006,8.006,0,0,1,1.577-.641h-.024c.115-.559.249-1.233.416-2.051v-.038h.038l3.461-.076h.053v.048c.158.626.325,1.291.507,2.031l-.053-.053a8.69,8.69,0,0,1,2.122.827H197.1l1.745-1.152.053-.033.048.043,2.5,2.39.053.048-.038.062-1.08,1.792v-.1a8.547,8.547,0,0,1,.894,2.122l-.072-.067,2.051.425h.076v.081c0,1.123.043,2.28.062,3.461v.081H203.3l-2.031.478.076-.072a8.676,8.676,0,0,1-.836,2.127v-.11l1.147,1.749.048.072-.057.057-2.39,2.5-.057.057-.076-.043-1.788-1.085h.11a8.8,8.8,0,0,1-2.094.908l.072-.081c-.143.7-.292,1.4-.425,2.051V45.9h-.081l-3.465.062h-.081v-.081c-.172-.7-.344-1.4-.478-2.031l.076.072a8.6,8.6,0,0,1-2.127-.836h.105L187.2,44.229l-.067.043-.057-.053-2.49-2.39-.053-.053.038-.067,1.018-1.788v.1a8.455,8.455,0,0,1-.908-2.094l.067.062-2.046-.43h-.067v-.067c0-1.214-.038-2.39-.053-3.461v-.062h.062l2.031-.478-.048.053a8.365,8.365,0,0,1,.837-2.113v.062c-.411-.631-.793-1.224-1.142-1.754L184.3,29.7l.033-.033,2.419-2.476h0l1.357.779.339.215a.955.955,0,0,1,.115.091Z" transform="translate(-112.626 -25.2)" fill="#f5f5f5"/>
      <rect id="Rectangle_119" data-name="Rectangle 119" width="39.128" height="40.792" transform="translate(4.699 53.893)" fill="#e0e0e0"/>
      <rect id="Rectangle_120" data-name="Rectangle 120" width="39.128" height="40.792" transform="translate(2.051 53.893)" fill="#ebebeb"/>
      <rect id="Rectangle_121" data-name="Rectangle 121" width="28.613" height="29.822" transform="translate(7.308 59.376)" fill="#fafafa"/>
      <path id="Path_323" data-name="Path 323" d="M45.82,212.23a5.41,5.41,0,0,1-.712.813c-.478.478-1.1,1.128-1.826,1.835s-1.377,1.343-1.864,1.8a5.258,5.258,0,0,1-.817.7,5.257,5.257,0,0,1,.712-.808c.478-.478,1.1-1.133,1.826-1.845s1.381-1.343,1.869-1.8A5.329,5.329,0,0,1,45.82,212.23Z" transform="translate(-38.511 -122.831)" fill="#e0e0e0"/>
      <path id="Path_324" data-name="Path 324" d="M111.38,212.08a5.258,5.258,0,0,1,.808.712c.478.478,1.133,1.1,1.84,1.826s1.343,1.377,1.8,1.864a5.256,5.256,0,0,1,.7.817,5.257,5.257,0,0,1-.808-.712c-.478-.478-1.133-1.1-1.845-1.826s-1.343-1.381-1.8-1.869A5.329,5.329,0,0,1,111.38,212.08Z" transform="translate(-75.459 -122.753)" fill="#e0e0e0"/>
      <path id="Path_325" data-name="Path 325" d="M111.22,143.973a5.144,5.144,0,0,1,.712-.813c.478-.478,1.1-1.128,1.821-1.84s1.381-1.343,1.869-1.792a4.933,4.933,0,0,1,.817-.7,5.55,5.55,0,0,1-.712.808c-.478.478-1.1,1.133-1.826,1.84s-1.386,1.348-1.869,1.8A5.587,5.587,0,0,1,111.22,143.973Z" transform="translate(-75.375 -84.516)" fill="#e0e0e0"/>
      <path id="Path_326" data-name="Path 326" d="M45.743,144.04a5.306,5.306,0,0,1-.813-.717c-.478-.478-1.128-1.1-1.835-1.821s-1.343-1.381-1.8-1.864a5.837,5.837,0,0,1-.7-.817,4.953,4.953,0,0,1,.808.712c.478.478,1.133,1.1,1.845,1.826s1.362,1.372,1.792,1.85a4.971,4.971,0,0,1,.7.832Z" transform="translate(-38.511 -84.511)" fill="#e0e0e0"/>
      <path id="Path_327" data-name="Path 327" d="M80.03,179.038V170.8c0-5.224-.029-12.667-.048-21.581l.1.1H51.546l.11-.11v29.822l-.1-.091,20.668.048,5.8.024H72.287l-20.726.048H51.47V149.03H80.2v.1c0,8.938-.033,16.4-.048,21.639v8.054C80.154,178.919,80.03,179.038,80.03,179.038Z" transform="translate(-44.185 -89.84)" fill="#e0e0e0"/>
      <path id="Path_328" data-name="Path 328" d="M67.307,175.49s-.631,7.385,7.385,7.385C74.692,178.932,71.456,175.82,67.307,175.49Z" transform="translate(-52.447 -103.653)" fill="#ebebeb"/>
      <path id="Path_329" data-name="Path 329" d="M89.87,175.488s-7.38-.612-7.38,7.409C86.429,182.9,89.54,179.618,89.87,175.488Z" transform="translate(-60.378 -103.646)" fill="#ebebeb"/>
      <path id="Path_330" data-name="Path 330" d="M79.176,167s-6.032,5.416.33,11.424C82.479,175.307,82.226,170.389,79.176,167Z" transform="translate(-57.298 -99.221)" fill="#e0e0e0"/>
    </g>
    <g id="freepik--Plant--inject-35" transform="translate(180.684 131.089)">
      <path id="Path_331" data-name="Path 331" d="M362.96,394.2c-8.126-4.4-17.3-12.428-20.86-21.51a48.555,48.555,0,0,1,20.86,21.51" transform="translate(-340.351 -312.482)" fill="#1c47a1"/>
      <path id="Path_332" data-name="Path 332" d="M361.844,365.64c-8.126-4.407-17.3-12.428-20.864-21.51a48.539,48.539,0,0,1,20.864,21.51" transform="translate(-339.766 -297.574)" fill="#1c47a1"/>
      <path id="Path_333" data-name="Path 333" d="M359.3,337.71c-8.126-4.4-17.3-12.428-20.864-21.51A48.613,48.613,0,0,1,359.3,337.71" transform="translate(-338.44 -282.994)" fill="#1c47a1"/>
      <path id="Path_334" data-name="Path 334" d="M358.524,305.378c-7.557-5.506-15.688-14.732-18.164-24.258a50.2,50.2,0,0,1,18.164,24.258" transform="translate(-339.442 -264.682)" fill="#1c47a1"/>
      <path id="Path_335" data-name="Path 335" d="M364.133,276.609c-5.115-8.178-9.479-20.047-8.48-29.879a53.832,53.832,0,0,1,8.48,29.879" transform="translate(-347.351 -246.73)" fill="#1c47a1"/>
      <path id="Path_336" data-name="Path 336" d="M376,287.354c2.151-10.205,7.39-22.8,14.932-29.894A63.329,63.329,0,0,1,376,287.354" transform="translate(-358.047 -252.331)" fill="#1c47a1"/>
      <path id="Path_337" data-name="Path 337" d="M379.49,311.586c3.078-10.444,9.56-23.1,18.011-29.836a65.762,65.762,0,0,1-18.011,29.836" transform="translate(-359.868 -265.011)" fill="#1c47a1"/>
      <path id="Path_338" data-name="Path 338" d="M383.36,341c3.083-10.439,9.56-23.1,18.015-29.831A65.729,65.729,0,0,1,383.36,341" transform="translate(-361.889 -280.368)" fill="#1c47a1"/>
      <path id="Path_339" data-name="Path 339" d="M385.31,376.851c3.083-10.444,9.56-23.1,18.015-29.831a65.781,65.781,0,0,1-18.015,29.831" transform="translate(-362.907 -299.082)" fill="#1c47a1"/>
      <path id="Path_340" data-name="Path 340" d="M373.12,304.94a1.119,1.119,0,0,1,.053.163c.029.11.067.292.115.478l.416,1.912c.358,1.644.832,4.039,1.362,7s1.109,6.51,1.668,10.458,1.061,8.3,1.487,12.877.7,8.958.884,12.934.258,7.571.268,10.587,0,5.449-.062,7.136c-.024.822-.043,1.472-.062,1.941a3.056,3.056,0,0,1-.024.5.6.6,0,0,1,0,.172.791.791,0,0,1,0-.172v-2.443c0-1.687,0-4.125-.043-7.136s-.153-6.591-.339-10.568-.478-8.346-.908-12.906-.956-8.919-1.463-12.868-1.08-7.485-1.592-10.454-.956-5.368-1.262-7.022c-.148-.808-.268-1.434-.349-1.912l-.086-.478A1.185,1.185,0,0,1,373.12,304.94Z" transform="translate(-356.543 -277.116)" fill="#263238"/>
      <g id="Group_45" data-name="Group 45" transform="translate(1.749 60.208)" opacity="0.3">
        <path id="Path_341" data-name="Path 341" d="M362.96,394.2c-8.126-4.4-17.3-12.428-20.86-21.51a48.555,48.555,0,0,1,20.86,21.51" transform="translate(-342.1 -372.69)"/>
      </g>
      <g id="Group_46" data-name="Group 46" transform="translate(1.214 46.556)" opacity="0.3">
        <path id="Path_342" data-name="Path 342" d="M361.844,365.64c-8.126-4.407-17.3-12.428-20.864-21.51a48.539,48.539,0,0,1,20.864,21.51" transform="translate(-340.98 -344.13)"/>
      </g>
      <g id="Group_47" data-name="Group 47" transform="translate(0 33.206)" opacity="0.3">
        <path id="Path_343" data-name="Path 343" d="M359.3,337.71c-8.126-4.4-17.3-12.428-20.864-21.51A48.613,48.613,0,0,1,359.3,337.71" transform="translate(-338.44 -316.2)"/>
      </g>
      <g id="Group_48" data-name="Group 48" transform="translate(0.918 16.438)" opacity="0.3">
        <path id="Path_344" data-name="Path 344" d="M358.524,305.378c-7.557-5.506-15.688-14.732-18.164-24.258a50.2,50.2,0,0,1,18.164,24.258" transform="translate(-340.36 -281.12)"/>
      </g>
      <g id="Group_49" data-name="Group 49" transform="translate(8.159)" opacity="0.3">
        <path id="Path_345" data-name="Path 345" d="M364.133,276.609c-5.115-8.178-9.479-20.047-8.48-29.879a53.832,53.832,0,0,1,8.48,29.879" transform="translate(-355.51 -246.73)"/>
      </g>
      <g id="Group_50" data-name="Group 50" transform="translate(17.953 5.129)" opacity="0.3">
        <path id="Path_346" data-name="Path 346" d="M376,287.354c2.151-10.205,7.39-22.8,14.932-29.894A63.329,63.329,0,0,1,376,287.354" transform="translate(-376 -257.46)"/>
      </g>
      <g id="Group_51" data-name="Group 51" transform="translate(19.622 16.739)" opacity="0.3">
        <path id="Path_347" data-name="Path 347" d="M379.49,311.586c3.078-10.444,9.56-23.1,18.011-29.836a65.762,65.762,0,0,1-18.011,29.836" transform="translate(-379.49 -281.75)"/>
      </g>
      <g id="Group_52" data-name="Group 52" transform="translate(21.471 30.802)" opacity="0.3">
        <path id="Path_348" data-name="Path 348" d="M383.36,341c3.083-10.439,9.56-23.1,18.015-29.831A65.729,65.729,0,0,1,383.36,341" transform="translate(-383.36 -311.17)"/>
      </g>
      <g id="Group_53" data-name="Group 53" transform="translate(22.403 47.938)" opacity="0.3">
        <path id="Path_349" data-name="Path 349" d="M385.31,376.851c3.083-10.444,9.56-23.1,18.015-29.831a65.781,65.781,0,0,1-18.015,29.831" transform="translate(-385.31 -347.02)"/>
      </g>
      <path id="Path_350" data-name="Path 350" d="M379.667,396.66c-4.957-6.544-9.56-16.228-9.507-24.54a46,46,0,0,1,9.507,24.54" transform="translate(-354.998 -312.185)" fill="#1c47a1"/>
      <path id="Path_351" data-name="Path 351" d="M387.687,374.52c-4.957-6.544-9.56-16.228-9.507-24.54a46.036,46.036,0,0,1,9.507,24.54" transform="translate(-359.184 -300.627)" fill="#1c47a1"/>
      <path id="Path_352" data-name="Path 352" d="M394.392,352.31c-4.957-6.544-9.56-16.228-9.512-24.54a46.04,46.04,0,0,1,9.512,24.54" transform="translate(-362.682 -289.034)" fill="#1c47a1"/>
      <path id="Path_353" data-name="Path 353" d="M403.643,327.463c-4.154-7.17-7.6-17.356-6.544-25.553a46.312,46.312,0,0,1,6.544,25.553" transform="translate(-368.96 -275.534)" fill="#1c47a1"/>
      <path id="Path_354" data-name="Path 354" d="M413.448,307.867c-1.434-8.221-1.128-18.952,2.705-26.027a45.233,45.233,0,0,1-2.705,26.027" transform="translate(-377.182 -265.058)" fill="#1c47a1"/>
      <path id="Path_355" data-name="Path 355" d="M412.84,327.04c4.856-6.9,12.829-14.416,20.893-16.84a46.217,46.217,0,0,1-20.893,16.84" transform="translate(-377.277 -279.862)" fill="#1c47a1"/>
      <path id="Path_356" data-name="Path 356" d="M408.06,348.132c5.636-6.721,14.612-13.785,23.259-15.582a48.1,48.1,0,0,1-23.259,15.582" transform="translate(-374.782 -291.529)" fill="#1c47a1"/>
      <path id="Path_357" data-name="Path 357" d="M401.92,371.977c5.636-6.721,14.617-13.79,23.264-15.587a48.138,48.138,0,0,1-23.264,15.587" transform="translate(-371.577 -303.974)" fill="#1c47a1"/>
      <path id="Path_358" data-name="Path 358" d="M392.28,399.977c5.64-6.725,14.617-13.79,23.264-15.587a48.129,48.129,0,0,1-23.264,15.587" transform="translate(-366.545 -318.59)" fill="#1c47a1"/>
      <path id="Path_359" data-name="Path 359" d="M398,332.85v.143c0,.091-.033.249-.057.416-.067.387-.153.913-.263,1.582-.229,1.377-.6,3.346-1.1,5.8-1,4.89-2.586,11.606-4.78,18.9-1.1,3.647-2.247,7.093-3.346,10.205s-2.161,5.884-3.1,8.193-1.716,4.178-2.29,5.449l-.66,1.487-.177.378c-.043.086-.067.129-.072.124a.48.48,0,0,1,.043-.134c.038-.105.091-.234.148-.392.148-.363.354-.86.607-1.487.535-1.286,1.291-3.159,2.2-5.478s1.936-5.1,3.035-8.212,2.208-6.558,3.308-10.2c2.189-7.285,3.824-13.981,4.861-18.852.531-2.438.956-4.412,1.2-5.779.134-.664.239-1.19.32-1.577.033-.163.067-.3.091-.406A.524.524,0,0,1,398,332.85Z" transform="translate(-361.257 -291.685)" fill="#263238"/>
      <path id="Path_360" data-name="Path 360" d="M383.738,452.995H366.32l-3.25-24h24.009Z" transform="translate(-351.297 -341.871)" fill="#455a64"/>
      <rect id="Rectangle_122" data-name="Rectangle 122" width="28.326" height="3.733" transform="translate(9.617 86.875)" fill="#455a64"/>
      <path id="Path_361" data-name="Path 361" d="M387.231,436.284c0,.067-6.266.124-14,.124s-14-.057-14-.124,6.271-.124,14-.124S387.231,436.213,387.231,436.284Z" transform="translate(-349.293 -345.614)" fill="#263238"/>
    </g>
    <g id="freepik--Device--inject-35" transform="translate(89.507 42.522)">
      <rect id="Rectangle_123" data-name="Rectangle 123" width="100.684" height="195.486" rx="25.34" transform="translate(0.688)" fill="#455a64"/>
      <rect id="Rectangle_124" data-name="Rectangle 124" width="192.317" height="97.51" rx="22.23" transform="translate(99.781 1.587) rotate(90)" fill="#263238"/>
      <path id="Path_362" data-name="Path 362" d="M238.1,75.457a1.118,1.118,0,1,1,0-2.237h14.4a1.118,1.118,0,1,1,0,2.237Z" transform="translate(-194.3 -62.302)" fill="#455a64"/>
      <path id="Path_363" data-name="Path 363" d="M221.948,75.457a1.118,1.118,0,1,1,1.119-1.118,1.119,1.119,0,0,1-1.119,1.118Z" transform="translate(-185.87 -62.302)" fill="#455a64"/>
      <path id="Path_364" data-name="Path 364" d="M230.568,75.457a1.118,1.118,0,1,1,1.119-1.118,1.119,1.119,0,0,1-1.119,1.118Z" transform="translate(-190.369 -62.302)" fill="#455a64"/>
      <path id="Path_365" data-name="Path 365" d="M284.508,75.457a1.118,1.118,0,1,1,1.118-1.118,1.119,1.119,0,0,1-1.118,1.118Z" transform="translate(-218.527 -62.302)" fill="#455a64"/>
      <path id="Path_366" data-name="Path 366" d="M275.889,75.457a1.118,1.118,0,1,1,1.118-1.118,1.118,1.118,0,0,1-1.118,1.118Z" transform="translate(-214.027 -62.302)" fill="#455a64"/>
      <path id="Path_367" data-name="Path 367" d="M237.782,67.553H221.457a2.745,2.745,0,0,0-2.654,1.866l-1.039,3.37a3.082,3.082,0,0,1-2.977,2.106H186.649a3.082,3.082,0,0,1-2.977-2.106l-1.039-3.37a2.753,2.753,0,0,0-2.659-1.879H167.3c-5.582,0-10.108,4.258-10.108,9.511v153.46a6.639,6.639,0,0,0,6.831,6.428h74.24a5.829,5.829,0,0,0,6-5.644V73.631A6.3,6.3,0,0,0,237.782,67.553Z" transform="translate(-149.856 -52.809)" fill="#fafafa"/>
      <path id="Path_368" data-name="Path 368" d="M243.432,70.776a10.123,10.123,0,0,0-7.37-3.217H220.929l-2.32,8.331H185.031l-2.325-8.341h-18.7a6.916,6.916,0,0,0-6.769,7.055V200.69l.266.033c8.713.985,17.151-4.713,21.925-12.351s6.434-16.911,7.278-25.964.945-18.274,2.99-27.14a61.473,61.473,0,0,1,24.764-36.643c6.067-4.13,12.841-7.079,18.642-11.63C238.2,82.97,242.579,77.239,243.432,70.776Z" transform="translate(-149.906 -52.819)" fill="#f5f5f5"/>
      <path id="Path_369" data-name="Path 369" d="M307.027,399.626V343.84A45.59,45.59,0,0,0,268.505,404h34.157a4.374,4.374,0,0,0,4.364-4.374Z" transform="translate(-214.091 -220.239)" fill="#f5f5f5"/>
      <path id="Path_370" data-name="Path 370" d="M.511,0H.66V22.9H.511A.511.511,0,0,1,0,22.384V.511A.511.511,0,0,1,.511,0Z" transform="translate(102.027 65.294) rotate(180)" fill="#455a64"/>
      <path id="Path_371" data-name="Path 371" d="M148.2,181.64h.177v14.512H148.2a.511.511,0,0,1-.511-.511V182.151A.511.511,0,0,1,148.2,181.64Z" transform="translate(-147.69 -125.394)" fill="#455a64"/>
      <path id="Path_372" data-name="Path 372" d="M148.2,142h.177v14.507H148.2a.511.511,0,0,1-.511-.511V142.507A.511.511,0,0,1,148.2,142Z" transform="translate(-147.69 -104.303)" fill="#455a64"/>
      <path id="Path_373" data-name="Path 373" d="M148.344,112.23h.139v6.744h-.139a.454.454,0,0,1-.454-.454v-5.841a.454.454,0,0,1,.454-.449Z" transform="translate(-147.794 -87.953)" fill="#455a64"/>
      <rect id="Rectangle_125" data-name="Rectangle 125" width="0.693" height="0.97" transform="translate(74.944 9.416)" fill="#263238"/>
      <rect id="Rectangle_126" data-name="Rectangle 126" width="0.693" height="1.401" transform="translate(76.072 8.986)" fill="#263238"/>
      <rect id="Rectangle_127" data-name="Rectangle 127" width="0.693" height="1.726" transform="translate(77.196 8.661)" fill="#263238"/>
      <rect id="Rectangle_128" data-name="Rectangle 128" width="0.693" height="2.352" transform="translate(78.324 8.035)" fill="#263238"/>
      <path id="Path_374" data-name="Path 374" d="M330.289,80.839h-3.47a.249.249,0,0,1-.249-.249V78.865a.249.249,0,0,1,.244-.249h3.475a.086.086,0,0,1,.048,0,.081.081,0,0,1,0,.048v.612h.373a.062.062,0,0,1,.067.062v.832a.062.062,0,0,1-.067.062h-.373V80.8a.062.062,0,0,1-.048.038Zm-.062-2.094h-3.413a.115.115,0,0,0-.115.119V80.59a.124.124,0,0,0,.12.124h3.408v-.569a.062.062,0,0,1,.062-.062h.373v-.707h-.373a.062.062,0,0,1-.062-.062Z" transform="translate(-241.067 -70.404)" fill="#263238"/>
      <path id="Path_375" data-name="Path 375" d="M327.43,80.885V79.48h2.964v1.405Z" transform="translate(-241.516 -70.857)" fill="#263238"/>
      <path id="Path_376" data-name="Path 376" d="M319.367,82.723a.253.253,0,0,0-.253-.253.249.249,0,0,0-.253.253.253.253,0,0,0,.507,0Z" transform="translate(-237.042 -72.418)" fill="#263238"/>
      <path id="Path_377" data-name="Path 377" d="M317.58,81.328l.32.32a.77.77,0,0,1,1.085,0l.325-.32a1.219,1.219,0,0,0-.865-.358A1.2,1.2,0,0,0,317.58,81.328Z" transform="translate(-236.374 -71.635)" fill="#263238"/>
      <path id="Path_378" data-name="Path 378" d="M317.887,79.46a1.912,1.912,0,0,0-1.377.569l.325.325a1.467,1.467,0,0,1,1.052-.44,1.487,1.487,0,0,1,1.052.44l.32-.325A1.912,1.912,0,0,0,317.887,79.46Z" transform="translate(-235.816 -70.847)" fill="#263238"/>
      <path id="Path_379" data-name="Path 379" d="M315.389,78.679l.32.325a2.232,2.232,0,0,1,3.16,0l.325-.325a2.691,2.691,0,0,0-3.824,0Z" transform="translate(-235.22 -70.023)" fill="#263238"/>
      <circle id="Ellipse_17" data-name="Ellipse 17" cx="12.28" cy="12.28" r="12.28" transform="translate(45.531 83.269) rotate(-67.87)" fill="#f5f5f5"/>
      <path id="Path_380" data-name="Path 380" d="M185.71,167.7c0-3.121,1.635-4.985,3.905-4.985s3.915,1.864,3.915,4.985-1.649,4.981-3.915,4.981S185.71,170.817,185.71,167.7Zm6.787,0c0-2.619-1.176-4.063-2.868-4.063s-2.868,1.434-2.868,4.063,1.176,4.058,2.868,4.058S192.5,170.31,192.5,167.7Z" transform="translate(-167.537 -115.298)" fill="#263238"/>
      <path id="Path_381" data-name="Path 381" d="M211.852,167.665c0,3.346-1.821,5.067-4.479,5.067a4.493,4.493,0,0,1-2.323-.531l.406-.813a3.441,3.441,0,0,0,1.912.478c2.113,0,3.47-1.357,3.47-4.02a5.432,5.432,0,0,0-.043-.8,3.113,3.113,0,0,1-2.992,1.683c-1.945,0-3.3-1.147-3.3-2.94a3.074,3.074,0,0,1,3.346-3.011C210.437,162.746,211.852,164.553,211.852,167.665Zm-1.386-1.945c0-1.075-.894-2.1-2.591-2.1a2.143,2.143,0,0,0-2.39,2.127c0,1.3.956,2.113,2.462,2.113a2.284,2.284,0,0,0,2.529-2.161Z" transform="translate(-177.345 -115.334)" fill="#263238"/>
      <path id="Path_382" data-name="Path 382" d="M223,168.625a.741.741,0,0,1,.746-.755.755.755,0,0,1,.755.755.77.77,0,0,1-.755.77.76.76,0,0,1-.746-.77Zm0,5.961a.741.741,0,0,1,.746-.755.755.755,0,0,1,.755.755.765.765,0,0,1-.755.77.755.755,0,0,1-.746-.77Z" transform="translate(-187.002 -118.028)" fill="#263238"/>
      <path id="Path_383" data-name="Path 383" d="M229.13,167.7c0-3.121,1.64-4.985,3.905-4.985s3.92,1.864,3.92,4.985-1.649,4.981-3.92,4.981S229.13,170.817,229.13,167.7Zm6.787,0c0-2.619-1.176-4.063-2.868-4.063s-2.868,1.434-2.868,4.063,1.176,4.058,2.868,4.058S235.917,170.31,235.917,167.7Z" transform="translate(-190.202 -115.298)" fill="#263238"/>
      <path id="Path_384" data-name="Path 384" d="M248.52,167.7c0-3.121,1.635-4.985,3.905-4.985s3.92,1.864,3.92,4.985-1.654,4.981-3.92,4.981S248.52,170.817,248.52,167.7Zm6.787,0c0-2.619-1.176-4.063-2.868-4.063s-2.868,1.434-2.868,4.063,1.176,4.058,2.868,4.058S255.307,170.31,255.307,167.7Z" transform="translate(-200.324 -115.298)" fill="#263238"/>
      <path id="Path_385" data-name="Path 385" d="M246.781,125.441H183.686a6.276,6.276,0,0,1-6.276-6.3h0a6.276,6.276,0,0,1,6.276-6.276h63.095a6.276,6.276,0,0,1,6.276,6.276h0a6.276,6.276,0,0,1-6.276,6.3Z" transform="translate(-163.204 -88.287)" fill="#e0e0e0"/>
      <path id="Path_386" data-name="Path 386" d="M316.5,125.83a2.39,2.39,0,1,1,2.39-2.39A2.39,2.39,0,0,1,316.5,125.83Zm0-4.3a.794.794,0,1,0,0-.024Z" transform="translate(-234.563 -92.557)" fill="#263238"/>
      <path id="Path_387" data-name="Path 387" d="M323.865,130.329a.22.22,0,0,1-.158-.062l-1.577-1.377a.239.239,0,0,1,.315-.359l1.577,1.377a.253.253,0,0,1-.158.421Z" transform="translate(-238.711 -96.435)" fill="#263238"/>
      <path id="Path_388" data-name="Path 388" d="M305.431,171.523a3.653,3.653,0,0,0,.507,0,2.624,2.624,0,0,0,1.3-.564,2.515,2.515,0,0,0,.65-.774,2.276,2.276,0,0,0,.21-.531,2.356,2.356,0,0,0,.072-.612,2.618,2.618,0,0,0-.1-.655,3.132,3.132,0,0,0-.277-.641,2.5,2.5,0,0,0-1.095-1h-.024v-.024a1.859,1.859,0,0,0-1-1.692,1.835,1.835,0,0,0-2.079.349l-.062.057v-.081a3.484,3.484,0,0,0-2.137-2.447,3.236,3.236,0,0,0-.865-.215,1.138,1.138,0,0,0-.22,0h-.22a3.164,3.164,0,0,0-1.955.779,3.785,3.785,0,0,0-.956,1.291,3.288,3.288,0,0,0-.282,1.491v.057h-.053a2.519,2.519,0,0,0-1.683.2,2.951,2.951,0,0,0-.664.449,2.8,2.8,0,0,0-.478.588,2.57,2.57,0,0,0-.263.66,2.251,2.251,0,0,0-.048.664,2.57,2.57,0,0,0,.349,1.118,2.7,2.7,0,0,0,1.171,1.042,3.416,3.416,0,0,0,.559.182h-.148a.955.955,0,0,1-.182-.048,1.913,1.913,0,0,1-.244-.086,2.7,2.7,0,0,1-1.233-1.114,2.668,2.668,0,0,1-.368-1.138,2.232,2.232,0,0,1,.315-1.362,2.667,2.667,0,0,1,.478-.607,3.145,3.145,0,0,1,.684-.478,2.581,2.581,0,0,1,1.735-.21l-.053.043a3.389,3.389,0,0,1,.287-1.53,3.885,3.885,0,0,1,.994-1.329,3.379,3.379,0,0,1,1.568-.75,3.42,3.42,0,0,1,.445-.053h.229a1.763,1.763,0,0,1,.225,0,3.374,3.374,0,0,1,.889.225,3.566,3.566,0,0,1,2.194,2.514l-.076-.024a1.888,1.888,0,0,1,3.226,1.434l-.024-.038a2.538,2.538,0,0,1,1.123,1.032,3.149,3.149,0,0,1,.282.66,2.757,2.757,0,0,1,.1.669,2.713,2.713,0,0,1-.076.631,2.414,2.414,0,0,1-.225.545,2.648,2.648,0,0,1-1.988,1.334,2.284,2.284,0,0,1-.382,0Z" transform="translate(-223.857 -115.209)" fill="#263238"/>
      <path id="Path_389" data-name="Path 389" d="M305.433,171.638h-.277a.245.245,0,0,1-.134-.411.272.272,0,0,1,.225-.067,3.19,3.19,0,0,0,.421,0,2.39,2.39,0,0,0,1.171-.516,2.284,2.284,0,0,0,.593-.7,2.179,2.179,0,0,0,.191-.478,2.145,2.145,0,0,0,.062-.545,2.561,2.561,0,0,0-.086-.588,2.91,2.91,0,0,0-.253-.588,2.294,2.294,0,0,0-.985-.9.277.277,0,0,1-.167-.239,1.563,1.563,0,0,0-2.672-1.19l-.057.062a.244.244,0,0,1-.239.057.234.234,0,0,1-.167-.177v-.086a3.241,3.241,0,0,0-1.988-2.27,3.04,3.04,0,0,0-.8-.2,1.748,1.748,0,0,0-.2,0h-.32a1.835,1.835,0,0,0-.277.038,3.035,3.035,0,0,0-1.434.684,3.489,3.489,0,0,0-.908,1.2,3.054,3.054,0,0,0-.263,1.381v.053a.253.253,0,0,1-.086.2.234.234,0,0,1-.21.048h-.053a2.256,2.256,0,0,0-1.52.182,2.744,2.744,0,0,0-.612.411,2.662,2.662,0,0,0-.435.535,2.389,2.389,0,0,0-.239.593,1.936,1.936,0,0,0-.038.583,2.328,2.328,0,0,0,.315,1.018,2.476,2.476,0,0,0,1.095,1.018,2.121,2.121,0,0,0,.478.153.268.268,0,0,1,.2.124.254.254,0,0,1,.029.186.277.277,0,0,1-.311.167h-.115a1.243,1.243,0,0,1-.22-.057h-.057a1.05,1.05,0,0,1-.21-.081,2.9,2.9,0,0,1-1.334-1.2,2.868,2.868,0,0,1-.4-1.238,2.546,2.546,0,0,1,.043-.746,2.867,2.867,0,0,1,.3-.755,2.978,2.978,0,0,1,1.271-1.166,2.868,2.868,0,0,1,1.554-.292,3.546,3.546,0,0,1,.311-1.291,3.958,3.958,0,0,1,1.056-1.41,3.609,3.609,0,0,1,1.678-.813,2.636,2.636,0,0,1,.359-.043h.358a1.586,1.586,0,0,1,.263,0,3.662,3.662,0,0,1,.956.234,3.881,3.881,0,0,1,2.223,2.261,2.122,2.122,0,0,1,3.274,1.692,2.868,2.868,0,0,1,1.066,1.052,2.746,2.746,0,0,1,.325,2.127,2.6,2.6,0,0,1-.249.612,2.791,2.791,0,0,1-.731.846,2.825,2.825,0,0,1-1.434.6A.61.61,0,0,0,305.433,171.638Z" transform="translate(-223.616 -115.066)" fill="#263238"/>
      <path id="Path_390" data-name="Path 390" d="M304.955,177.74a9.846,9.846,0,0,1-.664,1.195,11.214,11.214,0,0,1-.741,1.147,9.393,9.393,0,0,1,.66-1.195A10.182,10.182,0,0,1,304.955,177.74Z" transform="translate(-229.05 -123.247)" fill="#263238"/>
      <path id="Path_391" data-name="Path 391" d="M303.286,180.077a.315.315,0,0,1-.139-.053c-.229-.139-.225-.182.578-1.525.731-1.214.789-1.228.889-1.257a.239.239,0,0,1,.182.029h0a.268.268,0,0,1,.11.148c0,.105.038.158-.693,1.377C303.6,179.824,303.434,180.077,303.286,180.077Z" transform="translate(-228.772 -122.982)" fill="#263238"/>
      <path id="Path_392" data-name="Path 392" d="M309.565,177.74a9.076,9.076,0,0,1-.664,1.195,11.221,11.221,0,0,1-.741,1.147,9.386,9.386,0,0,1,.66-1.195A10.191,10.191,0,0,1,309.565,177.74Z" transform="translate(-231.457 -123.247)" fill="#263238"/>
      <path id="Path_393" data-name="Path 393" d="M307.882,180.058a.239.239,0,0,1-.124-.038c-.229-.134-.225-.177.578-1.52.731-1.214.789-1.228.894-1.257a.239.239,0,0,1,.182.029h0c.225.139.225.182-.583,1.525-.731,1.214-.789,1.228-.889,1.252Z" transform="translate(-231.178 -122.982)" fill="#263238"/>
      <path id="Path_394" data-name="Path 394" d="M314.175,177.74a9.069,9.069,0,0,1-.664,1.195,11.213,11.213,0,0,1-.741,1.147,9.386,9.386,0,0,1,.66-1.195A10.177,10.177,0,0,1,314.175,177.74Z" transform="translate(-233.863 -123.247)" fill="#263238"/>
      <path id="Path_395" data-name="Path 395" d="M312.506,180.078a.315.315,0,0,1-.139-.053c-.229-.139-.225-.182.583-1.525.727-1.214.784-1.228.889-1.257a.249.249,0,0,1,.182.029h0a.249.249,0,0,1,.11.148c.024.105.038.158-.693,1.377C312.822,179.824,312.654,180.078,312.506,180.078Z" transform="translate(-233.585 -122.982)" fill="#263238"/>
      <path id="Path_396" data-name="Path 396" d="M299.615,184.61a9.474,9.474,0,0,1-.664,1.195,10.225,10.225,0,0,1-.741,1.142,9.625,9.625,0,0,1,.664-1.195A9.32,9.32,0,0,1,299.615,184.61Z" transform="translate(-226.263 -126.898)" fill="#263238"/>
      <path id="Path_397" data-name="Path 397" d="M297.946,186.9a.229.229,0,0,1-.124-.033.249.249,0,0,1-.11-.148c-.024-.1-.038-.158.693-1.372.8-1.338.841-1.367,1.071-1.228h0c.225.139.225.182-.583,1.52-.731,1.219-.784,1.233-.889,1.257Z" transform="translate(-225.999 -126.611)" fill="#263238"/>
      <path id="Path_398" data-name="Path 398" d="M304.225,184.61a20.076,20.076,0,0,1-1.405,2.337,9.633,9.633,0,0,1,.664-1.19,10.041,10.041,0,0,1,.741-1.147Z" transform="translate(-228.669 -126.898)" fill="#263238"/>
      <path id="Path_399" data-name="Path 399" d="M302.556,186.9a.229.229,0,0,1-.124-.033.248.248,0,0,1-.11-.148c-.024-.1-.038-.158.693-1.372.8-1.343.841-1.367,1.071-1.228h0c.22.139.22.182-.588,1.52-.727,1.219-.784,1.233-.889,1.257Z" transform="translate(-228.405 -126.61)" fill="#263238"/>
      <path id="Path_400" data-name="Path 400" d="M308.835,184.61a18.469,18.469,0,0,1-1.405,2.337,9.631,9.631,0,0,1,.664-1.19,10.037,10.037,0,0,1,.741-1.147Z" transform="translate(-231.076 -126.898)" fill="#263238"/>
      <path id="Path_401" data-name="Path 401" d="M307.166,186.9a.229.229,0,0,1-.124-.033.249.249,0,0,1-.11-.148c-.024-.1-.038-.158.693-1.372.8-1.338.841-1.367,1.071-1.228h0c.229.139.225.182-.583,1.52-.731,1.219-.784,1.233-.889,1.257Z" transform="translate(-230.811 -126.611)" fill="#263238"/>
      <path id="Path_402" data-name="Path 402" d="M313.65,184.71a10.7,10.7,0,0,1-.664,1.195,9.458,9.458,0,0,1-.746,1.147,10.7,10.7,0,0,1,.664-1.195A9.455,9.455,0,0,1,313.65,184.71Z" transform="translate(-233.587 -126.951)" fill="#263238"/>
      <path id="Path_403" data-name="Path 403" d="M311.99,187.032a.316.316,0,0,1-.134-.072c-.229-.139-.229-.182.578-1.525.731-1.214.789-1.228.889-1.252a.263.263,0,0,1,.182.024h0a.282.282,0,0,1,.11.148c.024.105.038.163-.693,1.377C312.3,186.783,312.138,187.032,311.99,187.032Z" transform="translate(-233.317 -126.67)" fill="#263238"/>
      <circle id="Ellipse_18" data-name="Ellipse 18" cx="2.027" cy="2.027" r="2.027" transform="translate(40.189 151.654)" fill="#ebebeb"/>
      <circle id="Ellipse_19" data-name="Ellipse 19" cx="2.027" cy="2.027" r="2.027" transform="translate(46.963 151.654)" fill="#e0e0e0"/>
      <circle id="Ellipse_20" data-name="Ellipse 20" cx="2.027" cy="2.027" r="2.027" transform="translate(53.736 151.654)" fill="#e0e0e0"/>
      <circle id="Ellipse_21" data-name="Ellipse 21" cx="2.027" cy="2.027" r="2.027" transform="translate(60.509 151.654)" fill="#e0e0e0"/>
      <rect id="Rectangle_129" data-name="Rectangle 129" width="16.323" height="16.323" rx="8.162" transform="translate(13.346 162.949)" fill="#1c47a1"/>
      <rect id="Rectangle_130" data-name="Rectangle 130" width="16.323" height="16.323" rx="8.162" transform="translate(33.694 162.796)" fill="#e0e0e0"/>
      <rect id="Rectangle_131" data-name="Rectangle 131" width="16.323" height="16.323" rx="8.162" transform="translate(54.042 162.648)" fill="#455a64"/>
      <rect id="Rectangle_132" data-name="Rectangle 132" width="16.323" height="16.323" rx="8.162" transform="translate(74.39 162.949)" fill="#263238"/>
      <rect id="Rectangle_133" data-name="Rectangle 133" width="16.323" height="16.323" rx="8.162" transform="translate(13.346 128.706)" fill="#455a64"/>
      <rect id="Rectangle_134" data-name="Rectangle 134" width="16.323" height="16.323" rx="8.162" transform="translate(33.694 128.557)" fill="#263238"/>
      <rect id="Rectangle_135" data-name="Rectangle 135" width="16.323" height="16.323" rx="8.162" transform="translate(54.042 128.407)" fill="#e0e0e0"/>
      <rect id="Rectangle_136" data-name="Rectangle 136" width="16.323" height="16.323" rx="8.162" transform="translate(74.39 128.262)" fill="#1c47a1"/>
      <path id="Path_404" data-name="Path 404" d="M186.463,346.261a3.414,3.414,0,0,1,.827-.358l.167-.813h1.381l.2.808a3.458,3.458,0,0,1,.836.33l.7-.478.989.956-.43.712a3.413,3.413,0,0,1,.359.827l.813.167.024,1.381-.808.2a3.461,3.461,0,0,1-.33.836l.478.7-.956.989-.707-.43a3.412,3.412,0,0,1-.827.358l-.167.813h-1.381l-.2-.808a3.461,3.461,0,0,1-.836-.33l-.7.478-.989-.956.43-.707a3.412,3.412,0,0,1-.358-.827l-.813-.167-.024-1.381.808-.2a3.391,3.391,0,0,1,.33-.836l-.478-.7.956-.989.707.43Zm.478,1.663a.751.751,0,1,0,0-.01Z" transform="translate(-166.717 -212.265)" fill="#fff"/>
      <path id="Path_405" data-name="Path 405" d="M269.86,426.132l.6-2.218a4.106,4.106,0,1,1,1.635,1.62ZM272.2,424.7l.139.081a3.346,3.346,0,1,0-1.138-1.128l.086.139-.335,1.243Z" transform="translate(-211.464 -251.362)" fill="#fff"/>
      <path id="Path_406" data-name="Path 406" d="M277.842,424.989a.683.683,0,0,0-.583-.134c-.153.062-.253.3-.349.421a.143.143,0,0,1-.191.043,2.658,2.658,0,0,1-1.324-1.138.153.153,0,0,1,0-.22.879.879,0,0,0,.239-.392.826.826,0,0,0-.105-.478,1.132,1.132,0,0,0-.344-.516.478.478,0,0,0-.507.076,1.032,1.032,0,0,0-.358.817.956.956,0,0,0,.033.263,2.174,2.174,0,0,0,.249.574,4.273,4.273,0,0,0,.258.392,4.077,4.077,0,0,0,1.128,1.052,3.493,3.493,0,0,0,.7.33,1.558,1.558,0,0,0,.817.134,1,1,0,0,0,.746-.554.521.521,0,0,0,.033-.282C278.263,425.195,277.99,425.08,277.842,424.989Z" transform="translate(-213.791 -253.824)" fill="#fff" fill-rule="evenodd"/>
      <path id="Path_407" data-name="Path 407" d="M191.473,424.574a1.315,1.315,0,0,0-1.114-.253c-.287.12-.478.574-.66.8a.277.277,0,0,1-.358.081,5.043,5.043,0,0,1-2.519-2.16.3.3,0,0,1,.038-.421,1.73,1.73,0,0,0,.478-.746,1.635,1.635,0,0,0-.206-.879,2.1,2.1,0,0,0-.65-.956.884.884,0,0,0-.956.143,1.945,1.945,0,0,0-.679,1.553,2.132,2.132,0,0,0,.057.478,4.163,4.163,0,0,0,.478,1.09,7.84,7.84,0,0,0,.478.75A7.586,7.586,0,0,0,188,426.046a6.322,6.322,0,0,0,1.334.636,3,3,0,0,0,1.553.249,1.912,1.912,0,0,0,1.41-1.052.894.894,0,0,0,.067-.535C192.272,424.97,191.774,424.76,191.473,424.574Z" transform="translate(-167.086 -252.481)" fill="#fff" fill-rule="evenodd"/>
      <path id="Path_408" data-name="Path 408" d="M325.218,422.09a.478.478,0,1,0,.478.478A.478.478,0,0,0,325.218,422.09Z" transform="translate(-240.112 -253.591)" fill="#fff"/>
      <path id="Path_409" data-name="Path 409" d="M319.113,423.08a2,2,0,1,0,2,2,2,2,0,0,0-2-2Zm0,3.284a.533.533,0,1,1,0,.024Z" transform="translate(-236.129 -254.108)" fill="#fff"/>
      <path id="Path_410" data-name="Path 410" d="M318.413,427.185h-3.246a2.452,2.452,0,0,1-2.447-2.447v-3.246a2.447,2.447,0,0,1,2.447-2.443h3.246a2.443,2.443,0,0,1,2.443,2.443v3.269A2.447,2.447,0,0,1,318.413,427.185Zm-3.246-7.371a1.683,1.683,0,0,0-1.683,1.678v3.269a1.682,1.682,0,0,0,1.682,1.678h3.246a1.678,1.678,0,0,0,1.678-1.678v-3.246a1.678,1.678,0,0,0-1.678-1.678Z" transform="translate(-233.837 -252.005)" fill="#fff"/>
      <path id="Path_411" data-name="Path 411" d="M227.305,426.874a.354.354,0,0,1-.258-.11.368.368,0,0,1,0-.512l1.941-1.941a3.313,3.313,0,1,1,2.586,1.243,3.264,3.264,0,0,1-2.074-.727l-1.941,1.936A.344.344,0,0,1,227.305,426.874Zm4.268-7.227a2.6,2.6,0,1,0,2.34,1.263,2.6,2.6,0,0,0-2.34-1.263Z" transform="translate(-189.061 -251.937)" fill="#fff"/>
      <path id="Path_412" data-name="Path 412" d="M221.48,193.139c0,.067-7.648.124-17.1.124s-17.107-.057-17.107-.124,7.648-.129,17.107-.129S221.48,193.067,221.48,193.139Z" transform="translate(-168.351 -131.349)" fill="#263238"/>
      <path id="Path_413" data-name="Path 413" d="M232.229,348.944a2.008,2.008,0,0,0,1.195-1.855,1.883,1.883,0,1,0-3.762,0,1.993,1.993,0,0,0,1.2,1.874c-2.9.435-2.763,3.58-2.763,3.58l6.84.033S235.1,349.36,232.229,348.944Z" transform="translate(-189.664 -212.267)" fill="#fff"/>
      <path id="Path_414" data-name="Path 414" d="M277.806,352.414a2.3,2.3,0,0,0-.454-2.438,2.557,2.557,0,0,0-2.5-.808,2.8,2.8,0,0,0-5.545.359,2.089,2.089,0,0,0-1.6,2.839Z" transform="translate(-210.261 -213.173)" fill="#fff"/>
      <path id="Path_415" data-name="Path 415" d="M321.878,357.849a.669.669,0,1,1-.664-.669A.669.669,0,0,1,321.878,357.849Z" transform="translate(-237.919 -218.595)" fill="#fff"/>
      <path id="Path_416" data-name="Path 416" d="M318.471,355.335a1.845,1.845,0,0,1,2.667-.033c.344.339.875-.186.535-.526a2.6,2.6,0,0,0-3.728.029C317.616,355.153,318.142,355.684,318.471,355.335Z" transform="translate(-236.51 -216.908)" fill="#fff"/>
      <path id="Path_417" data-name="Path 417" d="M313.722,347.929A5.468,5.468,0,0,1,317.3,346.5a5.311,5.311,0,0,1,3.642,1.4c.354.33.884-.2.535-.526a6.08,6.08,0,0,0-4.173-1.616,6.242,6.242,0,0,0-4.106,1.644c-.363.315.163.846.526.531Z" transform="translate(-234.022 -212.533)" fill="#fff"/>
      <path id="Path_418" data-name="Path 418" d="M315.612,351.753a3.666,3.666,0,0,1,5.382-.076c.335.349.865-.182.531-.526a4.4,4.4,0,0,0-6.439.072C314.756,351.576,315.282,352.106,315.612,351.753Z" transform="translate(-235.017 -214.676)" fill="#fff"/>
    </g>
    <g id="freepik--Character--inject-35" transform="translate(46.607 61.89)">
      <path id="Path_419" data-name="Path 419" d="M107.471,446.11,107.3,456.1s10.066,3.523,10.215,5.368l-19.33.354-.358-15.53Z" transform="translate(-78.763 -281.609)" fill="#1c47a1"/>
      <path id="Path_420" data-name="Path 420" d="M104.523,465.422a.789.789,0,0,0-.531.908.765.765,0,0,0,.9.535.841.841,0,0,0,.554-.956.789.789,0,0,0-.994-.449" transform="translate(-81.971 -291.687)" fill="#e0e0e0"/>
      <path id="Path_421" data-name="Path 421" d="M98.58,477.208l.029-1.568,18.517.249s.87.359.784.956Z" transform="translate(-79.154 -297.024)" fill="#263238"/>
      <path id="Path_422" data-name="Path 422" d="M116.373,466.649c0,.1-.478.148-.956.478s-.7.712-.784.679.043-.583.607-.956S116.392,466.563,116.373,466.649Z" transform="translate(-87.522 -292.292)" fill="#263238"/>
      <path id="Path_423" data-name="Path 423" d="M121.223,468.37c0,.091-.387.258-.7.664s-.4.827-.478.827-.163-.535.234-1.032S121.218,468.279,121.223,468.37Z" transform="translate(-90.325 -293.21)" fill="#263238"/>
      <path id="Path_424" data-name="Path 424" d="M124.945,471.66c-.086.024-.229-.445,0-.956s.669-.736.712-.66-.225.358-.411.789S125.036,471.65,124.945,471.66Z" transform="translate(-92.852 -294.095)" fill="#263238"/>
      <path id="Path_425" data-name="Path 425" d="M115.67,461.622c-.038.086-.478-.038-1.009,0s-.956.22-.994.139.344-.421.956-.478S115.737,461.536,115.67,461.622Z" transform="translate(-87.029 -289.526)" fill="#263238"/>
      <path id="Path_426" data-name="Path 426" d="M75.425,427.937l-6.912,7.17S73.48,444.543,72.338,446L57.95,433.09l10.315-11.62Z" transform="translate(-57.945 -268.747)" fill="#1c47a1"/>
      <path id="Path_427" data-name="Path 427" d="M70.719,440.269a.789.789,0,0,0-1.009.306.765.765,0,0,0,.3,1,.841.841,0,0,0,1.066-.33.789.789,0,0,0-.425-1.008" transform="translate(-64.042 -278.521)" fill="#e0e0e0"/>
      <path id="Path_428" data-name="Path 428" d="M57.94,444.543l1.085-1.133,13.384,12.8s.378.865-.1,1.238Z" transform="translate(-57.94 -280.2)" fill="#263238"/>
      <path id="Path_429" data-name="Path 429" d="M78.454,449.581c-.062.067-.445-.215-.989-.3s-1,.048-1.037-.038.425-.4,1.09-.287S78.531,449.528,78.454,449.581Z" transform="translate(-67.59 -283.082)" fill="#263238"/>
      <path id="Path_430" data-name="Path 430" d="M80.6,454.058c-.043.081-.478-.072-.956,0s-.856.335-.923.268.244-.5.875-.593S80.656,453.987,80.6,454.058Z" transform="translate(-68.783 -285.581)" fill="#263238"/>
      <path id="Path_431" data-name="Path 431" d="M81.044,458.911c-.076-.043.143-.478.669-.7s.989-.081.956,0-.411.105-.836.3S81.12,458.968,81.044,458.911Z" transform="translate(-69.993 -287.862)" fill="#263238"/>
      <path id="Path_432" data-name="Path 432" d="M81.877,445.08c-.086.038-.32-.349-.741-.679s-.846-.478-.827-.574.54-.076,1.028.32S81.963,445.056,81.877,445.08Z" transform="translate(-69.617 -280.393)" fill="#263238"/>
      <path id="Path_433" data-name="Path 433" d="M164.959,220.24l-8.5,5.621.124,2.227,2.218,4.675s1.028.956,4.034-2.074a67.087,67.087,0,0,0,6.816-9.13Z" transform="translate(-109.368 -163.703)" fill="#ffbe9d"/>
      <path id="Path_434" data-name="Path 434" d="M184.892,194.711a.712.712,0,0,0-.554-.411l-4.163-.559a1.324,1.324,0,0,0-1.013.311L167.24,204.285l.54.526,4.474,1.08L184.973,194.9Z" transform="translate(-114.996 -149.866)" fill="#263238"/>
      <path id="Path_435" data-name="Path 435" d="M197.229,197.151a.263.263,0,0,0,.354.024.253.253,0,0,0,.124-.33.268.268,0,0,0-.358,0A.22.22,0,0,0,197.229,197.151Z" transform="translate(-130.636 -151.455)" fill="#fff"/>
      <path id="Path_436" data-name="Path 436" d="M185.845,195.356a4.942,4.942,0,0,1-.817-.057l-2.213-.263-1.53-.191a.88.88,0,0,0-.722.186l-.679.593-3.05,2.624c-2.165,1.855-4.135,3.528-5.569,4.727-.7.574-1.276,1.047-1.711,1.41a5.79,5.79,0,0,1-.645.478,4.374,4.374,0,0,1,.583-.564l1.654-1.472c1.405-1.233,3.346-2.921,5.526-4.78l3.059-2.61.693-.583a1.085,1.085,0,0,1,.884-.225l1.53.22,2.208.339a6.093,6.093,0,0,1,.8.167Z" transform="translate(-115.867 -150.325)" fill="#455a64"/>
      <path id="Path_437" data-name="Path 437" d="M182.711,200.636s-.382-.186-.9.846-2.113,3.972-2.113,3.972l-1.778-1.7-2.715-.392s-.722.368-.382.77a9.822,9.822,0,0,0,1.912,1.166l.727,2.1-3.011-2.672s-1.252,0-1.109.784a24.934,24.934,0,0,0,1.878,3.7l-1.721-.626-1.73-1.85s-.65-.153-.564.478a19.464,19.464,0,0,0,1.706,3.193l2.27,2.017s1.472.292,1.726-.1a4.937,4.937,0,0,0,.478-.956s.822,0,1.071-.32a2.39,2.39,0,0,0,.315-.956s1.138.545,1.477-.081a7.9,7.9,0,0,0,.6-2.519c.024-.55,1.993-5.143,1.984-5.3S183.529,200.531,182.711,200.636Z" transform="translate(-117.059 -153.463)" fill="#ffbe9d"/>
      <path id="Path_438" data-name="Path 438" d="M178.676,222.556a1.525,1.525,0,0,1-.746,0,4.813,4.813,0,0,1-3.1-1.721c-.292-.363-.406-.626-.378-.645a9.8,9.8,0,0,0,1.912,1.558A8.535,8.535,0,0,0,178.676,222.556Z" transform="translate(-118.76 -163.677)" fill="#eb996e"/>
      <path id="Path_439" data-name="Path 439" d="M181.029,220.652c-.057.048-.454-.325-.837-.875s-.6-1.052-.535-1.09.387.392.765.927S181.091,220.6,181.029,220.652Z" transform="translate(-121.471 -162.891)" fill="#eb996e"/>
      <path id="Path_440" data-name="Path 440" d="M185.423,216.682c-.057.048-.478-.32-.8-.884a2.567,2.567,0,0,1-.425-1.109,4.216,4.216,0,0,1,.664.956C185.2,216.18,185.485,216.629,185.423,216.682Z" transform="translate(-123.843 -160.804)" fill="#eb996e"/>
      <path id="Path_441" data-name="Path 441" d="M189.846,213.245a7.083,7.083,0,0,1-.478-1.214,7.646,7.646,0,0,1-.478-1.2c.057-.048.478.4.76,1.1A2.07,2.07,0,0,1,189.846,213.245Z" transform="translate(-126.297 -158.787)" fill="#eb996e"/>
      <path id="Path_442" data-name="Path 442" d="M137.01,151.128c-3.226-.115-10.038-9.479-9.98-12.71l.253-19.44c-.1-5.224,2.868-9.636,8.083-9.589l.478.033a9.335,9.335,0,0,1,8.714,9.192c.062,4.531.072,9.536-.12,11.95-.4,5-5.454,5.44-5.454,5.44s-.048,1.162-.081,2.634c-.081,3.3,1.209,12.585-2.094,12.471Z" transform="translate(-94.005 -105.838)" fill="#ffbe9d"/>
      <path id="Path_443" data-name="Path 443" d="M145.076,162.491a12.088,12.088,0,0,1-6.386-2.361S140,164,145.028,163.882Z" transform="translate(-100.092 -132.325)" fill="#eb996e"/>
      <path id="Path_444" data-name="Path 444" d="M158.609,136.518a.712.712,0,0,1-.736.674.693.693,0,0,1-.693-.7.717.717,0,0,1,.736-.674.684.684,0,0,1,.693.7Z" transform="translate(-109.744 -119.635)" fill="#263238"/>
      <path id="Path_445" data-name="Path 445" d="M158.09,132.24c-.1.086-.612-.354-1.377-.4s-1.362.3-1.434.2.067-.206.32-.368a1.974,1.974,0,0,1,1.157-.272,1.869,1.869,0,0,1,1.09.435C158.066,132.025,158.138,132.2,158.09,132.24Z" transform="translate(-108.742 -117.322)" fill="#263238"/>
      <path id="Path_446" data-name="Path 446" d="M143.889,136.217a.712.712,0,0,1-.736.674.688.688,0,0,1-.693-.693.717.717,0,0,1,.736-.7.684.684,0,0,1,.693.717Z" transform="translate(-102.06 -119.468)" fill="#263238"/>
      <path id="Path_447" data-name="Path 447" d="M142.292,131.551c-.1.086-.612-.349-1.381-.4s-1.357.3-1.434.2.062-.21.32-.373a2,2,0,0,1,1.157-.272,1.912,1.912,0,0,1,1.09.435C142.269,131.321,142.335,131.512,142.292,131.551Z" transform="translate(-100.492 -116.962)" fill="#263238"/>
      <path id="Path_448" data-name="Path 448" d="M150.33,138.209a4.813,4.813,0,0,1,1.262-.143c.2,0,.387-.033.43-.167a1.013,1.013,0,0,0-.1-.588l-.478-1.534a26.07,26.07,0,0,1-1.042-4,26.2,26.2,0,0,1,1.362,3.9c.158.54.311,1.052.454,1.544a1.157,1.157,0,0,1,.048.779.478.478,0,0,1-.339.263,1.436,1.436,0,0,1-.339.024A5.063,5.063,0,0,1,150.33,138.209Z" transform="translate(-106.168 -117.526)" fill="#263238"/>
      <path id="Path_449" data-name="Path 449" d="M141.814,125.428c-.119.186-.851-.067-1.759-.148s-1.673,0-1.749-.2c-.033-.1.129-.263.478-.4a2.935,2.935,0,0,1,1.367-.177,2.968,2.968,0,0,1,1.31.44C141.737,125.142,141.866,125.338,141.814,125.428Z" transform="translate(-99.889 -113.718)" fill="#263238"/>
      <path id="Path_450" data-name="Path 450" d="M157.677,128.413c-.167.167-.784-.048-1.539-.1s-1.4.043-1.534-.148c-.057-.091.048-.258.339-.411a2.462,2.462,0,0,1,1.267-.22,2.428,2.428,0,0,1,1.209.416C157.677,128.146,157.754,128.332,157.677,128.413Z" transform="translate(-108.391 -115.307)" fill="#263238"/>
      <path id="Path_451" data-name="Path 451" d="M124.075,137c-.081-.043-3.346-1.248-3.489,2.18s3.346,2.868,3.346,2.744S124.075,137,124.075,137Z" transform="translate(-90.639 -120.125)" fill="#ffbe9d"/>
      <path id="Path_452" data-name="Path 452" d="M123.9,141.787a1.37,1.37,0,0,1-.163.081.593.593,0,0,1-.445,0,1.482,1.482,0,0,1-.64-1.353,1.988,1.988,0,0,1,.2-.846.693.693,0,0,1,.478-.445.306.306,0,0,1,.344.177c.043.1,0,.167.038.172s.076-.057.053-.2a.344.344,0,0,0-.129-.22.43.43,0,0,0-.325-.1.837.837,0,0,0-.641.511,2.012,2.012,0,0,0-.244.956,1.553,1.553,0,0,0,.822,1.51.645.645,0,0,0,.55-.072C123.893,141.868,123.917,141.791,123.9,141.787Z" transform="translate(-91.604 -121.324)" fill="#eb996e"/>
      <path id="Path_453" data-name="Path 453" d="M145.826,146c-.048,0-.081.191,0,.478a1.912,1.912,0,0,0,.593,1.023,3.2,3.2,0,0,0,.985.607c.272.105.449.139.478.1s-.12-.163-.354-.325a6.81,6.81,0,0,1-.856-.641C146.032,146.692,145.936,145.965,145.826,146Z" transform="translate(-103.792 -124.948)" fill="#263238"/>
      <path id="Path_454" data-name="Path 454" d="M91.4,269.987,89.18,283.781l1.62,11.4.067,2.476,1.64,12.165s-.607,11.472-.913,13.948.774,37.518.774,37.518l11.147-.478s4.221-51.986,4.221-52.56,5.8-38.88,5.8-38.88Z" transform="translate(-74.248 -189.349)" fill="#263238"/>
      <path id="Path_455" data-name="Path 455" d="M108.143,272.406s-.225,46.685-1.267,49.386-30.324,31.719-30.324,31.719l-9.273-7.227,23.68-31.868,1.458-44.487Z" transform="translate(-62.816 -189.642)" fill="#263238"/>
      <path id="Path_456" data-name="Path 456" d="M129.469,300.65c.062,0-1.324,11.8-3.1,26.328s-3.26,26.289-3.346,26.289,1.324-11.792,3.1-26.328S129.4,300.64,129.469,300.65Z" transform="translate(-91.913 -205.678)" fill="#455a64"/>
      <path id="Path_457" data-name="Path 457" d="M95.07,354a.414.414,0,0,1,0,.115v.335c0,.315-.053.746-.091,1.3-.1,1.123-.2,2.753-.32,4.78-.225,4.025-.416,9.589-.368,15.735s.229,11.72.335,15.774c.048,2,.086,3.623.115,4.78v1.635a1.035,1.035,0,0,1,0,.115.441.441,0,0,1,0-.115v-.335c0-.315-.033-.746-.057-1.3-.043-1.147-.105-2.772-.186-4.78-.143-4.029-.363-9.6-.4-15.75s.167-11.725.435-15.774c.143-2.012.272-3.637.392-4.756.057-.55.1-.98.134-1.3a2.516,2.516,0,0,1,.043-.335A.645.645,0,0,1,95.07,354Z" transform="translate(-76.811 -233.527)" fill="#455a64"/>
      <path id="Path_458" data-name="Path 458" d="M109.708,298.577c.029.057-2,1.128-4.531,2.39s-4.608,2.237-4.637,2.18,2-1.123,4.531-2.39S109.679,298.52,109.708,298.577Z" transform="translate(-80.177 -204.595)" fill="#455a64"/>
      <path id="Path_459" data-name="Path 459" d="M159.166,223l5.6,5.033s-8.762,9.56-11.472,11.687.865-14.44.865-14.44Z" transform="translate(-107.185 -165.144)" fill="#1c47a1"/>
      <path id="Path_460" data-name="Path 460" d="M107.151,160.41l-2.328,3.226-9.082,3.346-4.106,30.807-2.6,27.5s3.628-5.172,6.405-5.258,16.82,3.853,17.772,4.57l1.855-6.214,1.5,7.213s2.639.593,4.015-3.346L120,208.587s1.855-24.64,1.749-28.359-2.615-14.034-2.615-14.034l-.956,3.04-8.131-6.955Z" transform="translate(-74.174 -132.471)" fill="#1c47a1"/>
      <path id="Path_461" data-name="Path 461" d="M95.983,172.21s-5.951,0-7.877,10.994-4.689,22.843-3.265,27.288,7.041,17.165,7.041,17.165l7.648-2.763-3.145-20.013,3.638-19.6S100.486,173.013,95.983,172.21Z" transform="translate(-71.777 -138.631)" fill="#1c47a1"/>
      <path id="Path_462" data-name="Path 462" d="M111.893,287.095s-3.657-4.3-3.934-4.2l-6.056,2.189a25.1,25.1,0,0,0,.043,4.689c.234,2.242.621,4.646.621,4.646l7.987-4.259a14.192,14.192,0,0,0,.779,2.591c.445.956,1.984-.053,1.984-.053Z" transform="translate(-80.842 -196.41)" fill="#ffbe9d"/>
      <path id="Path_463" data-name="Path 463" d="M99.893,185.3a1.923,1.923,0,0,1-.048.349c-.048.229-.1.583-.182,1.028-.163.9-.4,2.227-.7,3.92-.621,3.4-1.52,8.3-2.619,14.306v-.033c.9,5.7,1.984,12.528,3.169,20.009v.091l-.086.033-7.648,2.763-.1.038-.043-.1-2.438-5.65c-1.463-3.465-2.868-6.85-4.116-10.186-.158-.416-.3-.836-.435-1.252-.072-.21-.11-.435-.167-.645a3.935,3.935,0,0,1-.12-.655,10.934,10.934,0,0,1-.115-1.3c0-.43-.033-.865,0-1.291a45.665,45.665,0,0,1,.425-5c.421-3.236.994-6.281,1.515-9.134s1.028-5.5,1.477-7.925c.21-1.214.449-2.366.693-3.451.153-.535.3-1.056.449-1.558s.358-.956.531-1.434a11.883,11.883,0,0,1,2.748-4.187,7.088,7.088,0,0,1,2.705-1.635,5.093,5.093,0,0,1,.808-.177h.282l-.277.033a5.468,5.468,0,0,0-.8.2,7.17,7.17,0,0,0-2.658,1.659,11.816,11.816,0,0,0-2.691,4.168c-.167.478-.354.927-.521,1.434s-.287,1.018-.44,1.549c-.234,1.085-.478,2.227-.669,3.446-.445,2.428-.956,5.081-1.434,7.935s-1.1,5.884-1.52,9.111a45.344,45.344,0,0,0-.416,4.976V208a11.676,11.676,0,0,0,.115,1.286,3.579,3.579,0,0,0,.119.631c.053.21.091.421.158.626.143.416.282.832.435,1.248,1.228,3.322,2.653,6.692,4.12,10.172.832,1.912,1.654,3.824,2.433,5.65l-.143-.062,7.648-2.758-.072.119C98.1,217.428,97.035,210.6,96.146,204.9v-.029c1.128-6,2.051-10.893,2.7-14.292.32-1.687.574-3.007.75-3.91.086-.445.153-.784.2-1.023A1.518,1.518,0,0,1,99.893,185.3Z" transform="translate(-71.663 -138.636)" fill="#263238"/>
      <path id="Path_464" data-name="Path 464" d="M136.654,173.551a1.71,1.71,0,0,1-.177.411l-.554,1.114-2,3.872-.076.153-.1-.139c-.712-.98-1.534-2.036-2.433-3.117a61.183,61.183,0,0,0-4.818-5.158c-.65-.626-1.19-1.118-1.563-1.463a5.351,5.351,0,0,1-.569-.545,4.686,4.686,0,0,1,.626.478c.392.32.956.8,1.616,1.41a52.068,52.068,0,0,1,4.885,5.129c.9,1.085,1.721,2.151,2.423,3.14h-.177c.836-1.539,1.549-2.868,2.074-3.824l.612-1.085A2.557,2.557,0,0,1,136.654,173.551Z" transform="translate(-92.612 -136.788)" fill="#263238"/>
      <path id="Path_465" data-name="Path 465" d="M152.569,181.428a6.077,6.077,0,0,1,.191,3.236l-.053.33-.158-.3c-.086-.163-.172-.33-.253-.507-.435-.956-.664-1.912-.9-2.529a7.337,7.337,0,0,1-.387-1.037,3.292,3.292,0,0,1,.535.956c.282.636.54,1.553.956,2.5.081.172.163.335.244.478l-.21.029a10.164,10.164,0,0,0,.11-2.261C152.626,181.758,152.545,181.437,152.569,181.428Z" transform="translate(-106.519 -143.021)" fill="#263238"/>
      <path id="Path_466" data-name="Path 466" d="M146.99,182.2a.32.32,0,0,1,0,.119v1.754c0,1.209-.067,2.954-.186,5.11-.229,4.3-.755,10.258-1.3,16.82s-1.066,12.495-1.434,16.811c-.191,2.137-.349,3.872-.478,5.091-.057.588-.105,1.052-.139,1.381a1.237,1.237,0,0,1-.043.359.529.529,0,0,1,0,.124.411.411,0,0,1,0-.124v-.359c0-.335.057-.8.1-1.391.1-1.219.225-2.959.392-5.1.349-4.3.832-10.258,1.367-16.816s1.095-12.5,1.362-16.811c.139-2.151.215-3.9.258-5.1.024-.593.038-1.056.053-1.391v-.363a.378.378,0,0,1,.048-.119Z" transform="translate(-102.556 -143.846)" fill="#263238"/>
      <path id="Path_467" data-name="Path 467" d="M155.7,204.6c.062,0-.277,6.1-.765,13.6s-.956,13.594-.994,13.589.277-6.094.765-13.6S155.633,204.6,155.7,204.6Z" transform="translate(-108.049 -155.539)" fill="#263238"/>
      <path id="Path_468" data-name="Path 468" d="M113.542,181.988c-.043,0-.043-.55-.263-1.4a6.83,6.83,0,0,0-4.412-4.8c-.822-.292-1.372-.335-1.367-.378a1.1,1.1,0,0,1,.387,0,5.948,5.948,0,0,1,1.032.215,6.572,6.572,0,0,1,4.522,4.923,5.783,5.783,0,0,1,.124,1.047,1.137,1.137,0,0,1-.024.392Z" transform="translate(-83.811 -140.293)" fill="#263238"/>
      <g id="Group_54" data-name="Group 54" transform="translate(46.188 60.146)" opacity="0.3">
        <path id="Path_469" data-name="Path 469" d="M154.584,242.044a24.942,24.942,0,0,0,.841-14.254c-.3,4.78-.554,9.56-.856,14.34" transform="translate(-154.57 -227.79)"/>
      </g>
      <g id="Group_55" data-name="Group 55" transform="translate(24.559 48.373)" opacity="0.3">
        <path id="Path_470" data-name="Path 470" d="M112.685,203.16c-1.965,10.205-3.561,19.884-3.346,18.546l3.174,19.344,1.864,2.763C112.747,230.831,111.408,216.09,112.685,203.16Z" transform="translate(-109.319 -203.16)"/>
      </g>
      <path id="Path_471" data-name="Path 471" d="M144.267,108.9a1.984,1.984,0,0,0-1.018-1.6,3.238,3.238,0,0,0,0-.574,2.552,2.552,0,0,0-2.347-2.18,2.476,2.476,0,0,0-4.125-1.477,2.959,2.959,0,0,0-3.14-.65.727.727,0,0,0-.344.239.354.354,0,0,0-.053.268,1.864,1.864,0,0,0-1.434-.956,1.726,1.726,0,0,0-.607.043,2.113,2.113,0,0,0-1.434.621,2.987,2.987,0,0,0-3.728,1.348,2.868,2.868,0,0,0-2.629,1.769,2.127,2.127,0,0,0-1.783,1.061,2.1,2.1,0,0,0,.029,2.07s-2.443.378-1.969,2.567c.244,1.118,1.726,1.032,1.726,1.032l1.357,7.06c-.029.029.378.875.8.727a2.237,2.237,0,0,0,.956-.918,4.967,4.967,0,0,0,.813-1.3,1.2,1.2,0,0,0-.378-1.381,1.788,1.788,0,0,0,1.185-1.338,5.22,5.22,0,0,0,.024-1.869q-.143-1.377-.3-2.753a3.432,3.432,0,0,0,3.1-1.735,1.965,1.965,0,0,0,2.9-.478,2.567,2.567,0,0,0,3,1.8c-.186.7,1.042,1.434,1.726,1.687a2.543,2.543,0,0,0,1.6-.2,4.12,4.12,0,0,0,1.353.6h.076a2.833,2.833,0,0,0,2.5-1.472,1.865,1.865,0,0,0,.746,0A1.984,1.984,0,0,0,144.267,108.9Z" transform="translate(-90.139 -101.96)" fill="#263238"/>
      <path id="Path_472" data-name="Path 472" d="M99.861,220.287c0,.033-.641-.263-1.673-.684a36.282,36.282,0,0,0-4.111-1.434,36.679,36.679,0,0,0-4.249-.9c-1.1-.167-1.792-.234-1.788-.277a1.936,1.936,0,0,1,.478,0c.315,0,.765.043,1.324.105a28.2,28.2,0,0,1,8.408,2.328c.507.234.913.435,1.19.588A1.511,1.511,0,0,1,99.861,220.287Z" transform="translate(-73.652 -162.001)" fill="#fff"/>
      <path id="Path_473" data-name="Path 473" d="M97.518,229.791a.569.569,0,0,1-.062-.124l-.153-.373-.574-1.434c-.478-1.262-1.19-3.093-1.96-5.382a59.585,59.585,0,0,1-2.2-8.2,38.386,38.386,0,0,1-.612-5.014,35.433,35.433,0,0,1,.148-5.4,78.915,78.915,0,0,1,1.912-10.234c.741-3.112,1.467-5.9,2.113-8.231s1.2-4.206,1.6-5.5c.2-.631.354-1.128.478-1.487l.129-.382a.478.478,0,0,1,.053-.129.521.521,0,0,1-.029.139l-.105.387c-.1.363-.244.865-.425,1.5-.368,1.3-.9,3.183-1.52,5.521s-1.329,5.124-2.06,8.236a81.036,81.036,0,0,0-1.883,10.205,35.588,35.588,0,0,0-.153,5.358,38.837,38.837,0,0,0,.593,4.962,61.183,61.183,0,0,0,2.137,8.193c.75,2.294,1.434,4.13,1.883,5.4.225.626.4,1.114.531,1.467l.129.382A.574.574,0,0,1,97.518,229.791Z" transform="translate(-75.674 -141.601)" fill="#fff"/>
      <path id="Path_474" data-name="Path 474" d="M99.671,256.38a2.753,2.753,0,0,1-.378.2c-.249.11-.621.253-1.08.416a27.474,27.474,0,0,1-3.685,1,28.082,28.082,0,0,1-3.786.478c-.478.024-.884.029-1.157.024a1.3,1.3,0,0,1-.425-.034,12.913,12.913,0,0,1,1.568-.167c.956-.1,2.3-.258,3.752-.545s2.748-.645,3.681-.927a14.94,14.94,0,0,1,1.51-.445Z" transform="translate(-74.237 -182.568)" fill="#fff"/>
      <path id="Path_475" data-name="Path 475" d="M107.7,187.3c-.038.029-.425-.574-1.219-1.4a12.043,12.043,0,0,0-1.5-1.31,13.124,13.124,0,0,0-2.1-1.243,13.512,13.512,0,0,0-2.3-.8,11.729,11.729,0,0,0-1.974-.3c-1.138-.072-1.845.024-1.85-.029a2.083,2.083,0,0,1,.478-.091,4.555,4.555,0,0,1,.583-.048,6.939,6.939,0,0,1,.784,0,10.9,10.9,0,0,1,2.017.249,12.354,12.354,0,0,1,2.356.8,12.822,12.822,0,0,1,2.137,1.281,11.315,11.315,0,0,1,1.491,1.377,6.95,6.95,0,0,1,.5.6,4.62,4.62,0,0,1,.339.478A2.061,2.061,0,0,1,107.7,187.3Z" transform="translate(-78.199 -143.781)" fill="#fff"/>
      <path id="Path_476" data-name="Path 476" d="M121.857,227.427a.987.987,0,0,1,0-.158V225.08c0-1.525.053-3.7.086-6.391.1-5.411.234-12.858.387-21.079.072-4.12.129-8.04,0-11.606-.062-1.778-.177-3.47-.33-5.048a26.561,26.561,0,0,0-.712-4.335,11.534,11.534,0,0,0-1.434-3.308,8.393,8.393,0,0,0-1.8-2.031,7.248,7.248,0,0,0-1.463-.913c-.363-.162-.564-.225-.559-.239a3.548,3.548,0,0,1,.578.2,6.428,6.428,0,0,1,1.5.879,8.418,8.418,0,0,1,1.864,2.031,11.592,11.592,0,0,1,1.472,3.346,26.138,26.138,0,0,1,.75,4.359c.163,1.582.282,3.274.354,5.057.143,3.571.091,7.5,0,11.615-.182,8.226-.339,15.673-.478,21.084-.067,2.686-.124,4.861-.167,6.386,0,.746-.043,1.324-.057,1.74v.449a.8.8,0,0,1,.01.153Z" transform="translate(-88.263 -137.545)" fill="#fff"/>
      <path id="Path_477" data-name="Path 477" d="M127.89,265.286a2.717,2.717,0,0,1-.607-.057c-.382-.057-.956-.143-1.63-.263-1.377-.234-3.269-.588-5.354-1.018s-3.967-.856-5.32-1.185c-.679-.167-1.224-.306-1.6-.406a2.683,2.683,0,0,1-.578-.186,2.905,2.905,0,0,1,.6.091l1.616.33,5.33,1.114,5.339,1.09,1.616.339a3.021,3.021,0,0,1,.588.153Z" transform="translate(-86.577 -185.591)" fill="#fff"/>
      <path id="Path_478" data-name="Path 478" d="M128.376,231.418c0,.067-3.824-.162-8.57-.516s-8.561-.7-8.556-.765,3.824.163,8.575.516S128.381,231.351,128.376,231.418Z" transform="translate(-85.768 -168.863)" fill="#fff"/>
      <path id="Path_479" data-name="Path 479" d="M132.495,201.147a3.246,3.246,0,0,1-.617.076c-.4.033-.956.072-1.687.11-1.434.072-3.4.129-5.573.115s-4.154-.1-5.578-.182c-.712-.048-1.286-.091-1.687-.129a2.638,2.638,0,0,1-.612-.086,2.839,2.839,0,0,1,.621,0l1.687.048c1.434.043,3.394.1,5.569.11s4.144,0,5.569-.043l1.687-.029A2.736,2.736,0,0,1,132.495,201.147Z" transform="translate(-88.634 -153.677)" fill="#fff"/>
      <path id="Path_480" data-name="Path 480" d="M120.141,171.786a6.691,6.691,0,0,1-1.142.268,27.866,27.866,0,0,0-2.72.717c-1.047.339-1.969.717-2.629,1a7.71,7.71,0,0,1-1.08.478,4.441,4.441,0,0,1,1-.612,18.1,18.1,0,0,1,5.416-1.754,4.584,4.584,0,0,1,1.152-.1Z" transform="translate(-86.457 -138.408)" fill="#fff"/>
      <path id="Path_481" data-name="Path 481" d="M136.392,172.5a2.489,2.489,0,0,1-.44-.373l-1.147-1.085c-.956-.913-2.309-2.165-3.824-3.5s-2.935-2.519-3.967-3.346l-1.214-1a2.61,2.61,0,0,1-.43-.392,2.731,2.731,0,0,1,.478.315c.306.21.741.531,1.267.956,1.061.808,2.5,1.965,4.02,3.312S134,170,134.925,170.95c.478.478.841.865,1.095,1.138A2.675,2.675,0,0,1,136.392,172.5Z" transform="translate(-93.139 -133.719)" fill="#fff"/>
      <path id="Path_482" data-name="Path 482" d="M138.523,172.3a10.922,10.922,0,0,1-1.434,1.778,11.04,11.04,0,0,1-1.639,1.611,10.2,10.2,0,0,1,1.434-1.778A10.517,10.517,0,0,1,138.523,172.3Z" transform="translate(-98.401 -138.678)" fill="#fff"/>
      <path id="Path_483" data-name="Path 483" d="M153.763,201.487a11.252,11.252,0,0,1-1.759-.053,10.566,10.566,0,0,1-1.754-.105,4.512,4.512,0,0,1,1.769-.143,4.445,4.445,0,0,1,1.745.3Z" transform="translate(-106.127 -153.741)" fill="#fff"/>
      <path id="Path_484" data-name="Path 484" d="M151.341,235a6.592,6.592,0,0,1-1.788.081,6.352,6.352,0,0,1-1.783-.167,6.592,6.592,0,0,1,1.788-.081A6.414,6.414,0,0,1,151.341,235Z" transform="translate(-104.832 -171.305)" fill="#fff"/>
      <path id="Path_485" data-name="Path 485" d="M151.959,189.77a.449.449,0,0,1,0,.129v4.182c0,.894-.029,1.941-.067,3.083-.129,4.57-.521,10.874-1.013,17.829s-.913,13.255-1.09,17.82c-.053,1.142-.086,2.175-.105,3.083s-.053,1.687-.053,2.323,0,1.118-.029,1.472v.382a.511.511,0,0,1,0,.134.511.511,0,0,1,0-.134v-.382c0-.354,0-.846-.024-1.472s0-1.434,0-2.328.029-1.941.067-3.083c.134-4.57.531-10.874,1.018-17.829s.908-13.255,1.085-17.819c.053-1.142.081-2.175.105-3.078s.048-1.692.053-2.328,0-1.118.024-1.472V189.9A.932.932,0,0,0,151.959,189.77Z" transform="translate(-105.771 -147.797)" fill="#fff"/>
      <path id="Path_486" data-name="Path 486" d="M149.105,268.55a21.728,21.728,0,0,1-4.555.837,11.315,11.315,0,0,1,2.256-.54,11.062,11.062,0,0,1,2.3-.3Z" transform="translate(-103.151 -188.921)" fill="#fff"/>
      <path id="Path_487" data-name="Path 487" d="M163.759,229.06a10.325,10.325,0,0,1-1.252.822c-.784.478-1.859,1.171-3.016,1.974s-2.175,1.568-2.906,2.132a11.139,11.139,0,0,1-1.2.889,7.171,7.171,0,0,1,1.095-1.028c.707-.6,1.711-1.391,2.868-2.2a33.756,33.756,0,0,1,3.064-1.912,8.006,8.006,0,0,1,1.353-.679Z" transform="translate(-108.805 -168.307)" fill="#fff"/>
      <path id="Path_488" data-name="Path 488" d="M164.672,234.4a6.949,6.949,0,0,1-.664-1.095c-.392-.688-.956-1.63-1.573-2.648s-1.248-1.912-1.692-2.576a7.537,7.537,0,0,1-.693-1.08,5.779,5.779,0,0,1,.836.956c.478.626,1.118,1.52,1.759,2.548s1.166,1.988,1.515,2.7A5.835,5.835,0,0,1,164.672,234.4Z" transform="translate(-111.242 -167.232)" fill="#fff"/>
    </g>
    <g id="freepik--Floor--inject-35" transform="translate(36.823 241.682)">
      <path id="Path_489" data-name="Path 489" d="M240.645,478.224c0,.067-45.486.124-101.583.124s-101.592-.057-101.592-.124,45.476-.124,101.592-.124S240.645,478.157,240.645,478.224Z" transform="translate(-37.47 -478.1)" fill="#263238"/>
    </g>
  </g>
</svg>
