<svg id="crop.rotate" xmlns="http://www.w3.org/2000/svg" width="19.111" height="24.336" viewBox="0 0 19.111 24.336">
  <rect id="Rectangle_67" data-name="Rectangle 67" width="19.111" height="24.336" fill="#b4b4b4" opacity="0"/>
  <path id="Path_225" data-name="Path 225" d="M19.111,15.972a.713.713,0,0,0-.771-.732H6.836c-.205,0-.283-.068-.283-.283V3.55a.787.787,0,1,0-1.572,0V15.943a.726.726,0,0,0,.781.772H18.34A.715.715,0,0,0,19.111,15.972ZM0,8.443a.71.71,0,0,0,.762.732H12.334c.205,0,.283.078.283.283V20.933a.787.787,0,1,0,1.572,0V8.482a.738.738,0,0,0-.781-.781H.762A.718.718,0,0,0,0,8.443Zm.215,9.228a4.426,4.426,0,0,0,4.678,4.688h.2v1.279c0,.723.547.889,1.094.479L8.643,22.31c.41-.3.42-.645,0-.957l-2.461-1.8c-.547-.391-1.094-.234-1.094.469v1.2H4.9a3.324,3.324,0,0,1-3.467-3.555V16.216A.617.617,0,0,0,.83,15.6a.625.625,0,0,0-.615.615Zm10.322-14.6,2.471,1.8c.537.4,1.094.234,1.094-.469V3.208h.186a3.312,3.312,0,0,1,3.457,3.555V8.218a.61.61,0,0,0,1.221,0V6.753A4.421,4.421,0,0,0,14.3,2.075h-.2V.786c0-.723-.557-.889-1.094-.479L10.537,2.114C10.137,2.427,10.127,2.769,10.537,3.071Z" fill="#b4b4b4"/>
</svg>
