<svg id="chevron.backward" xmlns="http://www.w3.org/2000/svg" width="11.566" height="19.85" viewBox="0 0 11.566 19.85">
  <rect id="Rectangle_53" data-name="Rectangle 53" width="11.566" height="19.85" fill="#1c47a1" opacity="0"/>
  <path id="Path_209" data-name="Path 209" d="M0,9.92A1.57,1.57,0,0,0,.527,11.1l8.5,8.313a1.385,1.385,0,0,0,1.037.428,1.488,1.488,0,0,0,1.5-1.483,1.525,1.525,0,0,0-.474-1.087L3.537,9.916l7.555-7.351a1.529,1.529,0,0,0,.474-1.083A1.486,1.486,0,0,0,10.062,0,1.4,1.4,0,0,0,9.025.421L.527,8.738A1.578,1.578,0,0,0,0,9.92Z" fill="#1c47a1"/>
</svg>
