<svg id="checkmark.circle" xmlns="http://www.w3.org/2000/svg" width="21.92" height="21.931" viewBox="0 0 21.92 21.931">
  <rect id="Rectangle_63" data-name="Rectangle 63" width="21.92" height="21.931" fill="#bafab2" opacity="0"/>
  <path id="Path_218" data-name="Path 218" d="M10.96,21.921A11.041,11.041,0,0,0,21.92,10.96,11.044,11.044,0,0,0,10.949,0,11.032,11.032,0,0,0,0,10.96,11.049,11.049,0,0,0,10.96,21.921Zm0-1.827a9.134,9.134,0,1,1,9.133-9.134A9.089,9.089,0,0,1,10.96,20.094Zm-1.182-4.03a1.008,1.008,0,0,0,.87-.505l4.91-7.726a1.543,1.543,0,0,0,.258-.688.834.834,0,0,0-.881-.8.93.93,0,0,0-.741.484L9.735,13.991l-2.117-2.74a.9.9,0,0,0-.8-.43A.833.833,0,0,0,6,11.67a1.133,1.133,0,0,0,.247.666L8.865,15.56A1.093,1.093,0,0,0,9.778,16.065Z" fill="#bafab2"/>
</svg>
