<svg id="checkmark.circle.fill" xmlns="http://www.w3.org/2000/svg" width="70" height="70" viewBox="0 0 70 70">
  <rect id="Rectangle_65" data-name="Rectangle 65" width="70" height="70" fill="#bafab2" opacity="0"/>
  <path id="Path_223" data-name="Path 223" d="M35,69.966A35.251,35.251,0,0,0,70,34.983,35.258,35.258,0,0,0,34.966,0,35.221,35.221,0,0,0,0,34.983,35.273,35.273,0,0,0,35,69.966ZM31.157,51.754a3.572,3.572,0,0,1-3.02-1.68L19.524,39.51a3.727,3.727,0,0,1-.824-2.229,2.768,2.768,0,0,1,2.745-2.812,2.969,2.969,0,0,1,2.608,1.44l6.966,8.986L45.671,21.367a2.99,2.99,0,0,1,2.436-1.578,2.751,2.751,0,0,1,2.917,2.641,4.986,4.986,0,0,1-.858,2.264L34.039,50.074A3.307,3.307,0,0,1,31.157,51.754Z" fill="#bafab2"/>
</svg>
