<svg id="chevron.right" xmlns="http://www.w3.org/2000/svg" width="9.551" height="16.963" viewBox="0 0 9.551 16.963">
  <rect id="Rectangle_50" data-name="Rectangle 50" width="9.551" height="16.963" fill="#b4b4b4" opacity="0"/>
  <path id="Path_205" data-name="Path 205" d="M9.551,8.477a.874.874,0,0,0-.283-.645L1.533.254A.908.908,0,0,0,.889,0,.874.874,0,0,0,0,.889a.927.927,0,0,0,.254.635L7.363,8.477.254,15.43A.909.909,0,0,0,0,16.065a.874.874,0,0,0,.889.889.877.877,0,0,0,.645-.264L9.268,9.121A.89.89,0,0,0,9.551,8.477Z" fill="#b4b4b4"/>
</svg>
