<svg id="clock" xmlns="http://www.w3.org/2000/svg" width="14.92" height="14.927" viewBox="0 0 14.92 14.927">
  <rect id="Rectangle_62" data-name="Rectangle 62" width="14.92" height="14.927" fill="#b4b4b4" opacity="0"/>
  <path id="Path_217" data-name="Path 217" d="M3.635,8.249H7.453a.5.5,0,0,0,.512-.512V2.808a.5.5,0,0,0-.512-.5.5.5,0,0,0-.5.5V7.232H3.635a.508.508,0,1,0,0,1.016ZM7.46,14.918a7.515,7.515,0,0,0,7.46-7.459A7.516,7.516,0,0,0,7.453,0,7.508,7.508,0,0,0,0,7.459,7.519,7.519,0,0,0,7.46,14.918Zm0-1.243a6.216,6.216,0,1,1,6.217-6.216A6.186,6.186,0,0,1,7.46,13.674Z" fill="#b4b4b4"/>
</svg>
