<svg id="exclamationmark.octagon" xmlns="http://www.w3.org/2000/svg" width="30.07" height="28.958" viewBox="0 0 30.07 28.958">
  <rect id="Rectangle_40" data-name="Rectangle 40" width="30.07" height="28.958" transform="translate(0)" fill="#fff" opacity="0"/>
  <path id="Path_195" data-name="Path 195" d="M10.594,28.948h8.882a4.393,4.393,0,0,0,3.7-1.639l5.677-6.264a4.028,4.028,0,0,0,1.215-3.22V11.137a4.009,4.009,0,0,0-1.215-3.22L23.178,1.654A4.4,4.4,0,0,0,19.476,0H10.594a4.382,4.382,0,0,0-3.7,1.654L1.215,7.918A3.962,3.962,0,0,0,0,11.137v6.688a3.98,3.98,0,0,0,1.215,3.22l5.677,6.264A4.374,4.374,0,0,0,10.594,28.948Zm.79-2.342a2.9,2.9,0,0,1-2.692-1.2L3.409,19.626a2.486,2.486,0,0,1-.7-2.078V11.415a2.486,2.486,0,0,1,.7-2.078L8.692,3.556a2.868,2.868,0,0,1,2.692-1.2h7.3a2.883,2.883,0,0,1,2.692,1.2l5.268,5.781a2.448,2.448,0,0,1,.717,2.078v6.132a2.448,2.448,0,0,1-.717,2.078l-5.268,5.781a2.913,2.913,0,0,1-2.692,1.2Zm3.644-9.5a1.04,1.04,0,0,0,1.127-1.156l.2-7.727a1.281,1.281,0,0,0-1.346-1.3A1.249,1.249,0,0,0,13.681,8.21l.2,7.742A1.051,1.051,0,0,0,15.028,17.108Zm0,4.756a1.523,1.523,0,1,0-1.566-1.522A1.562,1.562,0,0,0,15.028,21.865Z" transform="translate(0)" fill="#fff"/>
</svg>
