<svg xmlns="http://www.w3.org/2000/svg" width="24.69" height="16.467" viewBox="0 0 24.69 16.467">
  <path id="Path_192" data-name="Path 192" d="M12.349,16.17a14.193,14.193,0,0,0,4.616-.775l-1.183-1.181a11.5,11.5,0,0,1-3.433.532c-5.953,0-10.769-5.031-10.769-6.3,0-.631,1.671-2.732,4.336-4.328L4.8,3C1.789,4.855,0,7.352,0,8.443,0,10.283,5.14,16.17,12.349,16.17Zm0-15.453a13.56,13.56,0,0,0-4.327.712L9.215,2.61a10.756,10.756,0,0,1,3.135-.469c5.944,0,10.76,5.229,10.76,6.3,0,.73-1.581,2.7-4.083,4.228l1.111,1.109c2.855-1.848,4.553-4.273,4.553-5.337C24.69,6.6,19.649.717,12.349.717Zm0,12.775a5.062,5.062,0,0,0,2.213-.523L7.787,6.207a4.971,4.971,0,0,0-.524,2.236A5.086,5.086,0,0,0,12.349,13.492Zm4.634-3.074a4.706,4.706,0,0,0,.434-1.974,5.051,5.051,0,0,0-7.056-4.634Zm2.394,5.833a.7.7,0,0,0,.985-.983L5.258.2a.71.71,0,0,0-.994,0,.713.713,0,0,0,0,.983Z" transform="translate(0 0)" fill="#b4b4b4"/>
</svg>
