<svg id="minus.circle" xmlns="http://www.w3.org/2000/svg" width="21.92" height="21.931" viewBox="0 0 21.92 21.931">
  <rect id="Rectangle_57" data-name="Rectangle 57" width="21.92" height="21.931" fill="#b4b4b4" opacity="0"/>
  <path id="Path_213" data-name="Path 213" d="M10.96,21.921A11.041,11.041,0,0,0,21.92,10.96,11.044,11.044,0,0,0,10.949,0,11.032,11.032,0,0,0,0,10.96,11.049,11.049,0,0,0,10.96,21.921Zm0-1.827a9.134,9.134,0,1,1,9.133-9.134A9.089,9.089,0,0,1,10.96,20.094Zm-4.223-8.22h8.435a.908.908,0,1,0,0-1.805H6.737a.9.9,0,0,0-1.021.913C5.716,11.551,6.135,11.874,6.737,11.874Z" fill="#b4b4b4"/>
</svg>
