<svg id="mappin.and.ellipse" xmlns="http://www.w3.org/2000/svg" width="14.42" height="16.683" viewBox="0 0 14.42 16.683">
  <rect id="Rectangle_61" data-name="Rectangle 61" width="14.42" height="16.683" fill="#b4b4b4" opacity="0"/>
  <path id="Path_216" data-name="Path 216" d="M4.359,2.863A2.839,2.839,0,0,0,6.5,5.628v4.808c0,2.241.4,3.464.706,3.464s.706-1.215.706-3.464V5.628A2.857,2.857,0,1,0,4.359,2.863Zm2.035.16a1,1,0,0,1-.972-.987.976.976,0,0,1,1.952,0A.994.994,0,0,1,6.394,3.023Zm.82,13.657c4.579,0,7.206-1.58,7.206-3.251,0-2.005-3.182-3.228-5.27-3.251v1.109c1.465.023,3.736.82,3.736,1.96,0,1.306-2.407,2.233-5.672,2.233-3.28,0-5.672-.911-5.672-2.233,0-1.139,2.263-1.937,3.728-1.96V10.178C3.182,10.2,0,11.424,0,13.429,0,15.1,2.635,16.68,7.214,16.68Z" fill="#b4b4b4"/>
</svg>
