<svg id="person.fill.questionmark" xmlns="http://www.w3.org/2000/svg" width="26.15" height="23.192" viewBox="0 0 26.15 23.192">
  <rect id="Rectangle_48" data-name="Rectangle 48" width="26.15" height="23.192" fill="#ffef77" opacity="0"/>
  <path id="Path_203" data-name="Path 203" d="M2.064,22.753h16.19c1.292,0,2.064-.606,2.064-1.613,0-3.129-3.9-7.447-10.165-7.447S0,18.011,0,21.14C0,22.146.773,22.753,2.064,22.753Zm8.1-11.231a5.125,5.125,0,0,0,4.829-5.361A5.014,5.014,0,0,0,10.165.946,5.052,5.052,0,0,0,5.336,6.185,5.11,5.11,0,0,0,10.165,11.522Zm11.771-2.8a.882.882,0,0,0,.978-.861V7.714c0-.691.4-1.116,1.231-1.674,1.171-.776,2-1.48,2-2.935,0-2.013-1.787-3.1-3.839-3.1s-3.429.995-3.767,2.11a1.976,1.976,0,0,0-.1.594.81.81,0,0,0,.821.837,1.04,1.04,0,0,0,.893-.485l.217-.291a2.118,2.118,0,0,1,1.859-1.116A1.6,1.6,0,0,1,24.049,3.2c0,.825-.507,1.225-1.557,1.965A2.816,2.816,0,0,0,20.983,7.6v.158A.856.856,0,0,0,21.937,8.72Zm-.024,3.614a1.262,1.262,0,1,0-1.3-1.261A1.291,1.291,0,0,0,21.912,12.335Z" fill="#ffef77"/>
</svg>
