<svg id="person.fill.checkmark" xmlns="http://www.w3.org/2000/svg" width="26.92" height="20.127" viewBox="0 0 26.92 20.127">
  <rect id="Rectangle_47" data-name="Rectangle 47" width="26.92" height="20.127" fill="#bafab2" opacity="0"/>
  <path id="Path_202" data-name="Path 202" d="M1.88,20.127H16.62c1.176,0,1.88-.551,1.88-1.465,0-2.842-3.55-6.763-9.255-6.763S0,15.82,0,18.662C0,19.576.7,20.127,1.88,20.127Zm7.376-10.2a4.66,4.66,0,0,0,4.4-4.869A4.559,4.559,0,0,0,9.255.322a4.593,4.593,0,0,0-4.4,4.758A4.646,4.646,0,0,0,9.255,9.927Zm11.487.65a1.044,1.044,0,0,0,.89-.507L26.656,2.14a1.491,1.491,0,0,0,.264-.7.852.852,0,0,0-.9-.8.912.912,0,0,0-.758.5L20.7,8.462,18.533,5.653A.929.929,0,0,0,17.72,5.2a.855.855,0,0,0-.846.881,1.191,1.191,0,0,0,.253.683l2.682,3.3A1.105,1.105,0,0,0,20.742,10.577Z" transform="translate(0)" fill="#bafab2"/>
</svg>
