<svg id="person.crop.circle" xmlns="http://www.w3.org/2000/svg" width="40.83" height="40.836" viewBox="0 0 40.83 40.836">
  <rect id="Rectangle_55" data-name="Rectangle 55" width="40.83" height="40.836" transform="translate(0 0)" fill="#dbdbdb" opacity="0"/>
  <path id="Path_211" data-name="Path 211" d="M20.407,40.833A20.416,20.416,0,1,0,0,20.416,20.5,20.5,0,0,0,20.407,40.833Zm0-1.591A18.833,18.833,0,1,1,39.24,20.416,18.814,18.814,0,0,1,20.407,39.242Zm14-5.447,0-.109c-1.335-2.866-6.665-6.444-14-6.444-7.295,0-12.625,3.548-14,6.378l-.017.175a19.9,19.9,0,0,0,14.028,6.172A19.691,19.691,0,0,0,34.405,33.795Zm-14-10.153c3.987,0,7.035-3.4,7.035-7.836,0-4.147-3.113-7.654-7.035-7.654s-7.071,3.508-7.05,7.654C13.364,20.238,16.411,23.63,20.407,23.642Z" transform="translate(0 0)" fill="#dbdbdb"/>
</svg>
