<svg id="plus.circle" xmlns="http://www.w3.org/2000/svg" width="29.925" height="29.94" viewBox="0 0 29.925 29.94">
  <rect id="Rectangle_38" data-name="Rectangle 38" width="29.925" height="29.94" fill="#b4b4b4" opacity="0"/>
  <path id="Path_193" data-name="Path 193" d="M14.963,29.93A15.075,15.075,0,0,0,29.925,14.965,15.078,15.078,0,0,0,14.948,0,15.062,15.062,0,0,0,0,14.965,15.084,15.084,0,0,0,14.963,29.93Zm0-2.494A12.471,12.471,0,1,1,27.432,14.965,12.41,12.41,0,0,1,14.963,27.436ZM8.156,14.965a1.159,1.159,0,0,0,1.247,1.2h4.313V20.5a1.232,1.232,0,1,0,2.464,0V16.168h4.327a1.167,1.167,0,0,0,1.247-1.2,1.194,1.194,0,0,0-1.247-1.247H16.18V9.4a1.2,1.2,0,0,0-1.247-1.262A1.183,1.183,0,0,0,13.716,9.4v4.313H9.4A1.186,1.186,0,0,0,8.156,14.965Z" fill="#b4b4b4"/>
</svg>
