<svg id="person.fill.xmark" xmlns="http://www.w3.org/2000/svg" width="26.86" height="20.131" viewBox="0 0 26.86 20.131">
  <rect id="Rectangle_49" data-name="Rectangle 49" width="26.86" height="20.131" fill="#f88" opacity="0"/>
  <path id="Path_204" data-name="Path 204" d="M1.88,20.131H16.624c1.176,0,1.88-.551,1.88-1.465,0-2.842-3.551-6.765-9.257-6.765S0,15.824,0,18.666C0,19.58.7,20.131,1.88,20.131Zm7.377-10.2a4.661,4.661,0,0,0,4.4-4.87A4.56,4.56,0,0,0,9.258.322a4.594,4.594,0,0,0-4.4,4.759A4.647,4.647,0,0,0,9.258,9.929Zm9.2-.165a.848.848,0,0,0,.627-.275L22.209,6.36l3.122,3.129a.879.879,0,0,0,1.517-.617.884.884,0,0,0-.264-.628L23.463,5.115,26.6,1.964a.852.852,0,0,0,.264-.617.883.883,0,0,0-.88-.881.837.837,0,0,0-.616.275l-3.155,3.14L19.065.752a.791.791,0,0,0-.6-.264.867.867,0,0,0-.88.87.818.818,0,0,0,.264.617l3.122,3.14-3.122,3.14a.818.818,0,0,0-.264.617A.885.885,0,0,0,18.46,9.764Z" fill="#f88"/>
</svg>
