<svg id="plus.circle.fill" xmlns="http://www.w3.org/2000/svg" width="48.21" height="48.224" viewBox="0 0 48.21 48.224">
  <path id="Path_201" data-name="Path 201" d="M24.1,48.224A24.287,24.287,0,0,0,48.21,24.112,24.292,24.292,0,0,0,24.081,0,24.267,24.267,0,0,0,0,24.112,24.3,24.3,0,0,0,24.1,48.224ZM12.572,24.135a1.985,1.985,0,0,1,2.08-2.08h7.4v-7.4a1.98,1.98,0,0,1,2.032-2.1,2,2,0,0,1,2.08,2.1v7.4h7.421a2,2,0,0,1,2.079,2.08,1.955,1.955,0,0,1-2.079,2.009H26.161v7.423a2.056,2.056,0,1,1-4.112,0V26.145h-7.4A1.942,1.942,0,0,1,12.572,24.135Z" fill="#1c47a1"/>
</svg>
