<svg id="square.and.pencil" xmlns="http://www.w3.org/2000/svg" width="19.321" height="20.64" viewBox="0 0 19.321 20.64">
  <rect id="Rectangle_56" data-name="Rectangle 56" width="19.321" height="20.64" fill="#b4b4b4" opacity="0"/>
  <path id="Path_212" data-name="Path 212" d="M3.066,19.289H14.531c1.758,0,2.774-1.016,2.774-3.027V5.823L15.732,7.395v8.789c0,1.016-.547,1.533-1.221,1.533H3.1a1.369,1.369,0,0,1-1.523-1.533V5.1A1.377,1.377,0,0,1,3.1,3.557h8.9l1.572-1.572H3.066C1.035,1.985,0,3,0,5.012v11.25C0,18.284,1.035,19.289,3.066,19.289Zm3.555-6.328,1.9-.83L17.646,3.02,16.309,1.7,7.2,10.813l-.879,1.836A.243.243,0,0,0,6.621,12.961ZM18.369,2.307l.7-.723a.78.78,0,0,0,0-1.143L18.848.207a.777.777,0,0,0-1.1.049l-.713.7Z" fill="#b4b4b4"/>
</svg>
