<svg id="xmark.circle" xmlns="http://www.w3.org/2000/svg" width="70" height="70" viewBox="0 0 70 70">
  <rect id="Rectangle_66" data-name="Rectangle 66" width="70" height="70" fill="#f38989" opacity="0"/>
  <path id="Path_224" data-name="Path 224" d="M34.987,69.965A34.982,34.982,0,1,0,0,34.982,35.13,35.13,0,0,0,34.987,69.965Zm0-2.726A32.269,32.269,0,1,1,67.274,34.982,32.245,32.245,0,0,1,34.987,67.238ZM22.166,49.228a1.456,1.456,0,0,0,1.145-.507l11.667-11.7,11.712,11.7a1.534,1.534,0,0,0,1.109.507,1.39,1.39,0,0,0,.971-2.432L36.99,35.018l11.79-11.772a1.369,1.369,0,0,0,.471-1.073,1.39,1.39,0,0,0-1.442-1.365,1.406,1.406,0,0,0-1.089.507L34.977,33.025l-11.687-11.7a1.407,1.407,0,0,0-1.125-.5,1.375,1.375,0,0,0-1.416,1.355,1.447,1.447,0,0,0,.471,1.073L32.974,35.018,21.221,46.806a1.383,1.383,0,0,0,.945,2.422Z" fill="#f38989"/>
</svg>
