<svg id="x.circle" xmlns="http://www.w3.org/2000/svg" width="21.92" height="21.931" viewBox="0 0 21.92 21.931">
  <rect id="Rectangle_64" data-name="Rectangle 64" width="21.92" height="21.931" fill="#f88" opacity="0"/>
  <path id="Path_219" data-name="Path 219" d="M10.96,21.921A11.041,11.041,0,0,0,21.92,10.96,11.044,11.044,0,0,0,10.949,0,11.032,11.032,0,0,0,0,10.96,11.049,11.049,0,0,0,10.96,21.921Zm0-1.827a9.134,9.134,0,1,1,9.133-9.134A9.089,9.089,0,0,1,10.96,20.094Zm-3.2-4.212c.344,0,.527-.118.806-.494l2.321-3.31h.043l2.321,3.31c.269.376.462.494.8.494a.792.792,0,0,0,.849-.784.855.855,0,0,0-.2-.559l-2.7-3.686,2.719-3.7a.865.865,0,0,0,.2-.57.774.774,0,0,0-.806-.752.864.864,0,0,0-.784.484l-2.246,3.31h-.054L8.736,6.308a.9.9,0,0,0-.817-.473.824.824,0,0,0-.838.8.933.933,0,0,0,.226.623L9.885,10.8l-2.74,3.782a.915.915,0,0,0-.183.559A.756.756,0,0,0,7.758,15.882Z" fill="#f88"/>
</svg>
